<?xml version="1.0" encoding="UTF-8"?>
<svg xmlns="http://www.w3.org/2000/svg" xmlns:xlink="http://www.w3.org/1999/xlink" width="854" height="480" viewBox="0 0 854 480">
<defs>
<g>
<g id="glyph-0-0">
<path d="M 6.101562 -5.726562 C 5.875 -5.726562 5.695312 -5.628906 5.570312 -5.433594 C 5.507812 -5.339844 5.476562 -5.132812 5.476562 -4.808594 L 5.476562 -2.421875 C 5.476562 -1.816406 5.417969 -1.359375 5.304688 -1.046875 C 5.175781 -0.714844 4.945312 -0.4375 4.613281 -0.210938 C 4.269531 0.0234375 3.800781 0.140625 3.210938 0.140625 C 2.066406 0.140625 1.34375 -0.273438 1.042969 -1.09375 C 0.949219 -1.347656 0.902344 -1.832031 0.902344 -2.542969 L 0.902344 -4.84375 C 0.902344 -5.191406 0.851562 -5.429688 0.75 -5.554688 C 0.664062 -5.667969 0.503906 -5.726562 0.269531 -5.726562 L 0.046875 -5.726562 L 0.046875 -5.886719 L 2.589844 -5.886719 L 2.589844 -5.726562 L 2.367188 -5.726562 C 2.121094 -5.726562 1.949219 -5.648438 1.84375 -5.496094 C 1.773438 -5.390625 1.734375 -5.175781 1.734375 -4.84375 L 1.734375 -2.277344 C 1.734375 -1.585938 1.832031 -1.09375 2.027344 -0.804688 C 2.277344 -0.425781 2.691406 -0.234375 3.265625 -0.234375 C 3.644531 -0.234375 3.988281 -0.316406 4.292969 -0.484375 C 4.601562 -0.648438 4.808594 -0.863281 4.921875 -1.128906 C 5.03125 -1.390625 5.085938 -1.835938 5.085938 -2.460938 L 5.085938 -4.84375 C 5.085938 -5.210938 5.046875 -5.441406 4.964844 -5.535156 C 4.851562 -5.660156 4.683594 -5.726562 4.460938 -5.726562 L 4.242188 -5.726562 L 4.242188 -5.886719 L 6.238281 -5.886719 C 6.339844 -5.886719 6.449219 -5.910156 6.5625 -5.964844 C 6.648438 -6.003906 6.675781 -6.050781 6.644531 -6.105469 C 6.589844 -6.132812 6.511719 -6.203125 6.410156 -6.316406 C 6.351562 -6.414062 6.335938 -6.507812 6.363281 -6.597656 C 6.386719 -6.691406 6.449219 -6.765625 6.554688 -6.824219 C 6.613281 -6.859375 6.679688 -6.878906 6.746094 -6.878906 C 6.914062 -6.878906 7.046875 -6.800781 7.136719 -6.644531 C 7.179688 -6.566406 7.199219 -6.484375 7.199219 -6.394531 C 7.199219 -6.328125 7.1875 -6.261719 7.167969 -6.191406 C 7.109375 -6.023438 6.988281 -5.898438 6.800781 -5.820312 C 6.640625 -5.757812 6.453125 -5.726562 6.238281 -5.726562 L 6.101562 -5.726562 M 4.167969 -7.800781 L 2.886719 -6.300781 L 2.738281 -6.300781 L 3.195312 -7.800781 Z "/>
</g>
<g id="glyph-0-1">
<path d="M 1.4375 -3.25 C 1.902344 -3.8125 2.347656 -4.09375 2.769531 -4.09375 C 2.984375 -4.09375 3.171875 -4.039062 3.328125 -3.929688 C 3.484375 -3.820312 3.609375 -3.644531 3.703125 -3.394531 C 3.765625 -3.21875 3.796875 -2.953125 3.796875 -2.59375 L 3.796875 -0.898438 C 3.796875 -0.648438 3.816406 -0.476562 3.859375 -0.386719 C 3.890625 -0.3125 3.941406 -0.257812 4.011719 -0.21875 C 4.082031 -0.175781 4.214844 -0.15625 4.40625 -0.15625 L 4.40625 0 L 2.4375 0 L 2.4375 -0.15625 L 2.523438 -0.15625 C 2.707031 -0.15625 2.835938 -0.183594 2.910156 -0.242188 C 2.984375 -0.296875 3.035156 -0.378906 3.0625 -0.492188 C 3.074219 -0.535156 3.082031 -0.667969 3.082031 -0.898438 L 3.082031 -2.527344 C 3.082031 -2.886719 3.035156 -3.152344 2.941406 -3.3125 C 2.847656 -3.476562 2.6875 -3.558594 2.464844 -3.558594 C 2.121094 -3.558594 1.777344 -3.371094 1.4375 -2.996094 L 1.4375 -0.898438 C 1.4375 -0.628906 1.453125 -0.464844 1.484375 -0.398438 C 1.523438 -0.316406 1.582031 -0.253906 1.652344 -0.214844 C 1.722656 -0.175781 1.867188 -0.15625 2.082031 -0.15625 L 2.082031 0 L 0.117188 0 L 0.117188 -0.15625 L 0.203125 -0.15625 C 0.40625 -0.15625 0.542969 -0.207031 0.613281 -0.308594 C 0.683594 -0.414062 0.71875 -0.609375 0.71875 -0.898438 L 0.71875 -2.375 C 0.71875 -2.851562 0.710938 -3.140625 0.6875 -3.246094 C 0.667969 -3.351562 0.632812 -3.421875 0.589844 -3.460938 C 0.542969 -3.496094 0.484375 -3.515625 0.40625 -3.515625 C 0.328125 -3.515625 0.230469 -3.492188 0.117188 -3.449219 L 0.0507812 -3.605469 L 1.25 -4.09375 L 1.4375 -4.09375 Z "/>
</g>
<g id="glyph-0-2">
<path d="M 1.339844 -1.449219 C 1.097656 -1.570312 0.910156 -1.734375 0.78125 -1.945312 C 0.652344 -2.160156 0.585938 -2.394531 0.585938 -2.652344 C 0.585938 -3.046875 0.734375 -3.382812 1.03125 -3.667969 C 1.328125 -3.953125 1.707031 -4.09375 2.171875 -4.09375 C 2.550781 -4.09375 2.878906 -4 3.15625 -3.816406 L 3.996094 -3.816406 C 4.121094 -3.816406 4.195312 -3.8125 4.214844 -3.804688 C 4.234375 -3.796875 4.25 -3.785156 4.257812 -3.765625 C 4.273438 -3.742188 4.285156 -3.695312 4.285156 -3.628906 C 4.285156 -3.554688 4.277344 -3.5 4.261719 -3.472656 C 4.253906 -3.457031 4.238281 -3.445312 4.214844 -3.4375 C 4.195312 -3.429688 4.121094 -3.425781 3.996094 -3.425781 L 3.480469 -3.425781 C 3.644531 -3.214844 3.722656 -2.949219 3.722656 -2.625 C 3.722656 -2.253906 3.582031 -1.9375 3.296875 -1.675781 C 3.015625 -1.410156 2.632812 -1.28125 2.15625 -1.28125 C 1.960938 -1.28125 1.757812 -1.308594 1.554688 -1.367188 C 1.425781 -1.257812 1.339844 -1.160156 1.296875 -1.078125 C 1.25 -0.996094 1.226562 -0.925781 1.226562 -0.867188 C 1.226562 -0.820312 1.253906 -0.769531 1.300781 -0.726562 C 1.347656 -0.679688 1.441406 -0.644531 1.578125 -0.625 C 1.660156 -0.613281 1.863281 -0.601562 2.1875 -0.59375 C 2.785156 -0.582031 3.171875 -0.558594 3.347656 -0.535156 C 3.617188 -0.496094 3.832031 -0.394531 3.992188 -0.234375 C 4.152344 -0.0742188 4.230469 0.128906 4.230469 0.363281 C 4.230469 0.691406 4.078125 1 3.773438 1.285156 C 3.320312 1.707031 2.730469 1.917969 2.003906 1.917969 C 1.445312 1.917969 0.976562 1.792969 0.589844 1.539062 C 0.375 1.394531 0.265625 1.246094 0.265625 1.089844 C 0.265625 1.019531 0.28125 0.949219 0.3125 0.882812 C 0.363281 0.773438 0.464844 0.625 0.617188 0.433594 C 0.636719 0.40625 0.785156 0.25 1.058594 -0.0351562 C 0.910156 -0.125 0.800781 -0.203125 0.738281 -0.277344 C 0.679688 -0.347656 0.648438 -0.425781 0.648438 -0.515625 C 0.648438 -0.617188 0.6875 -0.738281 0.769531 -0.871094 C 0.851562 -1.007812 1.042969 -1.199219 1.339844 -1.449219 M 2.097656 -3.882812 C 1.882812 -3.882812 1.703125 -3.800781 1.558594 -3.628906 C 1.414062 -3.457031 1.339844 -3.195312 1.339844 -2.84375 C 1.339844 -2.386719 1.441406 -2.03125 1.636719 -1.78125 C 1.785156 -1.589844 1.976562 -1.492188 2.210938 -1.492188 C 2.429688 -1.492188 2.609375 -1.574219 2.75 -1.742188 C 2.894531 -1.90625 2.964844 -2.164062 2.964844 -2.515625 C 2.964844 -2.976562 2.863281 -3.335938 2.664062 -3.597656 C 2.515625 -3.789062 2.328125 -3.882812 2.097656 -3.882812 M 1.296875 0 C 1.160156 0.148438 1.058594 0.285156 0.988281 0.414062 C 0.921875 0.539062 0.886719 0.65625 0.886719 0.765625 C 0.886719 0.902344 0.96875 1.023438 1.136719 1.128906 C 1.425781 1.308594 1.84375 1.398438 2.390625 1.398438 C 2.914062 1.398438 3.296875 1.304688 3.542969 1.121094 C 3.792969 0.9375 3.914062 0.742188 3.914062 0.535156 C 3.914062 0.382812 3.839844 0.277344 3.695312 0.210938 C 3.542969 0.148438 3.246094 0.113281 2.800781 0.101562 C 2.148438 0.0820312 1.648438 0.0507812 1.296875 0 Z "/>
</g>
<g id="glyph-0-3">
</g>
<g id="glyph-0-4">
<path d="M 3.085938 -0.445312 C 2.890625 -0.246094 2.703125 -0.0976562 2.515625 -0.0117188 C 2.332031 0.078125 2.132812 0.121094 1.917969 0.121094 C 1.484375 0.121094 1.105469 -0.0585938 0.78125 -0.421875 C 0.457031 -0.785156 0.296875 -1.253906 0.296875 -1.824219 C 0.296875 -2.394531 0.472656 -2.914062 0.832031 -3.386719 C 1.191406 -3.859375 1.652344 -4.097656 2.21875 -4.097656 C 2.566406 -4.097656 2.859375 -3.984375 3.085938 -3.761719 L 3.085938 -4.496094 C 3.085938 -4.949219 3.074219 -5.230469 3.054688 -5.335938 C 3.03125 -5.4375 2.996094 -5.507812 2.953125 -5.546875 C 2.90625 -5.585938 2.847656 -5.605469 2.777344 -5.605469 C 2.703125 -5.605469 2.601562 -5.582031 2.476562 -5.535156 L 2.421875 -5.6875 L 3.605469 -6.171875 L 3.800781 -6.171875 L 3.800781 -1.574219 C 3.800781 -1.109375 3.8125 -0.824219 3.835938 -0.722656 C 3.855469 -0.621094 3.890625 -0.546875 3.9375 -0.507812 C 3.988281 -0.46875 4.042969 -0.445312 4.105469 -0.445312 C 4.183594 -0.445312 4.289062 -0.472656 4.417969 -0.519531 L 4.464844 -0.367188 L 3.285156 0.121094 L 3.085938 0.121094 L 3.085938 -0.445312 M 3.085938 -0.75 L 3.085938 -2.800781 C 3.070312 -2.996094 3.015625 -3.175781 2.929688 -3.335938 C 2.84375 -3.5 2.726562 -3.621094 2.585938 -3.703125 C 2.441406 -3.785156 2.300781 -3.828125 2.164062 -3.828125 C 1.910156 -3.828125 1.683594 -3.714844 1.484375 -3.484375 C 1.222656 -3.183594 1.089844 -2.746094 1.089844 -2.164062 C 1.089844 -1.582031 1.214844 -1.132812 1.472656 -0.824219 C 1.726562 -0.511719 2.007812 -0.355469 2.320312 -0.355469 C 2.585938 -0.355469 2.839844 -0.488281 3.085938 -0.75 Z "/>
</g>
<g id="glyph-0-5">
<path d="M 3.761719 -3.976562 L 3.761719 -1.566406 C 3.761719 -1.105469 3.773438 -0.824219 3.796875 -0.722656 C 3.816406 -0.621094 3.851562 -0.546875 3.898438 -0.507812 C 3.949219 -0.46875 4.003906 -0.445312 4.066406 -0.445312 C 4.15625 -0.445312 4.257812 -0.472656 4.371094 -0.519531 L 4.429688 -0.367188 L 3.242188 0.121094 L 3.046875 0.121094 L 3.046875 -0.71875 C 2.707031 -0.351562 2.445312 -0.117188 2.265625 -0.0234375 C 2.085938 0.0742188 1.898438 0.121094 1.695312 0.121094 C 1.472656 0.121094 1.28125 0.0585938 1.117188 -0.0703125 C 0.953125 -0.199219 0.839844 -0.367188 0.777344 -0.570312 C 0.714844 -0.769531 0.679688 -1.058594 0.679688 -1.429688 L 0.679688 -3.203125 C 0.679688 -3.390625 0.660156 -3.523438 0.621094 -3.59375 C 0.582031 -3.667969 0.519531 -3.722656 0.441406 -3.761719 C 0.359375 -3.800781 0.21875 -3.816406 0.0078125 -3.816406 L 0.0078125 -3.976562 L 1.402344 -3.976562 L 1.402344 -1.316406 C 1.402344 -0.945312 1.464844 -0.703125 1.59375 -0.585938 C 1.722656 -0.46875 1.878906 -0.414062 2.0625 -0.414062 C 2.1875 -0.414062 2.328125 -0.453125 2.484375 -0.53125 C 2.644531 -0.609375 2.828125 -0.757812 3.046875 -0.976562 L 3.046875 -3.230469 C 3.046875 -3.453125 3.003906 -3.609375 2.921875 -3.6875 C 2.839844 -3.765625 2.667969 -3.808594 2.410156 -3.816406 L 2.410156 -3.976562 L 3.761719 -3.976562 M 1.984375 0.519531 C 2.121094 0.519531 2.234375 0.566406 2.328125 0.660156 C 2.417969 0.757812 2.464844 0.871094 2.464844 1.003906 C 2.464844 1.136719 2.417969 1.25 2.324219 1.34375 C 2.230469 1.4375 2.117188 1.484375 1.984375 1.484375 C 1.851562 1.484375 1.738281 1.4375 1.644531 1.34375 C 1.550781 1.25 1.5 1.136719 1.5 1.003906 C 1.5 0.867188 1.550781 0.753906 1.644531 0.660156 C 1.738281 0.566406 1.851562 0.519531 1.984375 0.519531 Z "/>
</g>
<g id="glyph-0-6">
<path d="M 4.535156 -3.789062 L 6.359375 -3.789062 L 6.359375 -3.628906 C 6.105469 -3.609375 5.921875 -3.550781 5.800781 -3.460938 C 5.679688 -3.371094 5.492188 -3.09375 5.238281 -2.632812 C 4.984375 -2.175781 4.699219 -1.746094 4.378906 -1.34375 C 4.636719 -1.042969 4.867188 -0.835938 5.070312 -0.714844 C 5.273438 -0.59375 5.476562 -0.535156 5.683594 -0.535156 C 5.882812 -0.535156 6.050781 -0.589844 6.191406 -0.695312 C 6.328125 -0.804688 6.425781 -0.964844 6.484375 -1.175781 L 6.644531 -1.058594 C 6.539062 -0.652344 6.367188 -0.351562 6.128906 -0.15625 C 5.890625 0.0390625 5.613281 0.132812 5.300781 0.132812 C 5.0625 0.132812 4.820312 0.0703125 4.578125 -0.0585938 C 4.332031 -0.1875 4.066406 -0.40625 3.777344 -0.710938 C 3.417969 -0.394531 3.09375 -0.171875 2.804688 -0.0507812 C 2.519531 0.0742188 2.210938 0.132812 1.882812 0.132812 C 1.40625 0.132812 1.027344 0.0078125 0.746094 -0.246094 C 0.464844 -0.503906 0.324219 -0.804688 0.324219 -1.160156 C 0.324219 -1.507812 0.453125 -1.859375 0.703125 -2.207031 C 0.953125 -2.554688 1.429688 -2.917969 2.121094 -3.289062 C 1.988281 -3.589844 1.894531 -3.835938 1.84375 -4.03125 C 1.796875 -4.222656 1.769531 -4.40625 1.769531 -4.582031 C 1.769531 -5.078125 1.953125 -5.457031 2.316406 -5.714844 C 2.601562 -5.917969 2.925781 -6.019531 3.285156 -6.019531 C 3.628906 -6.019531 3.910156 -5.917969 4.128906 -5.714844 C 4.34375 -5.511719 4.453125 -5.257812 4.453125 -4.960938 C 4.453125 -4.65625 4.347656 -4.386719 4.136719 -4.152344 C 3.929688 -3.921875 3.558594 -3.667969 3.023438 -3.394531 C 3.394531 -2.742188 3.777344 -2.140625 4.175781 -1.597656 C 4.683594 -2.203125 4.941406 -2.71875 4.941406 -3.132812 C 4.941406 -3.265625 4.894531 -3.386719 4.808594 -3.488281 C 4.746094 -3.566406 4.65625 -3.613281 4.535156 -3.628906 L 4.535156 -3.789062 M 2.878906 -3.675781 C 3.238281 -3.847656 3.503906 -4.039062 3.683594 -4.257812 C 3.859375 -4.476562 3.949219 -4.714844 3.949219 -4.984375 C 3.949219 -5.191406 3.886719 -5.363281 3.757812 -5.5 C 3.628906 -5.636719 3.46875 -5.703125 3.277344 -5.703125 C 3.023438 -5.703125 2.835938 -5.617188 2.707031 -5.441406 C 2.578125 -5.265625 2.511719 -5.09375 2.511719 -4.925781 C 2.511719 -4.785156 2.539062 -4.625 2.585938 -4.453125 C 2.636719 -4.277344 2.734375 -4.019531 2.878906 -3.675781 M 3.550781 -0.964844 C 3.167969 -1.484375 2.902344 -1.863281 2.757812 -2.105469 C 2.609375 -2.34375 2.445312 -2.644531 2.269531 -3 C 1.921875 -2.800781 1.660156 -2.578125 1.488281 -2.339844 C 1.3125 -2.097656 1.222656 -1.839844 1.222656 -1.558594 C 1.222656 -1.25 1.324219 -0.976562 1.523438 -0.742188 C 1.722656 -0.507812 1.992188 -0.390625 2.332031 -0.390625 C 2.511719 -0.390625 2.6875 -0.425781 2.859375 -0.5 C 3.027344 -0.570312 3.257812 -0.726562 3.550781 -0.964844 Z "/>
</g>
<g id="glyph-0-7">
<path d="M 5.144531 -5.886719 L 5.207031 -4.503906 L 5.042969 -4.503906 C 5.011719 -4.75 4.96875 -4.921875 4.914062 -5.027344 C 4.824219 -5.195312 4.703125 -5.316406 4.554688 -5.398438 C 4.40625 -5.476562 4.210938 -5.515625 3.96875 -5.515625 L 3.136719 -5.515625 L 3.136719 -1.019531 C 3.136719 -0.660156 3.175781 -0.433594 3.253906 -0.34375 C 3.367188 -0.222656 3.535156 -0.160156 3.761719 -0.160156 L 3.96875 -0.160156 L 3.96875 0 L 1.472656 0 L 1.472656 -0.160156 L 1.679688 -0.160156 C 1.929688 -0.160156 2.105469 -0.234375 2.210938 -0.386719 C 2.273438 -0.480469 2.304688 -0.691406 2.304688 -1.019531 L 2.304688 -5.515625 L 1.597656 -5.515625 C 1.324219 -5.515625 1.128906 -5.496094 1.011719 -5.457031 C 0.859375 -5.402344 0.730469 -5.296875 0.625 -5.140625 C 0.519531 -4.984375 0.453125 -4.773438 0.433594 -4.503906 L 0.269531 -4.503906 L 0.339844 -5.886719 Z "/>
</g>
<g id="glyph-0-8">
<path d="M 2.222656 -4.09375 C 2.824219 -4.09375 3.308594 -3.863281 3.671875 -3.40625 C 3.980469 -3.015625 4.136719 -2.566406 4.136719 -2.0625 C 4.136719 -1.707031 4.050781 -1.34375 3.878906 -0.980469 C 3.710938 -0.617188 3.472656 -0.339844 3.175781 -0.15625 C 2.875 0.0273438 2.542969 0.121094 2.175781 0.121094 C 1.574219 0.121094 1.097656 -0.117188 0.746094 -0.59375 C 0.449219 -0.996094 0.300781 -1.449219 0.300781 -1.949219 C 0.300781 -2.3125 0.390625 -2.675781 0.570312 -3.035156 C 0.75 -3.394531 0.988281 -3.664062 1.285156 -3.835938 C 1.578125 -4.007812 1.890625 -4.09375 2.222656 -4.09375 M 2.085938 -3.8125 C 1.933594 -3.8125 1.78125 -3.765625 1.625 -3.675781 C 1.46875 -3.582031 1.34375 -3.421875 1.25 -3.195312 C 1.15625 -2.964844 1.105469 -2.671875 1.105469 -2.3125 C 1.105469 -1.734375 1.222656 -1.234375 1.453125 -0.816406 C 1.683594 -0.394531 1.984375 -0.1875 2.359375 -0.1875 C 2.640625 -0.1875 2.875 -0.300781 3.054688 -0.535156 C 3.238281 -0.765625 3.328125 -1.164062 3.328125 -1.726562 C 3.328125 -2.433594 3.175781 -2.988281 2.875 -3.394531 C 2.667969 -3.671875 2.40625 -3.8125 2.085938 -3.8125 M 1.871094 -6.011719 L 2.667969 -6.011719 L 3.492188 -4.574219 L 3.359375 -4.574219 L 2.175781 -5.5 L 1.179688 -4.574219 L 1.050781 -4.574219 L 1.871094 -6.011719 M 2.734375 -7 C 2.585938 -6.859375 2.496094 -6.761719 2.464844 -6.707031 C 2.433594 -6.652344 2.414062 -6.570312 2.410156 -6.46875 L 2.261719 -6.46875 C 2.273438 -6.664062 2.34375 -6.867188 2.476562 -7.078125 C 2.570312 -7.230469 2.617188 -7.351562 2.617188 -7.445312 C 2.617188 -7.65625 2.511719 -7.765625 2.300781 -7.765625 C 2.203125 -7.765625 2.128906 -7.742188 2.078125 -7.695312 C 2.058594 -7.675781 2.046875 -7.65625 2.046875 -7.636719 C 2.046875 -7.613281 2.066406 -7.578125 2.097656 -7.527344 C 2.128906 -7.476562 2.144531 -7.4375 2.144531 -7.410156 C 2.144531 -7.308594 2.089844 -7.257812 1.980469 -7.257812 C 1.835938 -7.257812 1.761719 -7.339844 1.761719 -7.503906 C 1.761719 -7.625 1.820312 -7.722656 1.933594 -7.800781 C 2.046875 -7.882812 2.191406 -7.921875 2.367188 -7.921875 C 2.589844 -7.921875 2.757812 -7.863281 2.863281 -7.753906 C 2.949219 -7.664062 2.992188 -7.570312 2.992188 -7.464844 C 2.992188 -7.320312 2.90625 -7.167969 2.734375 -7 Z "/>
</g>
<g id="glyph-0-9">
<path d="M 1.453125 -6.171875 L 1.453125 -2.21875 L 2.464844 -3.136719 C 2.679688 -3.335938 2.804688 -3.460938 2.839844 -3.511719 C 2.863281 -3.546875 2.875 -3.582031 2.875 -3.617188 C 2.875 -3.671875 2.847656 -3.722656 2.800781 -3.765625 C 2.753906 -3.808594 2.675781 -3.832031 2.566406 -3.835938 L 2.566406 -3.976562 L 4.292969 -3.976562 L 4.292969 -3.835938 C 4.054688 -3.832031 3.859375 -3.796875 3.699219 -3.726562 C 3.542969 -3.660156 3.371094 -3.542969 3.179688 -3.371094 L 2.160156 -2.429688 L 3.179688 -1.140625 C 3.464844 -0.785156 3.65625 -0.558594 3.753906 -0.464844 C 3.894531 -0.328125 4.015625 -0.238281 4.117188 -0.199219 C 4.191406 -0.171875 4.316406 -0.15625 4.496094 -0.15625 L 4.496094 0 L 2.566406 0 L 2.566406 -0.15625 C 2.675781 -0.160156 2.75 -0.175781 2.789062 -0.207031 C 2.828125 -0.238281 2.847656 -0.277344 2.847656 -0.335938 C 2.847656 -0.402344 2.789062 -0.507812 2.671875 -0.65625 L 1.453125 -2.214844 L 1.453125 -0.894531 C 1.453125 -0.636719 1.472656 -0.46875 1.507812 -0.386719 C 1.542969 -0.304688 1.597656 -0.246094 1.664062 -0.210938 C 1.730469 -0.179688 1.875 -0.160156 2.097656 -0.15625 L 2.097656 0 L 0.0742188 0 L 0.0742188 -0.15625 C 0.277344 -0.15625 0.429688 -0.179688 0.53125 -0.230469 C 0.589844 -0.261719 0.636719 -0.3125 0.667969 -0.378906 C 0.710938 -0.472656 0.734375 -0.636719 0.734375 -0.871094 L 0.734375 -4.492188 C 0.734375 -4.953125 0.722656 -5.234375 0.703125 -5.335938 C 0.683594 -5.4375 0.648438 -5.511719 0.601562 -5.550781 C 0.558594 -5.589844 0.496094 -5.609375 0.421875 -5.609375 C 0.359375 -5.609375 0.269531 -5.582031 0.148438 -5.535156 L 0.0742188 -5.6875 L 1.253906 -6.171875 Z "/>
</g>
<g id="glyph-0-10">
<path d="M 0.945312 -2.476562 C 0.941406 -1.886719 1.085938 -1.425781 1.375 -1.089844 C 1.664062 -0.753906 2.003906 -0.585938 2.394531 -0.585938 C 2.65625 -0.585938 2.882812 -0.65625 3.074219 -0.800781 C 3.269531 -0.945312 3.429688 -1.1875 3.558594 -1.535156 L 3.695312 -1.449219 C 3.632812 -1.054688 3.457031 -0.691406 3.164062 -0.367188 C 2.871094 -0.0429688 2.507812 0.121094 2.066406 0.121094 C 1.589844 0.121094 1.179688 -0.0625 0.839844 -0.4375 C 0.5 -0.808594 0.328125 -1.308594 0.328125 -1.9375 C 0.328125 -2.617188 0.503906 -3.144531 0.851562 -3.527344 C 1.203125 -3.90625 1.640625 -4.097656 2.164062 -4.097656 C 2.613281 -4.097656 2.976562 -3.949219 3.265625 -3.65625 C 3.550781 -3.363281 3.695312 -2.96875 3.695312 -2.476562 L 0.945312 -2.476562 M 0.945312 -2.730469 L 2.785156 -2.730469 C 2.773438 -2.984375 2.742188 -3.164062 2.695312 -3.269531 C 2.625 -3.429688 2.515625 -3.558594 2.371094 -3.648438 C 2.230469 -3.742188 2.078125 -3.789062 1.921875 -3.789062 C 1.683594 -3.789062 1.46875 -3.695312 1.277344 -3.507812 C 1.089844 -3.324219 0.976562 -3.0625 0.945312 -2.730469 M 1.75 -6.011719 L 2.546875 -6.011719 L 3.371094 -4.574219 L 3.238281 -4.574219 L 2.054688 -5.5 L 1.058594 -4.574219 L 0.929688 -4.574219 L 1.75 -6.011719 M 1.902344 -6.472656 L 1.75 -6.472656 L 2.210938 -7.921875 L 3.175781 -7.921875 Z "/>
</g>
<g id="glyph-0-11">
<path d="M 1.433594 -5.28125 L 1.433594 -3.976562 L 2.359375 -3.976562 L 2.359375 -3.671875 L 1.433594 -3.671875 L 1.433594 -1.09375 C 1.433594 -0.835938 1.46875 -0.664062 1.542969 -0.574219 C 1.617188 -0.484375 1.710938 -0.4375 1.828125 -0.4375 C 1.921875 -0.4375 2.015625 -0.46875 2.105469 -0.527344 C 2.195312 -0.585938 2.265625 -0.675781 2.3125 -0.789062 L 2.484375 -0.789062 C 2.382812 -0.507812 2.238281 -0.292969 2.054688 -0.148438 C 1.867188 -0.0078125 1.675781 0.0664062 1.480469 0.0664062 C 1.347656 0.0664062 1.214844 0.0273438 1.089844 -0.046875 C 0.960938 -0.121094 0.867188 -0.226562 0.808594 -0.363281 C 0.746094 -0.5 0.714844 -0.710938 0.714844 -1 L 0.714844 -3.671875 L 0.0859375 -3.671875 L 0.0859375 -3.816406 C 0.246094 -3.878906 0.410156 -3.988281 0.574219 -4.136719 C 0.742188 -4.289062 0.890625 -4.472656 1.019531 -4.679688 C 1.085938 -4.789062 1.179688 -4.988281 1.296875 -5.28125 Z "/>
</g>
</g>
</defs>
<g fill="rgb(73.333333%, 73.333333%, 73.333333%)" fill-opacity="1">
<use xlink:href="#glyph-0-0" x="30" y="27.920898"/>
<use xlink:href="#glyph-0-1" x="37" y="27.920898"/>
<use xlink:href="#glyph-0-2" x="41" y="27.920898"/>
<use xlink:href="#glyph-0-3" x="45" y="27.920898"/>
<use xlink:href="#glyph-0-4" x="47" y="27.920898"/>
<use xlink:href="#glyph-0-5" x="51" y="27.920898"/>
<use xlink:href="#glyph-0-1" x="55" y="27.920898"/>
<use xlink:href="#glyph-0-2" x="59" y="27.920898"/>
<use xlink:href="#glyph-0-3" x="63" y="27.920898"/>
<use xlink:href="#glyph-0-6" x="65" y="27.920898"/>
<use xlink:href="#glyph-0-3" x="72" y="27.920898"/>
<use xlink:href="#glyph-0-7" x="74" y="27.920898"/>
<use xlink:href="#glyph-0-8" x="79" y="27.920898"/>
<use xlink:href="#glyph-0-1" x="83" y="27.920898"/>
<use xlink:href="#glyph-0-2" x="87" y="27.920898"/>
<use xlink:href="#glyph-0-3" x="91" y="27.920898"/>
<use xlink:href="#glyph-0-9" x="93" y="27.920898"/>
<use xlink:href="#glyph-0-10" x="97" y="27.920898"/>
<use xlink:href="#glyph-0-11" x="101" y="27.920898"/>
</g>
</svg>
