<?xml version="1.0" encoding="UTF-8"?>
<svg xmlns="http://www.w3.org/2000/svg" xmlns:xlink="http://www.w3.org/1999/xlink" width="854" height="480" viewBox="0 0 854 480">
<defs>
<g>
<g id="glyph-0-0">
<path d="M 4.726562 0 L 0.574219 0 L 0.574219 -0.921875 C 0.925781 -1.203125 1.242188 -1.464844 1.519531 -1.710938 C 1.800781 -1.960938 2.046875 -2.195312 2.257812 -2.417969 C 2.535156 -2.710938 2.734375 -2.964844 2.859375 -3.1875 C 2.984375 -3.40625 3.046875 -3.632812 3.046875 -3.867188 C 3.046875 -4.128906 2.96875 -4.332031 2.808594 -4.472656 C 2.652344 -4.613281 2.433594 -4.683594 2.152344 -4.683594 C 2.007812 -4.683594 1.871094 -4.664062 1.746094 -4.628906 C 1.617188 -4.59375 1.488281 -4.546875 1.355469 -4.492188 C 1.226562 -4.433594 1.117188 -4.375 1.023438 -4.3125 C 0.933594 -4.253906 0.867188 -4.207031 0.820312 -4.175781 L 0.710938 -4.175781 L 0.710938 -5.410156 C 0.871094 -5.488281 1.117188 -5.566406 1.457031 -5.644531 C 1.796875 -5.726562 2.125 -5.765625 2.4375 -5.765625 C 3.109375 -5.765625 3.617188 -5.617188 3.960938 -5.316406 C 4.308594 -5.019531 4.480469 -4.597656 4.480469 -4.054688 C 4.480469 -3.722656 4.402344 -3.394531 4.246094 -3.074219 C 4.089844 -2.753906 3.828125 -2.410156 3.464844 -2.042969 C 3.234375 -1.816406 3.015625 -1.617188 2.796875 -1.441406 C 2.582031 -1.265625 2.429688 -1.140625 2.332031 -1.066406 L 4.726562 -1.066406 Z "/>
</g>
<g id="glyph-0-1">
<path d="M 3.109375 -2.171875 C 3.109375 -1.789062 3.078125 -1.421875 3.007812 -1.070312 C 2.941406 -0.714844 2.847656 -0.390625 2.730469 -0.0976562 C 2.605469 0.210938 2.453125 0.503906 2.277344 0.773438 C 2.105469 1.046875 1.910156 1.308594 1.695312 1.566406 L 0.300781 1.566406 L 0.300781 1.453125 C 0.503906 1.273438 0.699219 1.0625 0.890625 0.820312 C 1.085938 0.578125 1.253906 0.304688 1.40625 0.00390625 C 1.5625 -0.308594 1.6875 -0.644531 1.777344 -0.996094 C 1.871094 -1.347656 1.917969 -1.738281 1.917969 -2.171875 C 1.917969 -2.585938 1.871094 -2.980469 1.773438 -3.34375 C 1.679688 -3.710938 1.558594 -4.046875 1.40625 -4.347656 C 1.246094 -4.660156 1.074219 -4.9375 0.886719 -5.171875 C 0.699219 -5.40625 0.503906 -5.613281 0.300781 -5.800781 L 0.300781 -5.910156 L 1.695312 -5.910156 C 1.914062 -5.644531 2.113281 -5.378906 2.289062 -5.105469 C 2.464844 -4.832031 2.613281 -4.542969 2.734375 -4.238281 C 2.84375 -3.957031 2.9375 -3.648438 3.003906 -3.308594 C 3.074219 -2.96875 3.109375 -2.589844 3.109375 -2.171875 Z "/>
</g>
<g id="glyph-0-2">
</g>
<g id="glyph-0-3">
<path d="M 5.765625 -2.820312 C 5.765625 -2.296875 5.648438 -1.824219 5.417969 -1.40625 C 5.1875 -0.992188 4.898438 -0.671875 4.546875 -0.449219 C 4.25 -0.261719 3.929688 -0.140625 3.585938 -0.0820312 C 3.242188 -0.0273438 2.875 0 2.484375 0 L 0.71875 0 L 0.71875 -2.585938 L 0.0664062 -2.585938 L 0.0664062 -3.457031 L 0.71875 -3.457031 L 0.71875 -5.65625 L 2.46875 -5.65625 C 2.867188 -5.65625 3.238281 -5.628906 3.585938 -5.578125 C 3.933594 -5.527344 4.257812 -5.40625 4.5625 -5.210938 C 4.933594 -4.972656 5.226562 -4.652344 5.441406 -4.246094 C 5.65625 -3.84375 5.765625 -3.367188 5.765625 -2.820312 M 4.304688 -2.832031 C 4.304688 -3.207031 4.242188 -3.523438 4.113281 -3.789062 C 3.988281 -4.050781 3.789062 -4.257812 3.523438 -4.410156 C 3.335938 -4.515625 3.136719 -4.574219 2.921875 -4.582031 C 2.707031 -4.59375 2.453125 -4.597656 2.160156 -4.597656 L 2.128906 -4.597656 L 2.128906 -3.457031 L 3.34375 -3.457031 L 3.34375 -2.585938 L 2.128906 -2.585938 L 2.128906 -1.058594 L 2.160156 -1.058594 C 2.480469 -1.058594 2.75 -1.066406 2.96875 -1.078125 C 3.1875 -1.089844 3.394531 -1.15625 3.59375 -1.28125 C 3.824219 -1.425781 4.003906 -1.628906 4.125 -1.886719 C 4.246094 -2.144531 4.304688 -2.460938 4.304688 -2.832031 Z "/>
</g>
<g id="glyph-0-4">
<path d="M 1.839844 0 L 0.507812 0 L 0.507812 -4.265625 L 1.839844 -4.265625 L 1.839844 0 M 1.875 -4.871094 L 0.472656 -4.871094 L 0.472656 -5.910156 L 1.875 -5.910156 L 1.875 -4.871094 M 1.855469 1.605469 L 0.488281 1.605469 L 0.488281 0.570312 L 1.855469 0.570312 Z "/>
</g>
<g id="glyph-0-5">
<path d="M 4.503906 0 L 3.167969 0 L 3.167969 -2.113281 C 3.167969 -2.289062 3.160156 -2.457031 3.144531 -2.628906 C 3.132812 -2.800781 3.105469 -2.925781 3.070312 -3.007812 C 3.023438 -3.105469 2.957031 -3.171875 2.871094 -3.214844 C 2.785156 -3.257812 2.667969 -3.277344 2.523438 -3.277344 C 2.417969 -3.277344 2.304688 -3.257812 2.195312 -3.214844 C 2.082031 -3.175781 1.964844 -3.113281 1.839844 -3.023438 L 1.839844 0 L 0.507812 0 L 0.507812 -4.265625 L 1.839844 -4.265625 L 1.839844 -3.792969 C 2.054688 -3.980469 2.269531 -4.121094 2.472656 -4.226562 C 2.679688 -4.332031 2.910156 -4.382812 3.160156 -4.382812 C 3.59375 -4.382812 3.929688 -4.246094 4.160156 -3.96875 C 4.390625 -3.695312 4.503906 -3.296875 4.503906 -2.777344 Z "/>
</g>
<g id="glyph-0-6">
<path d="M 4.503906 0 L 3.167969 0 L 3.167969 -2.113281 C 3.167969 -2.289062 3.160156 -2.457031 3.144531 -2.628906 C 3.132812 -2.800781 3.105469 -2.925781 3.070312 -3.007812 C 3.023438 -3.105469 2.957031 -3.171875 2.871094 -3.214844 C 2.785156 -3.257812 2.667969 -3.277344 2.523438 -3.277344 C 2.417969 -3.277344 2.304688 -3.257812 2.195312 -3.214844 C 2.082031 -3.175781 1.964844 -3.113281 1.839844 -3.023438 L 1.839844 0 L 0.507812 0 L 0.507812 -5.910156 L 1.839844 -5.910156 L 1.839844 -3.792969 C 2.054688 -3.980469 2.269531 -4.121094 2.472656 -4.226562 C 2.679688 -4.332031 2.910156 -4.382812 3.160156 -4.382812 C 3.59375 -4.382812 3.929688 -4.246094 4.160156 -3.96875 C 4.390625 -3.695312 4.503906 -3.296875 4.503906 -2.777344 Z "/>
</g>
<g id="glyph-0-7">
<path d="M 1.839844 0 L 0.507812 0 L 0.507812 -5.910156 L 1.839844 -5.910156 Z "/>
</g>
<g id="glyph-0-8">
<path d="M 4.488281 -4.265625 L 2.335938 1.566406 L 0.90625 1.566406 L 1.554688 -0.101562 L -0.0117188 -4.265625 L 1.386719 -4.265625 L 2.28125 -1.589844 L 3.121094 -4.265625 L 4.488281 -4.265625 M 3.636719 -6.363281 L 2.5 -4.871094 L 1.59375 -4.871094 L 2.382812 -6.363281 Z "/>
</g>
<g id="glyph-0-9">
<path d="M 4.691406 -2.191406 C 4.691406 -1.511719 4.515625 -0.960938 4.171875 -0.542969 C 3.824219 -0.125 3.398438 0.0820312 2.894531 0.0820312 C 2.679688 0.0820312 2.496094 0.0585938 2.339844 0.0117188 C 2.183594 -0.0351562 2.015625 -0.113281 1.839844 -0.210938 L 1.839844 1.566406 L 0.507812 1.566406 L 0.507812 -4.265625 L 1.839844 -4.265625 L 1.839844 -3.820312 C 2.03125 -3.988281 2.230469 -4.121094 2.433594 -4.226562 C 2.636719 -4.332031 2.871094 -4.382812 3.136719 -4.382812 C 3.628906 -4.382812 4.011719 -4.1875 4.285156 -3.792969 C 4.554688 -3.402344 4.691406 -2.867188 4.691406 -2.191406 M 3.332031 -2.164062 C 3.332031 -2.578125 3.265625 -2.882812 3.136719 -3.070312 C 3.011719 -3.253906 2.8125 -3.347656 2.539062 -3.347656 C 2.421875 -3.347656 2.304688 -3.332031 2.183594 -3.292969 C 2.066406 -3.253906 1.953125 -3.199219 1.839844 -3.121094 L 1.839844 -0.976562 C 1.910156 -0.945312 1.988281 -0.925781 2.070312 -0.910156 C 2.15625 -0.898438 2.257812 -0.890625 2.375 -0.890625 C 2.699219 -0.890625 2.9375 -1 3.09375 -1.210938 C 3.25 -1.421875 3.332031 -1.738281 3.332031 -2.164062 Z "/>
</g>
<g id="glyph-0-10">
<path d="M 4.601562 -2.128906 C 4.601562 -1.429688 4.410156 -0.875 4.027344 -0.472656 C 3.644531 -0.0703125 3.101562 0.132812 2.398438 0.132812 C 1.703125 0.132812 1.164062 -0.0703125 0.777344 -0.472656 C 0.390625 -0.875 0.199219 -1.429688 0.199219 -2.128906 C 0.199219 -2.839844 0.390625 -3.394531 0.777344 -3.796875 C 1.164062 -4.195312 1.703125 -4.398438 2.398438 -4.398438 C 3.097656 -4.398438 3.640625 -4.195312 4.023438 -3.792969 C 4.410156 -3.386719 4.601562 -2.835938 4.601562 -2.128906 M 3.238281 -2.121094 C 3.238281 -2.375 3.21875 -2.585938 3.175781 -2.753906 C 3.136719 -2.921875 3.078125 -3.058594 3.003906 -3.160156 C 2.925781 -3.265625 2.835938 -3.339844 2.738281 -3.382812 C 2.640625 -3.421875 2.527344 -3.445312 2.398438 -3.445312 C 2.28125 -3.445312 2.171875 -3.425781 2.078125 -3.390625 C 1.980469 -3.351562 1.890625 -3.28125 1.8125 -3.179688 C 1.734375 -3.078125 1.675781 -2.945312 1.628906 -2.773438 C 1.582031 -2.601562 1.5625 -2.382812 1.5625 -2.121094 C 1.5625 -1.863281 1.582031 -1.652344 1.625 -1.492188 C 1.667969 -1.328125 1.722656 -1.203125 1.792969 -1.105469 C 1.863281 -1.007812 1.953125 -0.933594 2.058594 -0.886719 C 2.164062 -0.84375 2.28125 -0.820312 2.410156 -0.820312 C 2.519531 -0.820312 2.625 -0.84375 2.734375 -0.886719 C 2.847656 -0.933594 2.933594 -1.003906 3 -1.09375 C 3.078125 -1.203125 3.136719 -1.332031 3.179688 -1.488281 C 3.21875 -1.640625 3.238281 -1.851562 3.238281 -2.121094 M 4.019531 -4.871094 L 3.035156 -4.871094 L 2.40625 -5.679688 L 1.785156 -4.871094 L 0.816406 -4.871094 L 1.960938 -6.363281 L 2.875 -6.363281 L 4.019531 -4.871094 M 4.886719 -6.53125 C 4.886719 -6.347656 4.839844 -6.207031 4.746094 -6.117188 C 4.648438 -6.023438 4.53125 -5.953125 4.386719 -5.902344 L 4.386719 -5.675781 L 3.710938 -5.675781 L 3.710938 -6.101562 C 3.828125 -6.132812 3.917969 -6.179688 3.980469 -6.238281 C 4.039062 -6.300781 4.070312 -6.378906 4.070312 -6.480469 C 4.070312 -6.539062 4.046875 -6.589844 4 -6.625 C 3.949219 -6.660156 3.886719 -6.679688 3.800781 -6.679688 C 3.722656 -6.679688 3.660156 -6.675781 3.613281 -6.664062 C 3.566406 -6.652344 3.511719 -6.632812 3.453125 -6.613281 L 3.441406 -6.613281 L 3.441406 -7.046875 C 3.488281 -7.0625 3.5625 -7.078125 3.660156 -7.09375 C 3.757812 -7.109375 3.863281 -7.117188 3.972656 -7.117188 C 4.277344 -7.117188 4.503906 -7.058594 4.65625 -6.941406 C 4.8125 -6.824219 4.886719 -6.6875 4.886719 -6.53125 Z "/>
</g>
</g>
</defs>
<g fill="rgb(51.372549%, 75.686275%, 40.392157%)" fill-opacity="1">
<use xlink:href="#glyph-0-0" x="30" y="27.78125"/>
<use xlink:href="#glyph-0-1" x="35" y="27.78125"/>
<use xlink:href="#glyph-0-2" x="39" y="27.78125"/>
<use xlink:href="#glyph-0-3" x="41" y="27.78125"/>
<use xlink:href="#glyph-0-4" x="47" y="27.78125"/>
<use xlink:href="#glyph-0-5" x="49" y="27.78125"/>
<use xlink:href="#glyph-0-6" x="54" y="27.78125"/>
<use xlink:href="#glyph-0-2" x="59" y="27.78125"/>
<use xlink:href="#glyph-0-7" x="61" y="27.78125"/>
<use xlink:href="#glyph-0-8" x="63" y="27.78125"/>
<use xlink:href="#glyph-0-2" x="67" y="27.78125"/>
<use xlink:href="#glyph-0-9" x="69" y="27.78125"/>
<use xlink:href="#glyph-0-6" x="74" y="27.78125"/>
<use xlink:href="#glyph-0-10" x="79" y="27.78125"/>
</g>
</svg>
