<?xml version="1.0" encoding="UTF-8"?>
<svg xmlns="http://www.w3.org/2000/svg" xmlns:xlink="http://www.w3.org/1999/xlink" width="854" height="480" viewBox="0 0 854 480">
<defs>
<g>
<g id="glyph-0-0">
<path d="M 3.464844 -1.363281 C 3.464844 -1.144531 3.421875 -0.949219 3.339844 -0.777344 C 3.253906 -0.609375 3.144531 -0.46875 3 -0.359375 C 2.835938 -0.230469 2.65625 -0.136719 2.464844 -0.0820312 C 2.273438 -0.0273438 2.027344 0 1.722656 0 L 0.449219 0 L 0.449219 -4.441406 L 1.628906 -4.441406 C 1.945312 -4.441406 2.183594 -4.433594 2.339844 -4.410156 C 2.5 -4.390625 2.652344 -4.339844 2.796875 -4.265625 C 2.953125 -4.179688 3.070312 -4.066406 3.144531 -3.929688 C 3.21875 -3.789062 3.253906 -3.628906 3.253906 -3.441406 C 3.253906 -3.230469 3.199219 -3.042969 3.089844 -2.878906 C 2.980469 -2.714844 2.828125 -2.585938 2.632812 -2.492188 L 2.632812 -2.46875 C 2.894531 -2.394531 3.101562 -2.265625 3.246094 -2.074219 C 3.390625 -1.886719 3.464844 -1.648438 3.464844 -1.363281 M 2.640625 -3.355469 C 2.640625 -3.464844 2.621094 -3.558594 2.585938 -3.636719 C 2.550781 -3.714844 2.492188 -3.777344 2.414062 -3.820312 C 2.316406 -3.875 2.210938 -3.910156 2.09375 -3.921875 C 1.976562 -3.933594 1.816406 -3.9375 1.609375 -3.9375 L 1.042969 -3.9375 L 1.042969 -2.636719 L 1.710938 -2.636719 C 1.898438 -2.636719 2.035156 -2.648438 2.121094 -2.664062 C 2.207031 -2.683594 2.300781 -2.722656 2.394531 -2.785156 C 2.484375 -2.839844 2.546875 -2.917969 2.582031 -3.011719 C 2.621094 -3.105469 2.640625 -3.21875 2.640625 -3.355469 M 2.847656 -1.339844 C 2.847656 -1.507812 2.824219 -1.644531 2.777344 -1.753906 C 2.730469 -1.863281 2.632812 -1.953125 2.488281 -2.027344 C 2.394531 -2.078125 2.292969 -2.109375 2.183594 -2.125 C 2.070312 -2.136719 1.914062 -2.144531 1.710938 -2.144531 L 1.042969 -2.144531 L 1.042969 -0.503906 L 1.523438 -0.503906 C 1.78125 -0.503906 1.984375 -0.515625 2.132812 -0.539062 C 2.28125 -0.5625 2.414062 -0.613281 2.527344 -0.691406 C 2.636719 -0.769531 2.71875 -0.859375 2.773438 -0.957031 C 2.824219 -1.054688 2.847656 -1.183594 2.847656 -1.339844 Z "/>
</g>
<g id="glyph-0-1">
<path d="M 3 0 L 2.441406 0 L 2.441406 -0.371094 C 2.269531 -0.21875 2.105469 -0.105469 1.949219 -0.0234375 C 1.792969 0.0546875 1.621094 0.09375 1.429688 0.09375 C 1.285156 0.09375 1.148438 0.0703125 1.019531 0.0195312 C 0.890625 -0.0273438 0.777344 -0.101562 0.683594 -0.207031 C 0.585938 -0.308594 0.515625 -0.441406 0.460938 -0.597656 C 0.410156 -0.753906 0.382812 -0.945312 0.382812 -1.167969 L 0.382812 -3.332031 L 0.941406 -3.332031 L 0.941406 -1.433594 C 0.941406 -1.257812 0.949219 -1.113281 0.960938 -0.996094 C 0.976562 -0.878906 1.003906 -0.777344 1.050781 -0.6875 C 1.097656 -0.605469 1.15625 -0.542969 1.238281 -0.5 C 1.316406 -0.460938 1.429688 -0.441406 1.574219 -0.441406 C 1.710938 -0.441406 1.859375 -0.480469 2.015625 -0.558594 C 2.167969 -0.636719 2.3125 -0.730469 2.441406 -0.84375 L 2.441406 -3.332031 L 3.0625 -3.332031 C 3.242188 -3.332031 3.367188 -3.363281 3.441406 -3.429688 C 3.515625 -3.496094 3.550781 -3.597656 3.550781 -3.738281 C 3.550781 -3.808594 3.539062 -3.890625 3.519531 -3.980469 C 3.496094 -4.074219 3.472656 -4.140625 3.449219 -4.1875 L 3.449219 -4.214844 L 3.925781 -4.214844 C 3.953125 -4.121094 3.972656 -4.039062 3.980469 -3.96875 C 3.992188 -3.898438 4 -3.8125 4 -3.714844 C 4 -3.453125 3.914062 -3.257812 3.742188 -3.125 C 3.570312 -2.996094 3.324219 -2.929688 3.007812 -2.929688 L 3 -2.929688 Z "/>
</g>
<g id="glyph-0-2">
<path d="M 3.148438 -1.664062 C 3.148438 -1.105469 3.011719 -0.671875 2.742188 -0.367188 C 2.472656 -0.0585938 2.113281 0.09375 1.660156 0.09375 C 1.199219 0.09375 0.832031 -0.0664062 0.570312 -0.378906 C 0.304688 -0.695312 0.171875 -1.125 0.171875 -1.664062 C 0.171875 -2.222656 0.308594 -2.65625 0.582031 -2.960938 C 0.855469 -3.269531 1.214844 -3.425781 1.660156 -3.425781 C 1.761719 -3.425781 1.855469 -3.417969 1.945312 -3.402344 C 2.039062 -3.386719 2.125 -3.363281 2.210938 -3.332031 L 2.476562 -3.332031 C 2.65625 -3.332031 2.78125 -3.363281 2.855469 -3.429688 C 2.929688 -3.496094 2.964844 -3.597656 2.964844 -3.738281 C 2.964844 -3.808594 2.953125 -3.890625 2.933594 -3.980469 C 2.910156 -4.074219 2.886719 -4.140625 2.863281 -4.1875 L 2.863281 -4.214844 L 3.339844 -4.214844 C 3.367188 -4.121094 3.386719 -4.039062 3.398438 -3.96875 C 3.40625 -3.898438 3.414062 -3.8125 3.414062 -3.714844 C 3.414062 -3.503906 3.355469 -3.335938 3.242188 -3.207031 C 3.128906 -3.082031 2.960938 -2.996094 2.746094 -2.957031 C 2.878906 -2.808594 2.976562 -2.625 3.042969 -2.40625 C 3.113281 -2.1875 3.148438 -1.941406 3.148438 -1.664062 M 2.570312 -1.664062 C 2.570312 -2.097656 2.492188 -2.417969 2.332031 -2.628906 C 2.175781 -2.835938 1.953125 -2.941406 1.660156 -2.941406 C 1.371094 -2.941406 1.144531 -2.835938 0.984375 -2.628906 C 0.828125 -2.417969 0.75 -2.097656 0.75 -1.664062 C 0.75 -1.246094 0.828125 -0.929688 0.984375 -0.714844 C 1.144531 -0.5 1.371094 -0.390625 1.660156 -0.390625 C 1.949219 -0.390625 2.171875 -0.496094 2.332031 -0.707031 C 2.488281 -0.921875 2.570312 -1.238281 2.570312 -1.664062 M 2.589844 -5 L 1.773438 -3.886719 L 1.332031 -3.886719 L 1.863281 -5 Z "/>
</g>
<g id="glyph-0-3">
<path d="M 1.730469 0.0742188 C 1.5 0.0742188 1.292969 0.0390625 1.101562 -0.03125 C 0.910156 -0.101562 0.746094 -0.207031 0.609375 -0.351562 C 0.472656 -0.496094 0.363281 -0.675781 0.289062 -0.894531 C 0.214844 -1.113281 0.175781 -1.367188 0.175781 -1.660156 C 0.175781 -1.953125 0.214844 -2.207031 0.292969 -2.417969 C 0.371094 -2.632812 0.476562 -2.8125 0.609375 -2.957031 C 0.738281 -3.101562 0.902344 -3.214844 1.097656 -3.292969 C 1.296875 -3.371094 1.503906 -3.410156 1.730469 -3.410156 C 1.914062 -3.410156 2.089844 -3.382812 2.261719 -3.332031 C 2.429688 -3.28125 2.582031 -3.222656 2.714844 -3.152344 L 2.714844 -2.523438 L 2.683594 -2.523438 C 2.644531 -2.558594 2.589844 -2.597656 2.527344 -2.640625 C 2.464844 -2.683594 2.390625 -2.730469 2.300781 -2.773438 C 2.222656 -2.816406 2.132812 -2.847656 2.027344 -2.878906 C 1.921875 -2.910156 1.820312 -2.925781 1.722656 -2.925781 C 1.429688 -2.925781 1.199219 -2.8125 1.023438 -2.59375 C 0.847656 -2.375 0.757812 -2.0625 0.757812 -1.660156 C 0.757812 -1.269531 0.84375 -0.960938 1.011719 -0.742188 C 1.183594 -0.523438 1.417969 -0.410156 1.722656 -0.410156 C 1.90625 -0.410156 2.078125 -0.449219 2.242188 -0.523438 C 2.410156 -0.601562 2.554688 -0.699219 2.683594 -0.816406 L 2.714844 -0.816406 L 2.714844 -0.1875 C 2.660156 -0.164062 2.589844 -0.128906 2.507812 -0.09375 C 2.421875 -0.0585938 2.347656 -0.03125 2.28125 -0.0117188 C 2.183594 0.015625 2.097656 0.0390625 2.023438 0.0507812 C 1.949219 0.0664062 1.851562 0.0742188 1.730469 0.0742188 Z "/>
</g>
<g id="glyph-0-4">
</g>
<g id="glyph-0-5">
<path d="M 2.839844 0 L 0.675781 0 L 0.675781 -0.453125 L 1.480469 -0.453125 L 1.480469 -3.429688 L 0.675781 -3.429688 L 0.675781 -3.835938 C 0.980469 -3.835938 1.203125 -3.878906 1.347656 -3.96875 C 1.492188 -4.054688 1.574219 -4.21875 1.589844 -4.457031 L 2.054688 -4.457031 L 2.054688 -0.453125 L 2.839844 -0.453125 Z "/>
</g>
<g id="glyph-0-6">
<path d="M 1.4375 -2.484375 L 0.726562 -2.484375 L 0.726562 -3.332031 L 1.4375 -3.332031 L 1.4375 -2.484375 M 1.4375 0 L 0.726562 0 L 0.726562 -0.851562 L 1.4375 -0.851562 Z "/>
</g>
<g id="glyph-0-7">
<path d="M 2.972656 1.230469 L 2.410156 1.230469 L 2.410156 -0.363281 C 2.246094 -0.214844 2.089844 -0.105469 1.933594 -0.0390625 C 1.777344 0.03125 1.605469 0.0664062 1.417969 0.0664062 C 1.039062 0.0664062 0.738281 -0.0859375 0.511719 -0.390625 C 0.289062 -0.691406 0.175781 -1.113281 0.175781 -1.65625 C 0.175781 -1.941406 0.214844 -2.195312 0.292969 -2.414062 C 0.371094 -2.636719 0.476562 -2.820312 0.605469 -2.96875 C 0.730469 -3.113281 0.875 -3.226562 1.046875 -3.304688 C 1.21875 -3.386719 1.394531 -3.425781 1.582031 -3.425781 C 1.753906 -3.425781 1.902344 -3.40625 2.027344 -3.367188 C 2.152344 -3.324219 2.28125 -3.265625 2.410156 -3.191406 L 2.445312 -3.332031 L 2.972656 -3.332031 L 2.972656 1.230469 M 2.410156 -0.835938 L 2.410156 -2.734375 C 2.269531 -2.800781 2.144531 -2.851562 2.03125 -2.878906 C 1.921875 -2.90625 1.800781 -2.921875 1.675781 -2.921875 C 1.378906 -2.921875 1.152344 -2.816406 0.992188 -2.601562 C 0.835938 -2.390625 0.753906 -2.082031 0.753906 -1.683594 C 0.753906 -1.292969 0.820312 -0.992188 0.945312 -0.785156 C 1.074219 -0.574219 1.269531 -0.46875 1.539062 -0.46875 C 1.695312 -0.46875 1.851562 -0.503906 2 -0.570312 C 2.148438 -0.636719 2.285156 -0.726562 2.410156 -0.835938 Z "/>
</g>
<g id="glyph-0-8">
<path d="M 3 0 L 2.441406 0 L 2.441406 -0.371094 C 2.269531 -0.21875 2.105469 -0.105469 1.949219 -0.0234375 C 1.792969 0.0546875 1.621094 0.09375 1.429688 0.09375 C 1.285156 0.09375 1.148438 0.0703125 1.019531 0.0195312 C 0.890625 -0.0273438 0.777344 -0.101562 0.683594 -0.207031 C 0.585938 -0.308594 0.515625 -0.441406 0.460938 -0.597656 C 0.410156 -0.753906 0.382812 -0.945312 0.382812 -1.167969 L 0.382812 -3.332031 L 0.941406 -3.332031 L 0.941406 -1.433594 C 0.941406 -1.257812 0.949219 -1.113281 0.960938 -0.996094 C 0.976562 -0.878906 1.003906 -0.777344 1.050781 -0.6875 C 1.097656 -0.605469 1.15625 -0.542969 1.238281 -0.5 C 1.316406 -0.460938 1.429688 -0.441406 1.574219 -0.441406 C 1.710938 -0.441406 1.859375 -0.480469 2.015625 -0.558594 C 2.167969 -0.636719 2.3125 -0.730469 2.441406 -0.84375 L 2.441406 -3.332031 L 3 -3.332031 Z "/>
</g>
<g id="glyph-0-9">
<path d="M 2.269531 -0.820312 L 2.269531 -1.746094 C 2.132812 -1.734375 1.964844 -1.71875 1.761719 -1.695312 C 1.558594 -1.675781 1.394531 -1.644531 1.269531 -1.609375 C 1.117188 -1.5625 0.996094 -1.492188 0.898438 -1.398438 C 0.800781 -1.304688 0.75 -1.171875 0.75 -1.003906 C 0.75 -0.8125 0.804688 -0.667969 0.914062 -0.570312 C 1.019531 -0.472656 1.175781 -0.421875 1.382812 -0.421875 C 1.5625 -0.421875 1.722656 -0.460938 1.863281 -0.539062 C 2.007812 -0.613281 2.140625 -0.710938 2.269531 -0.820312 M 2.269531 -0.355469 C 2.222656 -0.320312 2.160156 -0.273438 2.085938 -0.214844 C 2.007812 -0.152344 1.933594 -0.105469 1.863281 -0.0703125 C 1.761719 -0.015625 1.667969 0.0234375 1.574219 0.0507812 C 1.480469 0.078125 1.351562 0.09375 1.183594 0.09375 C 1.046875 0.09375 0.917969 0.0664062 0.792969 0.015625 C 0.671875 -0.0351562 0.5625 -0.109375 0.46875 -0.203125 C 0.378906 -0.292969 0.308594 -0.40625 0.253906 -0.542969 C 0.199219 -0.675781 0.171875 -0.816406 0.171875 -0.964844 C 0.171875 -1.199219 0.222656 -1.394531 0.320312 -1.554688 C 0.417969 -1.71875 0.570312 -1.847656 0.78125 -1.941406 C 0.96875 -2.027344 1.191406 -2.085938 1.445312 -2.121094 C 1.699219 -2.152344 1.972656 -2.175781 2.269531 -2.191406 L 2.269531 -2.300781 C 2.269531 -2.433594 2.246094 -2.539062 2.207031 -2.617188 C 2.167969 -2.699219 2.113281 -2.761719 2.039062 -2.804688 C 1.96875 -2.851562 1.882812 -2.878906 1.777344 -2.894531 C 1.675781 -2.910156 1.570312 -2.917969 1.460938 -2.917969 C 1.328125 -2.917969 1.175781 -2.898438 1.003906 -2.859375 C 0.828125 -2.820312 0.652344 -2.765625 0.476562 -2.691406 L 0.445312 -2.691406 L 0.445312 -3.261719 C 0.546875 -3.292969 0.695312 -3.324219 0.890625 -3.359375 C 1.082031 -3.394531 1.273438 -3.414062 1.460938 -3.414062 C 1.691406 -3.414062 1.882812 -3.394531 2.039062 -3.359375 C 2.199219 -3.324219 2.339844 -3.257812 2.464844 -3.164062 C 2.585938 -3.074219 2.675781 -2.957031 2.734375 -2.8125 C 2.796875 -2.664062 2.824219 -2.488281 2.824219 -2.28125 L 2.824219 0 L 2.269531 0 Z "/>
</g>
<g id="glyph-0-10">
<path d="M 3.027344 -3.332031 L 1.230469 1.230469 L 0.632812 1.230469 L 1.230469 -0.160156 L 0.0195312 -3.332031 L 0.625 -3.332031 L 1.535156 -0.867188 L 2.441406 -3.332031 Z "/>
</g>
<g id="glyph-0-11">
<path d="M 2.972656 0 L 2.410156 0 L 2.410156 -0.339844 C 2.324219 -0.265625 2.246094 -0.207031 2.183594 -0.15625 C 2.121094 -0.109375 2.046875 -0.0664062 1.960938 -0.0273438 C 1.878906 0.0117188 1.796875 0.0390625 1.710938 0.0625 C 1.628906 0.0820312 1.527344 0.09375 1.414062 0.09375 C 1.234375 0.09375 1.066406 0.0546875 0.910156 -0.0195312 C 0.757812 -0.0976562 0.625 -0.207031 0.519531 -0.351562 C 0.410156 -0.5 0.324219 -0.679688 0.265625 -0.898438 C 0.207031 -1.113281 0.175781 -1.359375 0.175781 -1.640625 C 0.175781 -1.933594 0.214844 -2.1875 0.289062 -2.402344 C 0.363281 -2.613281 0.46875 -2.800781 0.601562 -2.960938 C 0.722656 -3.105469 0.871094 -3.21875 1.042969 -3.300781 C 1.214844 -3.382812 1.394531 -3.425781 1.585938 -3.425781 C 1.75 -3.425781 1.898438 -3.40625 2.019531 -3.371094 C 2.144531 -3.332031 2.273438 -3.277344 2.410156 -3.199219 L 2.410156 -3.785156 L 1.511719 -3.785156 L 1.511719 -4.183594 L 2.410156 -4.183594 L 2.410156 -4.644531 L 2.972656 -4.644531 L 2.972656 -4.183594 L 3.46875 -4.183594 L 3.46875 -3.785156 L 2.972656 -3.785156 L 2.972656 0 M 2.410156 -0.8125 L 2.410156 -2.734375 C 2.273438 -2.800781 2.148438 -2.847656 2.035156 -2.875 C 1.925781 -2.898438 1.804688 -2.914062 1.675781 -2.914062 C 1.386719 -2.914062 1.164062 -2.804688 1 -2.589844 C 0.835938 -2.371094 0.753906 -2.0625 0.753906 -1.652344 C 0.753906 -1.261719 0.816406 -0.960938 0.941406 -0.753906 C 1.066406 -0.546875 1.269531 -0.441406 1.546875 -0.441406 C 1.691406 -0.441406 1.839844 -0.476562 1.988281 -0.542969 C 2.140625 -0.609375 2.28125 -0.699219 2.410156 -0.8125 Z "/>
</g>
<g id="glyph-0-12">
<path d="M 2.269531 -0.820312 L 2.269531 -1.746094 C 2.132812 -1.734375 1.964844 -1.71875 1.761719 -1.695312 C 1.558594 -1.675781 1.394531 -1.644531 1.269531 -1.609375 C 1.117188 -1.5625 0.996094 -1.492188 0.898438 -1.398438 C 0.800781 -1.304688 0.75 -1.171875 0.75 -1.003906 C 0.75 -0.8125 0.804688 -0.667969 0.914062 -0.570312 C 1.019531 -0.472656 1.175781 -0.421875 1.382812 -0.421875 C 1.5625 -0.421875 1.722656 -0.460938 1.863281 -0.539062 C 2.007812 -0.613281 2.140625 -0.710938 2.269531 -0.820312 M 2.269531 -0.355469 C 2.222656 -0.320312 2.160156 -0.273438 2.085938 -0.214844 C 2.007812 -0.152344 1.933594 -0.105469 1.863281 -0.0703125 C 1.761719 -0.015625 1.667969 0.0234375 1.574219 0.0507812 C 1.480469 0.078125 1.351562 0.09375 1.183594 0.09375 C 1.046875 0.09375 0.917969 0.0664062 0.792969 0.015625 C 0.671875 -0.0351562 0.5625 -0.109375 0.46875 -0.203125 C 0.378906 -0.292969 0.308594 -0.40625 0.253906 -0.542969 C 0.199219 -0.675781 0.171875 -0.816406 0.171875 -0.964844 C 0.171875 -1.199219 0.222656 -1.394531 0.320312 -1.554688 C 0.417969 -1.71875 0.570312 -1.847656 0.78125 -1.941406 C 0.96875 -2.027344 1.191406 -2.085938 1.445312 -2.121094 C 1.699219 -2.152344 1.972656 -2.175781 2.269531 -2.191406 L 2.269531 -2.300781 C 2.269531 -2.433594 2.246094 -2.539062 2.207031 -2.617188 C 2.167969 -2.699219 2.113281 -2.761719 2.039062 -2.804688 C 1.96875 -2.851562 1.882812 -2.878906 1.777344 -2.894531 C 1.675781 -2.910156 1.570312 -2.917969 1.460938 -2.917969 C 1.328125 -2.917969 1.175781 -2.898438 1.003906 -2.859375 C 0.828125 -2.820312 0.652344 -2.765625 0.476562 -2.691406 L 0.445312 -2.691406 L 0.445312 -3.261719 C 0.546875 -3.292969 0.695312 -3.324219 0.890625 -3.359375 C 1.082031 -3.394531 1.273438 -3.414062 1.460938 -3.414062 C 1.691406 -3.414062 1.882812 -3.394531 2.039062 -3.359375 C 2.199219 -3.324219 2.339844 -3.257812 2.464844 -3.164062 C 2.585938 -3.074219 2.675781 -2.957031 2.734375 -2.8125 C 2.796875 -2.664062 2.824219 -2.488281 2.824219 -2.28125 L 2.824219 0 L 2.269531 0 L 2.269531 -0.355469 M 2.613281 -3.871094 L 2.140625 -3.871094 L 1.585938 -4.632812 L 1.039062 -3.871094 L 0.574219 -3.871094 L 1.257812 -5 L 1.933594 -5 L 2.613281 -3.871094 M 0.695312 -4.207031 L 0.308594 -4.207031 L -0.339844 -5 L 0.324219 -5 Z "/>
</g>
<g id="glyph-0-13">
<path d="M 3.027344 -3.332031 L 1.769531 0 L 1.265625 0 L 0.0195312 -3.332031 L 0.625 -3.332031 L 1.535156 -0.761719 L 2.441406 -3.332031 Z "/>
</g>
<g id="glyph-0-14">
<path d="M 2.269531 -0.820312 L 2.269531 -1.746094 C 2.132812 -1.734375 1.964844 -1.71875 1.761719 -1.695312 C 1.558594 -1.675781 1.394531 -1.644531 1.269531 -1.609375 C 1.117188 -1.5625 0.996094 -1.492188 0.898438 -1.398438 C 0.800781 -1.304688 0.75 -1.171875 0.75 -1.003906 C 0.75 -0.8125 0.804688 -0.667969 0.914062 -0.570312 C 1.019531 -0.472656 1.175781 -0.421875 1.382812 -0.421875 C 1.5625 -0.421875 1.722656 -0.460938 1.863281 -0.539062 C 2.007812 -0.613281 2.140625 -0.710938 2.269531 -0.820312 M 2.269531 -0.355469 C 2.222656 -0.320312 2.160156 -0.273438 2.085938 -0.214844 C 2.007812 -0.152344 1.933594 -0.105469 1.863281 -0.0703125 C 1.761719 -0.015625 1.667969 0.0234375 1.574219 0.0507812 C 1.480469 0.078125 1.351562 0.09375 1.183594 0.09375 C 1.046875 0.09375 0.917969 0.0664062 0.792969 0.015625 C 0.671875 -0.0351562 0.5625 -0.109375 0.46875 -0.203125 C 0.378906 -0.292969 0.308594 -0.40625 0.253906 -0.542969 C 0.199219 -0.675781 0.171875 -0.816406 0.171875 -0.964844 C 0.171875 -1.199219 0.222656 -1.394531 0.320312 -1.554688 C 0.417969 -1.71875 0.570312 -1.847656 0.78125 -1.941406 C 0.96875 -2.027344 1.191406 -2.085938 1.445312 -2.121094 C 1.699219 -2.152344 1.972656 -2.175781 2.269531 -2.191406 L 2.269531 -2.300781 C 2.269531 -2.433594 2.246094 -2.539062 2.207031 -2.617188 C 2.167969 -2.699219 2.113281 -2.761719 2.039062 -2.804688 C 1.96875 -2.851562 1.882812 -2.878906 1.777344 -2.894531 C 1.675781 -2.910156 1.570312 -2.917969 1.460938 -2.917969 C 1.328125 -2.917969 1.175781 -2.898438 1.003906 -2.859375 C 0.828125 -2.820312 0.652344 -2.765625 0.476562 -2.691406 L 0.445312 -2.691406 L 0.445312 -3.261719 C 0.546875 -3.292969 0.695312 -3.324219 0.890625 -3.359375 C 1.082031 -3.394531 1.273438 -3.414062 1.460938 -3.414062 C 1.691406 -3.414062 1.882812 -3.394531 2.039062 -3.359375 C 2.199219 -3.324219 2.339844 -3.257812 2.464844 -3.164062 C 2.585938 -3.074219 2.675781 -2.957031 2.734375 -2.8125 C 2.796875 -2.664062 2.824219 -2.488281 2.824219 -2.28125 L 2.824219 0 L 2.269531 0 L 2.269531 -0.355469 M 1.992188 -3.886719 L 1.546875 -3.886719 L 0.734375 -5 L 1.460938 -5 Z "/>
</g>
<g id="glyph-0-15">
<path d="M 3.148438 -1.664062 C 3.148438 -1.105469 3.011719 -0.671875 2.742188 -0.367188 C 2.472656 -0.0585938 2.113281 0.09375 1.660156 0.09375 C 1.199219 0.09375 0.832031 -0.0664062 0.570312 -0.378906 C 0.304688 -0.695312 0.171875 -1.125 0.171875 -1.664062 C 0.171875 -2.222656 0.308594 -2.65625 0.582031 -2.960938 C 0.855469 -3.269531 1.214844 -3.425781 1.660156 -3.425781 C 2.113281 -3.425781 2.472656 -3.273438 2.742188 -2.964844 C 3.011719 -2.65625 3.148438 -2.222656 3.148438 -1.664062 M 2.570312 -1.664062 C 2.570312 -2.097656 2.492188 -2.417969 2.332031 -2.628906 C 2.175781 -2.835938 1.953125 -2.941406 1.660156 -2.941406 C 1.371094 -2.941406 1.144531 -2.835938 0.984375 -2.628906 C 0.828125 -2.417969 0.75 -2.097656 0.75 -1.664062 C 0.75 -1.246094 0.828125 -0.929688 0.984375 -0.714844 C 1.144531 -0.5 1.371094 -0.390625 1.660156 -0.390625 C 1.949219 -0.390625 2.171875 -0.496094 2.332031 -0.707031 C 2.488281 -0.921875 2.570312 -1.238281 2.570312 -1.664062 Z "/>
</g>
</g>
</defs>
<g fill="rgb(100%, 100%, 100%)" fill-opacity="1">
<use xlink:href="#glyph-0-0" x="30" y="26.113281"/>
<use xlink:href="#glyph-0-1" x="34" y="26.113281"/>
<use xlink:href="#glyph-0-2" x="38" y="26.113281"/>
<use xlink:href="#glyph-0-3" x="41" y="26.113281"/>
<use xlink:href="#glyph-0-4" x="44" y="26.113281"/>
<use xlink:href="#glyph-0-5" x="46" y="26.113281"/>
<use xlink:href="#glyph-0-6" x="49" y="26.113281"/>
<use xlink:href="#glyph-0-4" x="51" y="26.113281"/>
<use xlink:href="#glyph-0-7" x="53" y="26.113281"/>
<use xlink:href="#glyph-0-8" x="56" y="26.113281"/>
<use xlink:href="#glyph-0-9" x="59" y="26.113281"/>
<use xlink:href="#glyph-0-10" x="61.979492" y="26.113281"/>
<use xlink:href="#glyph-0-4" x="65" y="26.113281"/>
<use xlink:href="#glyph-0-11" x="67" y="26.113281"/>
<use xlink:href="#glyph-0-12" x="71" y="26.113281"/>
<use xlink:href="#glyph-0-8" x="74" y="26.113281"/>
<use xlink:href="#glyph-0-4" x="77" y="26.113281"/>
<use xlink:href="#glyph-0-13" x="79" y="26.113281"/>
<use xlink:href="#glyph-0-14" x="82" y="26.113281"/>
<use xlink:href="#glyph-0-15" x="85" y="26.113281"/>
</g>
</svg>
