<?xml version="1.0" encoding="UTF-8"?>
<svg xmlns="http://www.w3.org/2000/svg" xmlns:xlink="http://www.w3.org/1999/xlink" width="854" height="480" viewBox="0 0 854 480">
<defs>
<g>
<g id="glyph-0-0">
<path d="M 5.824219 -2.757812 L 8.019531 -8.09375 L 11.316406 -8.09375 L 11.316406 -7.871094 L 11.054688 -7.871094 C 10.8125 -7.871094 10.625 -7.832031 10.480469 -7.746094 C 10.378906 -7.691406 10.300781 -7.597656 10.242188 -7.464844 C 10.199219 -7.371094 10.175781 -7.121094 10.175781 -6.71875 L 10.175781 -1.382812 C 10.175781 -0.972656 10.199219 -0.710938 10.242188 -0.609375 C 10.285156 -0.503906 10.375 -0.414062 10.511719 -0.335938 C 10.644531 -0.257812 10.824219 -0.222656 11.054688 -0.222656 L 11.316406 -0.222656 L 11.316406 0 L 7.089844 0 L 7.089844 -0.222656 L 7.351562 -0.222656 C 7.589844 -0.222656 7.78125 -0.261719 7.925781 -0.347656 C 8.023438 -0.402344 8.105469 -0.496094 8.164062 -0.632812 C 8.207031 -0.726562 8.230469 -0.980469 8.230469 -1.382812 L 8.230469 -7.382812 L 5.125 0 L 4.984375 0 L 1.832031 -7.328125 L 1.832031 -1.628906 C 1.832031 -1.230469 1.84375 -0.988281 1.863281 -0.894531 C 1.914062 -0.695312 2.027344 -0.535156 2.199219 -0.410156 C 2.371094 -0.285156 2.644531 -0.222656 3.015625 -0.222656 L 3.015625 0 L 0.246094 0 L 0.246094 -0.222656 L 0.328125 -0.222656 C 0.507812 -0.21875 0.675781 -0.246094 0.828125 -0.308594 C 0.984375 -0.367188 1.101562 -0.453125 1.183594 -0.554688 C 1.261719 -0.660156 1.324219 -0.804688 1.367188 -0.992188 C 1.375 -1.035156 1.378906 -1.238281 1.378906 -1.597656 L 1.378906 -6.71875 C 1.378906 -7.128906 1.355469 -7.386719 1.3125 -7.488281 C 1.269531 -7.589844 1.179688 -7.679688 1.042969 -7.753906 C 0.910156 -7.832031 0.726562 -7.871094 0.5 -7.871094 L 0.246094 -7.871094 L 0.246094 -8.09375 L 3.550781 -8.09375 Z "/>
</g>
<g id="glyph-0-1">
<path d="M 3.492188 -0.824219 C 2.8125 -0.222656 2.199219 0.078125 1.660156 0.078125 C 1.339844 0.078125 1.078125 -0.0273438 0.867188 -0.234375 C 0.65625 -0.445312 0.550781 -0.707031 0.550781 -1.019531 C 0.550781 -1.445312 0.730469 -1.828125 1.097656 -2.167969 C 1.464844 -2.507812 2.261719 -2.960938 3.492188 -3.527344 L 3.492188 -4.089844 C 3.492188 -4.511719 3.46875 -4.777344 3.421875 -4.886719 C 3.375 -4.996094 3.289062 -5.089844 3.164062 -5.171875 C 3.035156 -5.253906 2.890625 -5.292969 2.734375 -5.292969 C 2.476562 -5.292969 2.261719 -5.234375 2.09375 -5.121094 C 1.992188 -5.050781 1.941406 -4.964844 1.941406 -4.871094 C 1.941406 -4.785156 1.996094 -4.683594 2.105469 -4.558594 C 2.257812 -4.386719 2.332031 -4.222656 2.332031 -4.0625 C 2.332031 -3.871094 2.261719 -3.703125 2.117188 -3.566406 C 1.96875 -3.429688 1.78125 -3.359375 1.546875 -3.359375 C 1.296875 -3.359375 1.085938 -3.4375 0.917969 -3.585938 C 0.746094 -3.738281 0.664062 -3.914062 0.664062 -4.117188 C 0.664062 -4.40625 0.777344 -4.679688 1.003906 -4.9375 C 1.230469 -5.199219 1.546875 -5.398438 1.953125 -5.539062 C 2.355469 -5.675781 2.777344 -5.746094 3.21875 -5.746094 C 3.746094 -5.746094 4.164062 -5.636719 4.472656 -5.410156 C 4.78125 -5.183594 4.980469 -4.941406 5.074219 -4.679688 C 5.128906 -4.511719 5.15625 -4.128906 5.15625 -3.527344 L 5.15625 -1.359375 C 5.15625 -1.105469 5.167969 -0.945312 5.1875 -0.878906 C 5.207031 -0.816406 5.234375 -0.765625 5.277344 -0.734375 C 5.316406 -0.703125 5.363281 -0.6875 5.414062 -0.6875 C 5.515625 -0.6875 5.621094 -0.761719 5.730469 -0.90625 L 5.910156 -0.765625 C 5.710938 -0.46875 5.503906 -0.253906 5.289062 -0.121094 C 5.078125 0.0117188 4.835938 0.078125 4.566406 0.078125 C 4.246094 0.078125 4 0.00390625 3.820312 -0.144531 C 3.640625 -0.296875 3.53125 -0.519531 3.492188 -0.824219 M 3.492188 -1.257812 L 3.492188 -3.128906 C 3.011719 -2.84375 2.652344 -2.542969 2.417969 -2.21875 C 2.261719 -2.003906 2.183594 -1.789062 2.183594 -1.570312 C 2.183594 -1.386719 2.25 -1.226562 2.382812 -1.085938 C 2.480469 -0.980469 2.621094 -0.925781 2.800781 -0.925781 C 2.996094 -0.925781 3.230469 -1.035156 3.492188 -1.257812 Z "/>
</g>
<g id="glyph-0-2">
</g>
<g id="glyph-0-3">
<path d="M 2.625 -7.621094 L 2.625 -5.582031 L 3.949219 -5.582031 L 3.949219 -4.988281 L 2.625 -4.988281 L 2.625 -1.546875 C 2.625 -1.222656 2.640625 -1.015625 2.671875 -0.921875 C 2.699219 -0.828125 2.753906 -0.753906 2.828125 -0.695312 C 2.90625 -0.636719 2.972656 -0.609375 3.039062 -0.609375 C 3.296875 -0.609375 3.542969 -0.804688 3.773438 -1.199219 L 3.949219 -1.066406 C 3.628906 -0.304688 3.105469 0.078125 2.382812 0.078125 C 2.027344 0.078125 1.726562 -0.0195312 1.484375 -0.21875 C 1.238281 -0.414062 1.082031 -0.632812 1.015625 -0.878906 C 0.976562 -1.011719 0.953125 -1.378906 0.953125 -1.976562 L 0.953125 -4.988281 L 0.226562 -4.988281 L 0.226562 -5.199219 C 0.726562 -5.550781 1.15625 -5.925781 1.507812 -6.3125 C 1.859375 -6.703125 2.167969 -7.140625 2.429688 -7.621094 Z "/>
</g>
<g id="glyph-0-4">
<path d="M 2.726562 -5.582031 L 2.726562 -4.316406 C 3.097656 -4.890625 3.421875 -5.273438 3.699219 -5.464844 C 3.980469 -5.652344 4.246094 -5.746094 4.507812 -5.746094 C 4.730469 -5.746094 4.90625 -5.679688 5.039062 -5.542969 C 5.171875 -5.402344 5.238281 -5.210938 5.238281 -4.960938 C 5.238281 -4.691406 5.175781 -4.484375 5.046875 -4.339844 C 4.917969 -4.191406 4.761719 -4.117188 4.578125 -4.117188 C 4.367188 -4.117188 4.183594 -4.1875 4.027344 -4.320312 C 3.875 -4.457031 3.78125 -4.53125 3.753906 -4.546875 C 3.714844 -4.570312 3.667969 -4.582031 3.617188 -4.582031 C 3.5 -4.582031 3.390625 -4.539062 3.289062 -4.453125 C 3.125 -4.316406 3 -4.125 2.917969 -3.875 C 2.792969 -3.488281 2.726562 -3.0625 2.726562 -2.597656 L 2.726562 -1.3125 L 2.734375 -0.980469 C 2.734375 -0.753906 2.746094 -0.605469 2.773438 -0.542969 C 2.824219 -0.4375 2.894531 -0.355469 2.988281 -0.308594 C 3.082031 -0.257812 3.238281 -0.226562 3.460938 -0.214844 L 3.460938 0 L 0.449219 0 L 0.449219 -0.214844 C 0.691406 -0.234375 0.855469 -0.300781 0.941406 -0.414062 C 1.027344 -0.527344 1.066406 -0.828125 1.066406 -1.3125 L 1.066406 -4.398438 C 1.066406 -4.714844 1.050781 -4.917969 1.019531 -5.007812 C 0.980469 -5.117188 0.921875 -5.199219 0.847656 -5.25 C 0.773438 -5.304688 0.636719 -5.339844 0.449219 -5.359375 L 0.449219 -5.582031 Z "/>
</g>
<g id="glyph-0-5">
<path d="M 3.492188 -0.824219 C 2.8125 -0.222656 2.199219 0.078125 1.660156 0.078125 C 1.339844 0.078125 1.078125 -0.0273438 0.867188 -0.234375 C 0.65625 -0.445312 0.550781 -0.707031 0.550781 -1.019531 C 0.550781 -1.445312 0.730469 -1.828125 1.097656 -2.167969 C 1.464844 -2.507812 2.261719 -2.960938 3.492188 -3.527344 L 3.492188 -4.089844 C 3.492188 -4.511719 3.46875 -4.777344 3.421875 -4.886719 C 3.375 -4.996094 3.289062 -5.089844 3.164062 -5.171875 C 3.035156 -5.253906 2.890625 -5.292969 2.734375 -5.292969 C 2.476562 -5.292969 2.261719 -5.234375 2.09375 -5.121094 C 1.992188 -5.050781 1.941406 -4.964844 1.941406 -4.871094 C 1.941406 -4.785156 1.996094 -4.683594 2.105469 -4.558594 C 2.257812 -4.386719 2.332031 -4.222656 2.332031 -4.0625 C 2.332031 -3.871094 2.261719 -3.703125 2.117188 -3.566406 C 1.96875 -3.429688 1.78125 -3.359375 1.546875 -3.359375 C 1.296875 -3.359375 1.085938 -3.4375 0.917969 -3.585938 C 0.746094 -3.738281 0.664062 -3.914062 0.664062 -4.117188 C 0.664062 -4.40625 0.777344 -4.679688 1.003906 -4.9375 C 1.230469 -5.199219 1.546875 -5.398438 1.953125 -5.539062 C 2.355469 -5.675781 2.777344 -5.746094 3.21875 -5.746094 C 3.746094 -5.746094 4.164062 -5.636719 4.472656 -5.410156 C 4.78125 -5.183594 4.980469 -4.941406 5.074219 -4.679688 C 5.128906 -4.511719 5.15625 -4.128906 5.15625 -3.527344 L 5.15625 -1.359375 C 5.15625 -1.105469 5.167969 -0.945312 5.1875 -0.878906 C 5.207031 -0.816406 5.234375 -0.765625 5.277344 -0.734375 C 5.316406 -0.703125 5.363281 -0.6875 5.414062 -0.6875 C 5.515625 -0.6875 5.621094 -0.761719 5.730469 -0.90625 L 5.910156 -0.765625 C 5.710938 -0.46875 5.503906 -0.253906 5.289062 -0.121094 C 5.078125 0.0117188 4.835938 0.078125 4.566406 0.078125 C 4.246094 0.078125 4 0.00390625 3.820312 -0.144531 C 3.640625 -0.296875 3.53125 -0.519531 3.492188 -0.824219 M 3.492188 -1.257812 L 3.492188 -3.128906 C 3.011719 -2.84375 2.652344 -2.542969 2.417969 -2.21875 C 2.261719 -2.003906 2.183594 -1.789062 2.183594 -1.570312 C 2.183594 -1.386719 2.25 -1.226562 2.382812 -1.085938 C 2.480469 -0.980469 2.621094 -0.925781 2.800781 -0.925781 C 2.996094 -0.925781 3.230469 -1.035156 3.492188 -1.257812 M 3.746094 -8.515625 L 4.960938 -6.238281 L 4.5 -6.238281 L 3.078125 -7.464844 L 1.617188 -6.273438 L 1.128906 -6.273438 L 2.398438 -8.515625 L 3.746094 -8.515625 M 2.960938 0.609375 C 3.238281 0.609375 3.472656 0.707031 3.667969 0.898438 C 3.859375 1.089844 3.957031 1.328125 3.957031 1.605469 C 3.957031 1.878906 3.859375 2.113281 3.664062 2.308594 C 3.46875 2.5 3.234375 2.597656 2.960938 2.597656 C 2.6875 2.597656 2.453125 2.5 2.257812 2.308594 C 2.066406 2.113281 1.96875 1.878906 1.96875 1.605469 C 1.96875 1.332031 2.066406 1.097656 2.257812 0.902344 C 2.453125 0.707031 2.6875 0.609375 2.960938 0.609375 Z "/>
</g>
<g id="glyph-0-6">
<path d="M 2.691406 -5.582031 L 2.691406 -4.859375 C 2.976562 -5.167969 3.253906 -5.394531 3.515625 -5.535156 C 3.777344 -5.675781 4.058594 -5.746094 4.363281 -5.746094 C 4.726562 -5.746094 5.023438 -5.648438 5.265625 -5.445312 C 5.503906 -5.246094 5.660156 -4.996094 5.742188 -4.695312 C 5.804688 -4.46875 5.835938 -4.035156 5.835938 -3.390625 L 5.835938 -1.21875 C 5.835938 -0.789062 5.875 -0.519531 5.953125 -0.414062 C 6.03125 -0.308594 6.191406 -0.242188 6.441406 -0.214844 L 6.441406 0 L 3.617188 0 L 3.617188 -0.214844 C 3.828125 -0.242188 3.980469 -0.332031 4.070312 -0.476562 C 4.132812 -0.578125 4.164062 -0.824219 4.164062 -1.21875 L 4.164062 -3.699219 C 4.164062 -4.15625 4.148438 -4.445312 4.113281 -4.566406 C 4.078125 -4.683594 4.015625 -4.777344 3.929688 -4.84375 C 3.84375 -4.910156 3.75 -4.941406 3.648438 -4.941406 C 3.304688 -4.941406 2.984375 -4.695312 2.691406 -4.207031 L 2.691406 -1.21875 C 2.691406 -0.800781 2.730469 -0.535156 2.808594 -0.421875 C 2.886719 -0.3125 3.03125 -0.242188 3.242188 -0.214844 L 3.242188 0 L 0.417969 0 L 0.417969 -0.214844 C 0.652344 -0.238281 0.820312 -0.3125 0.917969 -0.441406 C 0.988281 -0.527344 1.019531 -0.789062 1.019531 -1.21875 L 1.019531 -4.367188 C 1.019531 -4.789062 0.980469 -5.054688 0.902344 -5.15625 C 0.828125 -5.261719 0.664062 -5.328125 0.417969 -5.359375 L 0.417969 -5.582031 Z "/>
</g>
<g id="glyph-0-7">
<path d="M 4.964844 -1.4375 L 5.152344 -1.296875 C 4.886719 -0.800781 4.5625 -0.433594 4.167969 -0.195312 C 3.777344 0.046875 3.359375 0.167969 2.917969 0.167969 C 2.175781 0.167969 1.578125 -0.113281 1.132812 -0.675781 C 0.6875 -1.234375 0.464844 -1.910156 0.464844 -2.699219 C 0.464844 -3.457031 0.667969 -4.125 1.074219 -4.703125 C 1.5625 -5.398438 2.238281 -5.746094 3.097656 -5.746094 C 3.675781 -5.746094 4.132812 -5.601562 4.472656 -5.3125 C 4.8125 -5.019531 4.984375 -4.695312 4.984375 -4.339844 C 4.984375 -4.113281 4.914062 -3.929688 4.777344 -3.796875 C 4.640625 -3.660156 4.460938 -3.59375 4.238281 -3.59375 C 4.003906 -3.59375 3.808594 -3.671875 3.65625 -3.824219 C 3.503906 -3.980469 3.40625 -4.257812 3.371094 -4.65625 C 3.347656 -4.90625 3.289062 -5.082031 3.199219 -5.179688 C 3.105469 -5.28125 3 -5.328125 2.875 -5.328125 C 2.6875 -5.328125 2.523438 -5.226562 2.386719 -5.023438 C 2.179688 -4.71875 2.078125 -4.25 2.078125 -3.617188 C 2.078125 -3.089844 2.160156 -2.589844 2.328125 -2.109375 C 2.496094 -1.628906 2.722656 -1.273438 3.015625 -1.039062 C 3.234375 -0.867188 3.492188 -0.78125 3.789062 -0.78125 C 3.984375 -0.78125 4.167969 -0.828125 4.34375 -0.917969 C 4.519531 -1.011719 4.726562 -1.183594 4.964844 -1.4375 Z "/>
</g>
<g id="glyph-0-8">
<path d="M 2.691406 -8.09375 L 2.691406 -4.863281 C 2.996094 -5.1875 3.277344 -5.414062 3.53125 -5.546875 C 3.789062 -5.679688 4.050781 -5.746094 4.328125 -5.746094 C 4.675781 -5.746094 4.976562 -5.648438 5.226562 -5.449219 C 5.472656 -5.25 5.640625 -5.015625 5.71875 -4.746094 C 5.800781 -4.480469 5.84375 -4.027344 5.84375 -3.390625 L 5.84375 -1.210938 C 5.84375 -0.785156 5.882812 -0.519531 5.960938 -0.414062 C 6.042969 -0.308594 6.203125 -0.242188 6.445312 -0.214844 L 6.445312 0 L 3.617188 0 L 3.617188 -0.214844 C 3.816406 -0.242188 3.964844 -0.324219 4.0625 -0.453125 C 4.136719 -0.558594 4.171875 -0.808594 4.171875 -1.210938 L 4.171875 -3.699219 C 4.171875 -4.160156 4.152344 -4.453125 4.117188 -4.570312 C 4.082031 -4.6875 4.023438 -4.777344 3.9375 -4.84375 C 3.851562 -4.910156 3.753906 -4.941406 3.648438 -4.941406 C 3.488281 -4.941406 3.332031 -4.886719 3.179688 -4.777344 C 3.03125 -4.667969 2.867188 -4.476562 2.691406 -4.203125 L 2.691406 -1.210938 C 2.691406 -0.8125 2.722656 -0.566406 2.78125 -0.464844 C 2.855469 -0.332031 3.011719 -0.246094 3.246094 -0.214844 L 3.246094 0 L 0.417969 0 L 0.417969 -0.214844 C 0.652344 -0.238281 0.820312 -0.3125 0.917969 -0.441406 C 0.988281 -0.527344 1.019531 -0.785156 1.019531 -1.210938 L 1.019531 -6.882812 C 1.019531 -7.304688 0.980469 -7.566406 0.902344 -7.667969 C 0.828125 -7.773438 0.664062 -7.839844 0.417969 -7.871094 L 0.417969 -8.09375 Z "/>
</g>
<g id="glyph-0-9">
<path d="M 6.535156 -4.207031 C 6.582031 -4.230469 6.625 -4.28125 6.660156 -4.355469 C 6.675781 -4.398438 6.675781 -4.429688 6.660156 -4.457031 C 6.644531 -4.488281 6.566406 -4.550781 6.421875 -4.636719 C 6.363281 -4.675781 6.3125 -4.734375 6.273438 -4.804688 C 6.175781 -4.96875 6.148438 -5.125 6.1875 -5.277344 C 6.234375 -5.433594 6.339844 -5.558594 6.503906 -5.652344 C 6.671875 -5.742188 6.847656 -5.761719 7.035156 -5.707031 C 7.402344 -5.59375 7.585938 -5.335938 7.585938 -4.9375 C 7.585938 -4.828125 7.566406 -4.714844 7.527344 -4.59375 C 7.4375 -4.328125 7.238281 -4.136719 6.921875 -4.015625 C 6.628906 -3.902344 6.253906 -3.84375 5.800781 -3.847656 L 5.800781 -1.210938 C 5.800781 -0.800781 5.839844 -0.535156 5.921875 -0.410156 C 5.988281 -0.308594 6.148438 -0.242188 6.402344 -0.214844 L 6.402344 0 L 4.128906 0 L 4.128906 -0.746094 C 3.621094 -0.136719 3.054688 0.167969 2.433594 0.167969 C 2.128906 0.167969 1.851562 0.0703125 1.597656 -0.125 C 1.355469 -0.308594 1.191406 -0.53125 1.105469 -0.792969 C 1.023438 -1.054688 0.980469 -1.511719 0.980469 -2.15625 L 0.980469 -4.367188 C 0.980469 -4.777344 0.9375 -5.042969 0.859375 -5.15625 C 0.792969 -5.261719 0.628906 -5.328125 0.375 -5.359375 L 0.375 -5.582031 L 2.648438 -5.582031 L 2.648438 -1.765625 C 2.648438 -1.195312 2.730469 -0.847656 2.886719 -0.734375 C 2.96875 -0.675781 3.0625 -0.644531 3.167969 -0.644531 C 3.460938 -0.644531 3.78125 -0.890625 4.128906 -1.382812 L 4.128906 -4.367188 C 4.128906 -4.777344 4.089844 -5.042969 4.011719 -5.15625 C 3.941406 -5.261719 3.78125 -5.328125 3.527344 -5.359375 L 3.527344 -5.582031 L 5.800781 -5.582031 L 5.800781 -4.070312 C 6.125 -4.085938 6.367188 -4.132812 6.535156 -4.207031 M 4.988281 -8.175781 L 5.304688 -8.175781 C 5.308594 -8.097656 5.3125 -8.027344 5.3125 -7.972656 C 5.3125 -7.535156 5.1875 -7.183594 4.941406 -6.917969 C 4.695312 -6.652344 4.398438 -6.515625 4.046875 -6.515625 C 3.789062 -6.515625 3.460938 -6.609375 3.070312 -6.796875 C 2.679688 -6.984375 2.417969 -7.078125 2.285156 -7.078125 C 2.167969 -7.078125 2.066406 -7.039062 1.988281 -6.957031 C 1.90625 -6.878906 1.851562 -6.734375 1.820312 -6.527344 L 1.472656 -6.527344 C 1.457031 -7.046875 1.578125 -7.453125 1.828125 -7.746094 C 2.082031 -8.039062 2.394531 -8.1875 2.761719 -8.1875 C 2.882812 -8.1875 2.980469 -8.175781 3.0625 -8.152344 C 3.171875 -8.121094 3.363281 -8.039062 3.632812 -7.914062 C 4.042969 -7.726562 4.335938 -7.632812 4.511719 -7.632812 C 4.597656 -7.632812 4.683594 -7.667969 4.761719 -7.742188 C 4.84375 -7.8125 4.917969 -7.957031 4.988281 -8.175781 Z "/>
</g>
<g id="glyph-0-10">
<path d="M 5.085938 -2.304688 L 2.226562 -2.304688 L 1.886719 -1.515625 C 1.773438 -1.253906 1.71875 -1.035156 1.71875 -0.867188 C 1.71875 -0.636719 1.808594 -0.472656 1.992188 -0.363281 C 2.101562 -0.300781 2.367188 -0.253906 2.785156 -0.222656 L 2.785156 0 L 0.09375 0 L 0.09375 -0.222656 C 0.386719 -0.265625 0.625 -0.386719 0.8125 -0.582031 C 1 -0.777344 1.230469 -1.1875 1.503906 -1.800781 L 4.398438 -8.261719 L 4.511719 -8.261719 L 7.429688 -1.625 C 7.707031 -0.996094 7.9375 -0.597656 8.117188 -0.4375 C 8.25 -0.3125 8.441406 -0.242188 8.691406 -0.222656 L 8.691406 0 L 4.773438 0 L 4.773438 -0.222656 L 4.9375 -0.222656 C 5.25 -0.222656 5.472656 -0.265625 5.597656 -0.351562 C 5.6875 -0.414062 5.730469 -0.507812 5.730469 -0.625 C 5.730469 -0.699219 5.71875 -0.773438 5.695312 -0.847656 C 5.6875 -0.882812 5.625 -1.03125 5.515625 -1.296875 L 5.085938 -2.304688 M 4.882812 -2.746094 L 3.675781 -5.53125 L 2.433594 -2.746094 Z "/>
</g>
<g id="glyph-0-11">
<path d="M 3.925781 -8.277344 L 3.925781 -8.003906 C 3.511719 -7.734375 3.207031 -7.46875 3.015625 -7.210938 C 2.742188 -6.851562 2.53125 -6.390625 2.382812 -5.832031 C 2.191406 -5.132812 2.09375 -4.160156 2.09375 -2.914062 C 2.09375 -1.734375 2.179688 -0.820312 2.355469 -0.167969 C 2.527344 0.484375 2.761719 1.011719 3.0625 1.414062 C 3.269531 1.691406 3.558594 1.9375 3.925781 2.148438 L 3.925781 2.445312 C 2.96875 2.125 2.15625 1.46875 1.488281 0.472656 C 0.824219 -0.519531 0.488281 -1.660156 0.488281 -2.949219 C 0.488281 -4.222656 0.820312 -5.347656 1.484375 -6.328125 C 2.152344 -7.308594 2.964844 -7.960938 3.925781 -8.277344 Z "/>
</g>
<g id="glyph-0-12">
<path d="M 5.0625 0 L 0.296875 0 L 0.296875 -0.132812 C 1.757812 -1.871094 2.644531 -3.039062 2.957031 -3.640625 C 3.269531 -4.242188 3.425781 -4.828125 3.425781 -5.402344 C 3.425781 -5.820312 3.296875 -6.167969 3.039062 -6.441406 C 2.777344 -6.71875 2.460938 -6.855469 2.089844 -6.855469 C 1.476562 -6.855469 1 -6.550781 0.664062 -5.9375 L 0.441406 -6.015625 C 0.65625 -6.78125 0.984375 -7.34375 1.421875 -7.710938 C 1.859375 -8.078125 2.363281 -8.261719 2.9375 -8.261719 C 3.347656 -8.261719 3.71875 -8.164062 4.058594 -7.972656 C 4.398438 -7.78125 4.660156 -7.519531 4.851562 -7.1875 C 5.042969 -6.855469 5.136719 -6.546875 5.136719 -6.253906 C 5.136719 -5.726562 4.992188 -5.1875 4.695312 -4.644531 C 4.296875 -3.90625 3.417969 -2.878906 2.066406 -1.5625 L 3.8125 -1.5625 C 4.242188 -1.5625 4.523438 -1.582031 4.652344 -1.617188 C 4.78125 -1.652344 4.886719 -1.714844 4.972656 -1.800781 C 5.054688 -1.886719 5.164062 -2.066406 5.300781 -2.339844 L 5.515625 -2.339844 Z "/>
</g>
<g id="glyph-0-13">
<path d="M 1.472656 -6.636719 L 3.503906 -4.605469 L 5.53125 -6.628906 L 6.082031 -6.082031 L 4.058594 -4.050781 L 6.085938 -2.023438 L 5.53125 -1.46875 L 3.503906 -3.496094 L 1.484375 -1.484375 L 0.9375 -2.035156 L 2.949219 -4.046875 L 0.917969 -6.082031 Z "/>
</g>
<g id="glyph-0-14">
<path d="M 1.808594 -4.058594 L 1.808594 -4.265625 C 2.261719 -4.398438 2.578125 -4.519531 2.75 -4.632812 C 2.925781 -4.746094 3.078125 -4.921875 3.203125 -5.152344 C 3.332031 -5.386719 3.394531 -5.621094 3.394531 -5.859375 C 3.394531 -6.191406 3.277344 -6.472656 3.035156 -6.710938 C 2.792969 -6.949219 2.496094 -7.066406 2.136719 -7.066406 C 1.578125 -7.066406 1.105469 -6.773438 0.714844 -6.183594 L 0.496094 -6.261719 C 0.78125 -6.925781 1.148438 -7.425781 1.597656 -7.757812 C 2.042969 -8.09375 2.542969 -8.261719 3.089844 -8.261719 C 3.652344 -8.261719 4.113281 -8.089844 4.480469 -7.746094 C 4.84375 -7.40625 5.023438 -7.003906 5.023438 -6.546875 C 5.023438 -6.25 4.941406 -5.960938 4.773438 -5.683594 C 4.601562 -5.40625 4.335938 -5.164062 3.976562 -4.953125 C 4.441406 -4.726562 4.796875 -4.445312 5.039062 -4.113281 C 5.285156 -3.78125 5.40625 -3.367188 5.40625 -2.863281 C 5.40625 -2.019531 5.101562 -1.304688 4.492188 -0.714844 C 3.878906 -0.121094 3.0625 0.171875 2.035156 0.171875 C 1.351562 0.171875 0.851562 0.0585938 0.539062 -0.167969 C 0.308594 -0.328125 0.195312 -0.53125 0.195312 -0.78125 C 0.195312 -0.964844 0.261719 -1.121094 0.394531 -1.25 C 0.523438 -1.378906 0.675781 -1.445312 0.847656 -1.445312 C 0.980469 -1.445312 1.101562 -1.417969 1.21875 -1.359375 C 1.28125 -1.328125 1.507812 -1.15625 1.894531 -0.839844 C 2.28125 -0.523438 2.644531 -0.363281 2.984375 -0.363281 C 3.277344 -0.363281 3.53125 -0.480469 3.742188 -0.714844 C 3.953125 -0.945312 4.058594 -1.242188 4.058594 -1.597656 C 4.058594 -2.144531 3.867188 -2.648438 3.484375 -3.105469 C 3.101562 -3.566406 2.542969 -3.882812 1.808594 -4.058594 Z "/>
</g>
<g id="glyph-0-15">
<path d="M 0.148438 2.445312 L 0.148438 2.171875 C 0.5625 1.898438 0.867188 1.632812 1.0625 1.371094 C 1.328125 1.015625 1.539062 0.558594 1.695312 0 C 1.886719 -0.699219 1.980469 -1.675781 1.980469 -2.925781 C 1.980469 -4.101562 1.894531 -5.015625 1.722656 -5.667969 C 1.546875 -6.316406 1.3125 -6.84375 1.015625 -7.246094 C 0.808594 -7.523438 0.519531 -7.769531 0.148438 -7.980469 L 0.148438 -8.277344 C 1.109375 -7.957031 1.921875 -7.296875 2.585938 -6.304688 C 3.253906 -5.3125 3.585938 -4.171875 3.585938 -2.882812 C 3.585938 -1.613281 3.253906 -0.488281 2.585938 0.492188 C 1.921875 1.472656 1.109375 2.125 0.148438 2.445312 Z "/>
</g>
</g>
</defs>
<g fill="rgb(96.862745%, 85.098039%, 43.529412%)" fill-opacity="1">
<use xlink:href="#glyph-0-0" x="30" y="30.891602"/>
<use xlink:href="#glyph-0-1" x="42" y="30.891602"/>
<use xlink:href="#glyph-0-2" x="48" y="30.891602"/>
<use xlink:href="#glyph-0-3" x="51" y="30.891602"/>
<use xlink:href="#glyph-0-4" x="55" y="30.891602"/>
<use xlink:href="#glyph-0-5" x="60" y="30.891602"/>
<use xlink:href="#glyph-0-6" x="66" y="30.891602"/>
<use xlink:href="#glyph-0-2" x="73" y="30.891602"/>
<use xlink:href="#glyph-0-7" x="76" y="30.891602"/>
<use xlink:href="#glyph-0-8" x="81" y="30.891602"/>
<use xlink:href="#glyph-0-9" x="88" y="30.891602"/>
<use xlink:href="#glyph-0-2" x="95" y="30.891602"/>
<use xlink:href="#glyph-0-6" x="98" y="30.891602"/>
<use xlink:href="#glyph-0-8" x="105" y="30.891602"/>
<use xlink:href="#glyph-0-5" x="112" y="30.891602"/>
<use xlink:href="#glyph-0-3" x="118" y="30.891602"/>
<use xlink:href="#glyph-0-2" x="122" y="30.891602"/>
<use xlink:href="#glyph-0-10" x="124" y="30.891602"/>
<use xlink:href="#glyph-0-2" x="132" y="30.891602"/>
<use xlink:href="#glyph-0-11" x="135" y="30.891602"/>
<use xlink:href="#glyph-0-12" x="139" y="30.891602"/>
<use xlink:href="#glyph-0-13" x="145" y="30.891602"/>
<use xlink:href="#glyph-0-14" x="152" y="30.891602"/>
<use xlink:href="#glyph-0-15" x="158" y="30.891602"/>
</g>
</svg>
