<?xml version="1.0" encoding="UTF-8"?>
<svg xmlns="http://www.w3.org/2000/svg" xmlns:xlink="http://www.w3.org/1999/xlink" width="854" height="480" viewBox="0 0 854 480">
<defs>
<g>
<g id="glyph-0-0">
<path d="M 3.671875 -4.441406 L 2.140625 0 L 1.503906 0 L -0.0234375 -4.441406 L 0.609375 -4.441406 L 1.839844 -0.753906 L 3.066406 -4.441406 Z "/>
</g>
<g id="glyph-0-1">
<path d="M 4.050781 -2.039062 L 3.457031 -2.039062 L 2.21875 -3.90625 L 0.984375 -2.035156 L 0.398438 -2.035156 L 2.035156 -4.441406 L 2.410156 -4.441406 Z "/>
</g>
<g id="glyph-0-2">
<path d="M 1.488281 0 L 1.488281 -3.917969 L -0.00390625 -3.917969 L -0.00390625 -4.441406 L 3.570312 -4.441406 L 3.570312 -3.917969 L 2.078125 -3.917969 L 2.078125 0 Z "/>
</g>
<g id="glyph-0-3">
</g>
<g id="glyph-0-4">
<path d="M 3.871094 -2.332031 L 0.574219 -2.332031 L 0.574219 -2.8125 L 3.871094 -2.8125 L 3.871094 -2.332031 M 3.871094 -1.082031 L 0.574219 -1.082031 L 0.574219 -1.558594 L 3.871094 -1.558594 Z "/>
</g>
<g id="glyph-0-5">
<path d="M 2.003906 0 L 0.277344 0 L 0.277344 -0.453125 L 0.84375 -0.453125 L 0.84375 -3.988281 L 0.277344 -3.988281 L 0.277344 -4.441406 L 2.003906 -4.441406 L 2.003906 -3.988281 L 1.433594 -3.988281 L 1.433594 -0.453125 L 2.003906 -0.453125 Z "/>
</g>
<g id="glyph-0-6">
<path d="M 3.382812 0.894531 L -0.046875 0.894531 L -0.046875 0.507812 L 3.382812 0.507812 Z "/>
</g>
<g id="glyph-0-7">
<path d="M 3.027344 0 L 2.464844 0 L 2.464844 -1.898438 C 2.464844 -2.050781 2.457031 -2.195312 2.441406 -2.324219 C 2.425781 -2.457031 2.398438 -2.5625 2.355469 -2.644531 C 2.3125 -2.726562 2.246094 -2.789062 2.167969 -2.828125 C 2.085938 -2.871094 1.972656 -2.890625 1.832031 -2.890625 C 1.691406 -2.890625 1.550781 -2.855469 1.402344 -2.78125 C 1.253906 -2.703125 1.109375 -2.609375 0.964844 -2.488281 L 0.964844 0 L 0.40625 0 L 0.40625 -3.332031 L 0.964844 -3.332031 L 0.964844 -2.960938 C 1.132812 -3.113281 1.300781 -3.226562 1.460938 -3.304688 C 1.625 -3.386719 1.796875 -3.425781 1.976562 -3.425781 C 2.304688 -3.425781 2.5625 -3.316406 2.746094 -3.101562 C 2.933594 -2.886719 3.027344 -2.574219 3.027344 -2.164062 Z "/>
</g>
</g>
</defs>
<g fill="rgb(100%, 100%, 100%)" fill-opacity="1">
<use xlink:href="#glyph-0-0" x="30" y="26.113281"/>
<use xlink:href="#glyph-0-1" x="34" y="26.113281"/>
<use xlink:href="#glyph-0-2" x="38" y="26.113281"/>
<use xlink:href="#glyph-0-3" x="42" y="26.113281"/>
<use xlink:href="#glyph-0-0" x="44" y="26.113281"/>
<use xlink:href="#glyph-0-3" x="48" y="26.113281"/>
<use xlink:href="#glyph-0-4" x="50" y="26.113281"/>
<use xlink:href="#glyph-0-3" x="54" y="26.113281"/>
<use xlink:href="#glyph-0-5" x="56" y="26.113281"/>
<use xlink:href="#glyph-0-6" x="58" y="26.113281"/>
<use xlink:href="#glyph-0-7" x="61" y="26.113281"/>
</g>
</svg>
