<?xml version="1.0" encoding="UTF-8"?>
<svg xmlns="http://www.w3.org/2000/svg" xmlns:xlink="http://www.w3.org/1999/xlink" width="854" height="480" viewBox="0 0 854 480">
<defs>
<g>
<g id="glyph-0-0">
<path d="M 2.972656 0 L 2.410156 0 L 2.410156 -0.339844 C 2.324219 -0.265625 2.246094 -0.207031 2.183594 -0.15625 C 2.121094 -0.109375 2.046875 -0.0664062 1.960938 -0.0273438 C 1.878906 0.0117188 1.796875 0.0390625 1.710938 0.0625 C 1.628906 0.0820312 1.527344 0.09375 1.414062 0.09375 C 1.234375 0.09375 1.066406 0.0546875 0.910156 -0.0195312 C 0.757812 -0.0976562 0.625 -0.207031 0.519531 -0.351562 C 0.410156 -0.5 0.324219 -0.679688 0.265625 -0.898438 C 0.207031 -1.113281 0.175781 -1.359375 0.175781 -1.640625 C 0.175781 -1.933594 0.214844 -2.1875 0.289062 -2.402344 C 0.363281 -2.613281 0.46875 -2.800781 0.601562 -2.960938 C 0.722656 -3.105469 0.871094 -3.21875 1.042969 -3.300781 C 1.214844 -3.382812 1.394531 -3.425781 1.585938 -3.425781 C 1.75 -3.425781 1.898438 -3.40625 2.019531 -3.371094 C 2.144531 -3.332031 2.273438 -3.277344 2.410156 -3.199219 L 2.410156 -3.785156 L 1.511719 -3.785156 L 1.511719 -4.183594 L 2.410156 -4.183594 L 2.410156 -4.644531 L 2.972656 -4.644531 L 2.972656 -4.183594 L 3.46875 -4.183594 L 3.46875 -3.785156 L 2.972656 -3.785156 L 2.972656 0 M 2.410156 -0.8125 L 2.410156 -2.734375 C 2.273438 -2.800781 2.148438 -2.847656 2.035156 -2.875 C 1.925781 -2.898438 1.804688 -2.914062 1.675781 -2.914062 C 1.386719 -2.914062 1.164062 -2.804688 1 -2.589844 C 0.835938 -2.371094 0.753906 -2.0625 0.753906 -1.652344 C 0.753906 -1.261719 0.816406 -0.960938 0.941406 -0.753906 C 1.066406 -0.546875 1.269531 -0.441406 1.546875 -0.441406 C 1.691406 -0.441406 1.839844 -0.476562 1.988281 -0.542969 C 2.140625 -0.609375 2.28125 -0.699219 2.410156 -0.8125 Z "/>
</g>
<g id="glyph-0-1">
<path d="M 3.148438 -1.664062 C 3.148438 -1.105469 3.011719 -0.671875 2.742188 -0.367188 C 2.472656 -0.0585938 2.113281 0.09375 1.660156 0.09375 C 1.199219 0.09375 0.832031 -0.0664062 0.570312 -0.378906 C 0.304688 -0.695312 0.171875 -1.125 0.171875 -1.664062 C 0.171875 -2.222656 0.308594 -2.65625 0.582031 -2.960938 C 0.855469 -3.269531 1.214844 -3.425781 1.660156 -3.425781 C 2.113281 -3.425781 2.472656 -3.273438 2.742188 -2.964844 C 3.011719 -2.65625 3.148438 -2.222656 3.148438 -1.664062 M 2.570312 -1.664062 C 2.570312 -2.097656 2.492188 -2.417969 2.332031 -2.628906 C 2.175781 -2.835938 1.953125 -2.941406 1.660156 -2.941406 C 1.371094 -2.941406 1.144531 -2.835938 0.984375 -2.628906 C 0.828125 -2.417969 0.75 -2.097656 0.75 -1.664062 C 0.75 -1.246094 0.828125 -0.929688 0.984375 -0.714844 C 1.144531 -0.5 1.371094 -0.390625 1.660156 -0.390625 C 1.949219 -0.390625 2.171875 -0.496094 2.332031 -0.707031 C 2.488281 -0.921875 2.570312 -1.238281 2.570312 -1.664062 M 2.683594 -3.871094 L 2.210938 -3.871094 L 1.660156 -4.632812 L 1.109375 -3.871094 L 0.648438 -3.871094 L 1.328125 -5 L 2.003906 -5 L 2.683594 -3.871094 M 3.601562 -5 L 2.949219 -4.207031 L 2.566406 -4.207031 L 2.9375 -5 Z "/>
</g>
<g id="glyph-0-2">
<path d="M 0.980469 0 L 0.417969 0 L 0.417969 -3.332031 L 0.980469 -3.332031 L 0.980469 0 M 1.015625 -3.890625 L 0.378906 -3.890625 L 0.378906 -4.472656 L 1.015625 -4.472656 Z "/>
</g>
<g id="glyph-0-3">
</g>
<g id="glyph-0-4">
<path d="M 2.996094 0 L 2.304688 0 L 1.496094 -1.257812 L 0.664062 0 L 0.03125 0 L 1.1875 -1.652344 L 0.0429688 -3.332031 L 0.730469 -3.332031 L 1.535156 -2.085938 L 2.355469 -3.332031 L 2.996094 -3.332031 L 1.84375 -1.691406 Z "/>
</g>
<g id="glyph-0-5">
<path d="M 3 0 L 2.441406 0 L 2.441406 -0.371094 C 2.269531 -0.21875 2.105469 -0.105469 1.949219 -0.0234375 C 1.792969 0.0546875 1.621094 0.09375 1.429688 0.09375 C 1.285156 0.09375 1.148438 0.0703125 1.019531 0.0195312 C 0.890625 -0.0273438 0.777344 -0.101562 0.683594 -0.207031 C 0.585938 -0.308594 0.515625 -0.441406 0.460938 -0.597656 C 0.410156 -0.753906 0.382812 -0.945312 0.382812 -1.167969 L 0.382812 -3.332031 L 0.941406 -3.332031 L 0.941406 -1.433594 C 0.941406 -1.257812 0.949219 -1.113281 0.960938 -0.996094 C 0.976562 -0.878906 1.003906 -0.777344 1.050781 -0.6875 C 1.097656 -0.605469 1.15625 -0.542969 1.238281 -0.5 C 1.316406 -0.460938 1.429688 -0.441406 1.574219 -0.441406 C 1.710938 -0.441406 1.859375 -0.480469 2.015625 -0.558594 C 2.167969 -0.636719 2.3125 -0.730469 2.441406 -0.84375 L 2.441406 -3.332031 L 3.0625 -3.332031 C 3.242188 -3.332031 3.367188 -3.363281 3.441406 -3.429688 C 3.515625 -3.496094 3.550781 -3.597656 3.550781 -3.738281 C 3.550781 -3.808594 3.539062 -3.890625 3.519531 -3.980469 C 3.496094 -4.074219 3.472656 -4.140625 3.449219 -4.1875 L 3.449219 -4.214844 L 3.925781 -4.214844 C 3.953125 -4.121094 3.972656 -4.039062 3.980469 -3.96875 C 3.992188 -3.898438 4 -3.8125 4 -3.714844 C 4 -3.453125 3.914062 -3.257812 3.742188 -3.125 C 3.570312 -2.996094 3.324219 -2.929688 3.007812 -2.929688 L 3 -2.929688 L 3 0 M 2.589844 -5 L 1.773438 -3.886719 L 1.332031 -3.886719 L 1.863281 -5 Z "/>
</g>
<g id="glyph-0-6">
<path d="M 3.027344 0 L 2.464844 0 L 2.464844 -1.898438 C 2.464844 -2.050781 2.457031 -2.195312 2.441406 -2.324219 C 2.425781 -2.457031 2.398438 -2.5625 2.355469 -2.644531 C 2.3125 -2.726562 2.246094 -2.789062 2.167969 -2.828125 C 2.085938 -2.871094 1.972656 -2.890625 1.832031 -2.890625 C 1.691406 -2.890625 1.550781 -2.855469 1.402344 -2.78125 C 1.253906 -2.703125 1.109375 -2.609375 0.964844 -2.488281 L 0.964844 0 L 0.40625 0 L 0.40625 -3.332031 L 0.964844 -3.332031 L 0.964844 -2.960938 C 1.132812 -3.113281 1.300781 -3.226562 1.460938 -3.304688 C 1.625 -3.386719 1.796875 -3.425781 1.976562 -3.425781 C 2.304688 -3.425781 2.5625 -3.316406 2.746094 -3.101562 C 2.933594 -2.886719 3.027344 -2.574219 3.027344 -2.164062 Z "/>
</g>
<g id="glyph-0-7">
<path d="M 2.410156 -0.902344 L 2.410156 -2.734375 C 2.273438 -2.800781 2.144531 -2.847656 2.023438 -2.878906 C 1.90625 -2.90625 1.789062 -2.921875 1.671875 -2.921875 C 1.386719 -2.921875 1.164062 -2.816406 1 -2.609375 C 0.835938 -2.398438 0.753906 -2.097656 0.753906 -1.710938 C 0.753906 -1.339844 0.816406 -1.058594 0.941406 -0.867188 C 1.066406 -0.671875 1.265625 -0.574219 1.546875 -0.574219 C 1.691406 -0.574219 1.839844 -0.605469 1.996094 -0.664062 C 2.148438 -0.71875 2.289062 -0.800781 2.410156 -0.902344 M 0.523438 0.535156 C 0.5625 0.550781 0.617188 0.570312 0.691406 0.597656 C 0.765625 0.625 0.847656 0.652344 0.941406 0.675781 C 1.046875 0.699219 1.140625 0.722656 1.230469 0.738281 C 1.316406 0.753906 1.414062 0.761719 1.515625 0.761719 C 1.6875 0.761719 1.835938 0.738281 1.957031 0.691406 C 2.078125 0.644531 2.171875 0.582031 2.238281 0.5 C 2.300781 0.417969 2.347656 0.324219 2.371094 0.21875 C 2.398438 0.109375 2.410156 -0.0117188 2.410156 -0.148438 L 2.410156 -0.441406 C 2.257812 -0.308594 2.113281 -0.214844 1.964844 -0.152344 C 1.820312 -0.0898438 1.640625 -0.0585938 1.421875 -0.0585938 C 1.039062 -0.0585938 0.738281 -0.199219 0.511719 -0.480469 C 0.289062 -0.761719 0.175781 -1.167969 0.175781 -1.699219 C 0.175781 -1.972656 0.214844 -2.21875 0.292969 -2.433594 C 0.371094 -2.648438 0.472656 -2.828125 0.605469 -2.976562 C 0.730469 -3.121094 0.878906 -3.230469 1.050781 -3.308594 C 1.222656 -3.386719 1.398438 -3.425781 1.582031 -3.425781 C 1.753906 -3.425781 1.902344 -3.40625 2.03125 -3.363281 C 2.15625 -3.324219 2.285156 -3.265625 2.410156 -3.191406 L 2.445312 -3.332031 L 2.972656 -3.332031 L 2.972656 -0.378906 C 2.972656 0.1875 2.847656 0.601562 2.601562 0.867188 C 2.355469 1.128906 1.976562 1.261719 1.472656 1.261719 C 1.308594 1.261719 1.140625 1.25 0.972656 1.222656 C 0.800781 1.199219 0.640625 1.164062 0.496094 1.117188 L 0.496094 0.535156 Z "/>
</g>
<g id="glyph-0-8">
<path d="M 1.414062 0.0664062 C 1.109375 0.0664062 0.871094 -0.0195312 0.699219 -0.195312 C 0.527344 -0.371094 0.441406 -0.644531 0.441406 -1.019531 L 0.441406 -2.867188 L 0.0625 -2.867188 L 0.0625 -3.332031 L 0.441406 -3.332031 L 0.441406 -4.289062 L 1.003906 -4.289062 L 1.003906 -3.332031 L 2.035156 -3.332031 L 2.035156 -2.867188 L 1.003906 -2.867188 L 1.003906 -1.28125 C 1.003906 -1.113281 1.003906 -0.984375 1.011719 -0.890625 C 1.015625 -0.800781 1.039062 -0.714844 1.082031 -0.636719 C 1.113281 -0.566406 1.167969 -0.515625 1.246094 -0.480469 C 1.320312 -0.445312 1.421875 -0.425781 1.550781 -0.425781 C 1.644531 -0.425781 1.730469 -0.441406 1.816406 -0.46875 C 1.902344 -0.492188 1.964844 -0.515625 2.003906 -0.535156 L 2.035156 -0.535156 L 2.035156 -0.03125 C 1.929688 0 1.824219 0.0234375 1.714844 0.0390625 C 1.605469 0.0585938 1.503906 0.0664062 1.414062 0.0664062 Z "/>
</g>
<g id="glyph-0-9">
<path d="M 3.027344 0 L 2.464844 0 L 2.464844 -1.898438 C 2.464844 -2.050781 2.457031 -2.195312 2.441406 -2.324219 C 2.425781 -2.457031 2.398438 -2.5625 2.355469 -2.644531 C 2.3125 -2.726562 2.246094 -2.789062 2.167969 -2.828125 C 2.085938 -2.871094 1.972656 -2.890625 1.832031 -2.890625 C 1.691406 -2.890625 1.550781 -2.855469 1.402344 -2.78125 C 1.253906 -2.703125 1.109375 -2.609375 0.964844 -2.488281 L 0.964844 0 L 0.40625 0 L 0.40625 -4.644531 L 0.964844 -4.644531 L 0.964844 -2.960938 C 1.132812 -3.113281 1.300781 -3.226562 1.460938 -3.304688 C 1.625 -3.386719 1.796875 -3.425781 1.976562 -3.425781 C 2.304688 -3.425781 2.5625 -3.316406 2.746094 -3.101562 C 2.933594 -2.886719 3.027344 -2.574219 3.027344 -2.164062 Z "/>
</g>
<g id="glyph-0-10">
<path d="M 3 0 L 2.441406 0 L 2.441406 -0.371094 C 2.269531 -0.21875 2.105469 -0.105469 1.949219 -0.0234375 C 1.792969 0.0546875 1.621094 0.09375 1.429688 0.09375 C 1.285156 0.09375 1.148438 0.0703125 1.019531 0.0195312 C 0.890625 -0.0273438 0.777344 -0.101562 0.683594 -0.207031 C 0.585938 -0.308594 0.515625 -0.441406 0.460938 -0.597656 C 0.410156 -0.753906 0.382812 -0.945312 0.382812 -1.167969 L 0.382812 -3.332031 L 0.941406 -3.332031 L 0.941406 -1.433594 C 0.941406 -1.257812 0.949219 -1.113281 0.960938 -0.996094 C 0.976562 -0.878906 1.003906 -0.777344 1.050781 -0.6875 C 1.097656 -0.605469 1.15625 -0.542969 1.238281 -0.5 C 1.316406 -0.460938 1.429688 -0.441406 1.574219 -0.441406 C 1.710938 -0.441406 1.859375 -0.480469 2.015625 -0.558594 C 2.167969 -0.636719 2.3125 -0.730469 2.441406 -0.84375 L 2.441406 -3.332031 L 3.0625 -3.332031 C 3.242188 -3.332031 3.367188 -3.363281 3.441406 -3.429688 C 3.515625 -3.496094 3.550781 -3.597656 3.550781 -3.738281 C 3.550781 -3.808594 3.539062 -3.890625 3.519531 -3.980469 C 3.496094 -4.074219 3.472656 -4.140625 3.449219 -4.1875 L 3.449219 -4.214844 L 3.925781 -4.214844 C 3.953125 -4.121094 3.972656 -4.039062 3.980469 -3.96875 C 3.992188 -3.898438 4 -3.8125 4 -3.714844 C 4 -3.453125 3.914062 -3.257812 3.742188 -3.125 C 3.570312 -2.996094 3.324219 -2.929688 3.007812 -2.929688 L 3 -2.929688 L 3 0 M 2.007812 1.140625 L 1.371094 1.140625 L 1.371094 0.558594 L 2.007812 0.558594 Z "/>
</g>
<g id="glyph-0-11">
<path d="M 1.730469 0.0742188 C 1.5 0.0742188 1.292969 0.0390625 1.101562 -0.03125 C 0.910156 -0.101562 0.746094 -0.207031 0.609375 -0.351562 C 0.472656 -0.496094 0.363281 -0.675781 0.289062 -0.894531 C 0.214844 -1.113281 0.175781 -1.367188 0.175781 -1.660156 C 0.175781 -1.953125 0.214844 -2.207031 0.292969 -2.417969 C 0.371094 -2.632812 0.476562 -2.8125 0.609375 -2.957031 C 0.738281 -3.101562 0.902344 -3.214844 1.097656 -3.292969 C 1.296875 -3.371094 1.503906 -3.410156 1.730469 -3.410156 C 1.914062 -3.410156 2.089844 -3.382812 2.261719 -3.332031 C 2.429688 -3.28125 2.582031 -3.222656 2.714844 -3.152344 L 2.714844 -2.523438 L 2.683594 -2.523438 C 2.644531 -2.558594 2.589844 -2.597656 2.527344 -2.640625 C 2.464844 -2.683594 2.390625 -2.730469 2.300781 -2.773438 C 2.222656 -2.816406 2.132812 -2.847656 2.027344 -2.878906 C 1.921875 -2.910156 1.820312 -2.925781 1.722656 -2.925781 C 1.429688 -2.925781 1.199219 -2.8125 1.023438 -2.59375 C 0.847656 -2.375 0.757812 -2.0625 0.757812 -1.660156 C 0.757812 -1.269531 0.84375 -0.960938 1.011719 -0.742188 C 1.183594 -0.523438 1.417969 -0.410156 1.722656 -0.410156 C 1.90625 -0.410156 2.078125 -0.449219 2.242188 -0.523438 C 2.410156 -0.601562 2.554688 -0.699219 2.683594 -0.816406 L 2.714844 -0.816406 L 2.714844 -0.1875 C 2.660156 -0.164062 2.589844 -0.128906 2.507812 -0.09375 C 2.421875 -0.0585938 2.347656 -0.03125 2.28125 -0.0117188 C 2.183594 0.015625 2.097656 0.0390625 2.023438 0.0507812 C 1.949219 0.0664062 1.851562 0.0742188 1.730469 0.0742188 Z "/>
</g>
</g>
</defs>
<g fill="rgb(100%, 100%, 100%)" fill-opacity="1">
<use xlink:href="#glyph-0-0" x="30" y="26.113281"/>
<use xlink:href="#glyph-0-1" x="34" y="26.113281"/>
<use xlink:href="#glyph-0-2" x="37" y="26.113281"/>
<use xlink:href="#glyph-0-3" x="38" y="26.113281"/>
<use xlink:href="#glyph-0-4" x="40" y="26.113281"/>
<use xlink:href="#glyph-0-5" x="43" y="26.113281"/>
<use xlink:href="#glyph-0-6" x="47" y="26.113281"/>
<use xlink:href="#glyph-0-7" x="50" y="26.113281"/>
<use xlink:href="#glyph-0-3" x="53" y="26.113281"/>
<use xlink:href="#glyph-0-8" x="55" y="26.113281"/>
<use xlink:href="#glyph-0-9" x="57" y="26.113281"/>
<use xlink:href="#glyph-0-10" x="60" y="26.113281"/>
<use xlink:href="#glyph-0-11" x="64" y="26.113281"/>
</g>
</svg>
