<?xml version="1.0" encoding="UTF-8"?>
<svg xmlns="http://www.w3.org/2000/svg" xmlns:xlink="http://www.w3.org/1999/xlink" width="854" height="480" viewBox="0 0 854 480">
<defs>
<g>
<g id="glyph-0-0">
<path d="M 2.824219 -2.066406 C 3.101562 -2.003906 3.3125 -1.910156 3.453125 -1.777344 C 3.644531 -1.59375 3.742188 -1.371094 3.742188 -1.105469 C 3.742188 -0.90625 3.679688 -0.714844 3.550781 -0.53125 C 3.421875 -0.34375 3.25 -0.210938 3.027344 -0.125 C 2.804688 -0.0429688 2.464844 0 2.011719 0 L 0.101562 0 L 0.101562 -0.109375 L 0.253906 -0.109375 C 0.421875 -0.109375 0.542969 -0.164062 0.617188 -0.273438 C 0.664062 -0.339844 0.6875 -0.488281 0.6875 -0.714844 L 0.6875 -3.328125 C 0.6875 -3.582031 0.65625 -3.738281 0.601562 -3.804688 C 0.523438 -3.890625 0.40625 -3.933594 0.253906 -3.933594 L 0.101562 -3.933594 L 0.101562 -4.046875 L 1.851562 -4.046875 C 2.175781 -4.046875 2.4375 -4.023438 2.632812 -3.972656 C 2.933594 -3.902344 3.160156 -3.777344 3.316406 -3.59375 C 3.476562 -3.410156 3.554688 -3.203125 3.554688 -2.964844 C 3.554688 -2.761719 3.492188 -2.582031 3.367188 -2.421875 C 3.246094 -2.261719 3.0625 -2.140625 2.824219 -2.066406 M 1.257812 -2.226562 C 1.332031 -2.210938 1.417969 -2.203125 1.511719 -2.195312 C 1.605469 -2.1875 1.710938 -2.183594 1.824219 -2.183594 C 2.113281 -2.183594 2.332031 -2.214844 2.476562 -2.277344 C 2.625 -2.339844 2.734375 -2.4375 2.8125 -2.566406 C 2.890625 -2.695312 2.929688 -2.835938 2.929688 -2.988281 C 2.929688 -3.226562 2.832031 -3.429688 2.640625 -3.59375 C 2.449219 -3.761719 2.167969 -3.847656 1.796875 -3.847656 C 1.597656 -3.847656 1.417969 -3.824219 1.257812 -3.78125 L 1.257812 -2.226562 M 1.257812 -0.292969 C 1.488281 -0.238281 1.71875 -0.210938 1.941406 -0.210938 C 2.300781 -0.210938 2.578125 -0.292969 2.765625 -0.453125 C 2.953125 -0.617188 3.050781 -0.816406 3.050781 -1.054688 C 3.050781 -1.214844 3.007812 -1.363281 2.921875 -1.511719 C 2.835938 -1.65625 2.695312 -1.769531 2.503906 -1.851562 C 2.308594 -1.9375 2.070312 -1.976562 1.789062 -1.976562 C 1.664062 -1.976562 1.558594 -1.976562 1.472656 -1.972656 C 1.382812 -1.96875 1.3125 -1.960938 1.257812 -1.953125 Z "/>
</g>
<g id="glyph-0-1">
<path d="M 2.859375 -2.269531 C 2.917969 -2.296875 2.9375 -2.332031 2.914062 -2.367188 C 2.914062 -2.367188 2.894531 -2.382812 2.847656 -2.414062 C 2.804688 -2.445312 2.773438 -2.476562 2.753906 -2.507812 C 2.714844 -2.578125 2.703125 -2.644531 2.722656 -2.707031 C 2.738281 -2.769531 2.78125 -2.820312 2.847656 -2.859375 C 2.917969 -2.898438 2.992188 -2.90625 3.070312 -2.886719 C 3.15625 -2.855469 3.222656 -2.800781 3.261719 -2.710938 C 3.304688 -2.625 3.308594 -2.527344 3.273438 -2.425781 C 3.234375 -2.308594 3.148438 -2.222656 3.023438 -2.171875 C 2.914062 -2.128906 2.769531 -2.105469 2.585938 -2.105469 L 2.585938 -1.078125 C 2.585938 -0.785156 2.59375 -0.589844 2.609375 -0.496094 C 2.621094 -0.429688 2.644531 -0.382812 2.683594 -0.347656 C 2.714844 -0.320312 2.753906 -0.308594 2.796875 -0.308594 C 2.855469 -0.308594 2.925781 -0.324219 3.003906 -0.359375 L 3.046875 -0.253906 L 2.230469 0.0820312 L 2.09375 0.0820312 L 2.09375 -0.496094 C 1.871094 -0.253906 1.691406 -0.09375 1.558594 -0.015625 C 1.445312 0.0507812 1.3125 0.0820312 1.167969 0.0820312 C 0.84375 0.0820312 0.632812 -0.0742188 0.535156 -0.390625 C 0.492188 -0.53125 0.46875 -0.726562 0.46875 -0.980469 L 0.46875 -2.203125 C 0.46875 -2.402344 0.414062 -2.53125 0.304688 -2.585938 C 0.25 -2.613281 0.148438 -2.625 0.0078125 -2.621094 L 0.0078125 -2.734375 L 0.964844 -2.734375 L 0.964844 -0.902344 C 0.964844 -0.492188 1.113281 -0.285156 1.417969 -0.285156 C 1.503906 -0.285156 1.601562 -0.308594 1.707031 -0.363281 C 1.816406 -0.417969 1.945312 -0.519531 2.09375 -0.671875 L 2.09375 -2.21875 C 2.09375 -2.378906 2.066406 -2.484375 2.007812 -2.535156 C 1.949219 -2.589844 1.832031 -2.617188 1.65625 -2.621094 L 1.65625 -2.734375 L 2.585938 -2.734375 L 2.585938 -2.21875 C 2.648438 -2.222656 2.738281 -2.242188 2.859375 -2.269531 Z "/>
</g>
<g id="glyph-0-2">
<path d="M 1.433594 -2.621094 C 1.167969 -2.621094 0.976562 -2.476562 0.859375 -2.195312 C 0.792969 -2.039062 0.761719 -1.835938 0.761719 -1.589844 C 0.761719 -1.183594 0.839844 -0.839844 0.996094 -0.5625 C 1.160156 -0.273438 1.371094 -0.128906 1.625 -0.128906 C 2.066406 -0.128906 2.289062 -0.480469 2.289062 -1.1875 C 2.289062 -1.671875 2.183594 -2.054688 1.976562 -2.332031 C 1.832031 -2.523438 1.652344 -2.621094 1.433594 -2.621094 M 2.8125 -2.269531 C 2.871094 -2.296875 2.890625 -2.332031 2.867188 -2.367188 C 2.828125 -2.386719 2.777344 -2.433594 2.707031 -2.507812 C 2.667969 -2.578125 2.65625 -2.644531 2.671875 -2.707031 C 2.6875 -2.769531 2.730469 -2.820312 2.800781 -2.859375 C 2.871094 -2.898438 2.945312 -2.90625 3.023438 -2.886719 C 3.109375 -2.855469 3.175781 -2.800781 3.214844 -2.710938 C 3.253906 -2.625 3.257812 -2.527344 3.226562 -2.425781 C 3.1875 -2.308594 3.101562 -2.222656 2.976562 -2.171875 C 2.910156 -2.144531 2.808594 -2.125 2.675781 -2.109375 C 2.789062 -1.902344 2.84375 -1.667969 2.84375 -1.417969 C 2.84375 -1.164062 2.785156 -0.917969 2.667969 -0.675781 C 2.542969 -0.417969 2.382812 -0.230469 2.183594 -0.105469 C 1.976562 0.0195312 1.746094 0.0820312 1.496094 0.0820312 C 1.082031 0.0820312 0.757812 -0.0820312 0.511719 -0.410156 C 0.308594 -0.683594 0.207031 -0.996094 0.207031 -1.339844 C 0.207031 -1.59375 0.269531 -1.84375 0.394531 -2.089844 C 0.523438 -2.339844 0.683594 -2.519531 0.886719 -2.636719 C 1.085938 -2.753906 1.300781 -2.8125 1.527344 -2.8125 C 1.941406 -2.8125 2.273438 -2.65625 2.523438 -2.34375 C 2.554688 -2.300781 2.585938 -2.261719 2.609375 -2.21875 C 2.652344 -2.222656 2.71875 -2.242188 2.8125 -2.269531 M 2.3125 -4.148438 L 1.433594 -3.117188 L 1.332031 -3.117188 L 1.644531 -4.148438 Z "/>
</g>
<g id="glyph-0-3">
<path d="M 2.511719 -1.039062 C 2.4375 -0.679688 2.292969 -0.402344 2.078125 -0.207031 C 1.863281 -0.0117188 1.628906 0.0820312 1.367188 0.0820312 C 1.054688 0.0820312 0.785156 -0.046875 0.554688 -0.308594 C 0.324219 -0.566406 0.207031 -0.921875 0.207031 -1.363281 C 0.207031 -1.792969 0.335938 -2.140625 0.59375 -2.410156 C 0.847656 -2.679688 1.15625 -2.8125 1.511719 -2.8125 C 1.78125 -2.8125 2.003906 -2.742188 2.175781 -2.601562 C 2.347656 -2.457031 2.433594 -2.308594 2.433594 -2.15625 C 2.433594 -2.082031 2.410156 -2.019531 2.363281 -1.972656 C 2.3125 -1.925781 2.246094 -1.902344 2.15625 -1.902344 C 2.039062 -1.902344 1.953125 -1.941406 1.890625 -2.015625 C 1.859375 -2.058594 1.835938 -2.136719 1.824219 -2.253906 C 1.8125 -2.375 1.773438 -2.460938 1.703125 -2.523438 C 1.632812 -2.582031 1.539062 -2.613281 1.414062 -2.613281 C 1.214844 -2.613281 1.054688 -2.539062 0.933594 -2.394531 C 0.773438 -2.199219 0.691406 -1.941406 0.691406 -1.621094 C 0.691406 -1.292969 0.773438 -1.007812 0.933594 -0.757812 C 1.09375 -0.507812 1.308594 -0.382812 1.582031 -0.382812 C 1.777344 -0.382812 1.953125 -0.449219 2.105469 -0.582031 C 2.214844 -0.671875 2.324219 -0.839844 2.425781 -1.082031 Z "/>
</g>
<g id="glyph-0-4">
</g>
<g id="glyph-0-5">
<path d="M 2.800781 -0.777344 L 2.519531 0 L 0.132812 0 L 0.132812 -0.109375 C 0.832031 -0.75 1.328125 -1.273438 1.613281 -1.679688 C 1.902344 -2.085938 2.042969 -2.457031 2.042969 -2.792969 C 2.042969 -3.050781 1.964844 -3.261719 1.808594 -3.425781 C 1.652344 -3.589844 1.464844 -3.671875 1.246094 -3.671875 C 1.046875 -3.671875 0.867188 -3.613281 0.707031 -3.5 C 0.550781 -3.382812 0.433594 -3.210938 0.359375 -2.988281 L 0.246094 -2.988281 C 0.296875 -3.355469 0.425781 -3.636719 0.632812 -3.835938 C 0.835938 -4.03125 1.09375 -4.128906 1.402344 -4.128906 C 1.730469 -4.128906 2.003906 -4.023438 2.222656 -3.8125 C 2.445312 -3.601562 2.554688 -3.355469 2.554688 -3.066406 C 2.554688 -2.863281 2.507812 -2.65625 2.410156 -2.453125 C 2.261719 -2.128906 2.023438 -1.789062 1.695312 -1.429688 C 1.199219 -0.886719 0.890625 -0.5625 0.765625 -0.449219 L 1.824219 -0.449219 C 2.039062 -0.449219 2.1875 -0.457031 2.273438 -0.472656 C 2.363281 -0.492188 2.441406 -0.523438 2.507812 -0.570312 C 2.578125 -0.621094 2.640625 -0.6875 2.691406 -0.777344 Z "/>
</g>
<g id="glyph-0-6">
<path d="M 0.863281 -2.816406 C 0.953125 -2.816406 1.03125 -2.785156 1.097656 -2.71875 C 1.160156 -2.65625 1.195312 -2.578125 1.195312 -2.484375 C 1.195312 -2.394531 1.160156 -2.316406 1.097656 -2.25 C 1.03125 -2.1875 0.953125 -2.152344 0.863281 -2.152344 C 0.769531 -2.152344 0.691406 -2.1875 0.628906 -2.25 C 0.5625 -2.316406 0.53125 -2.394531 0.53125 -2.484375 C 0.53125 -2.578125 0.5625 -2.65625 0.628906 -2.71875 C 0.691406 -2.785156 0.769531 -2.816406 0.863281 -2.816406 M 0.855469 -0.582031 C 0.949219 -0.582031 1.027344 -0.550781 1.09375 -0.484375 C 1.15625 -0.417969 1.191406 -0.339844 1.191406 -0.246094 C 1.191406 -0.15625 1.15625 -0.078125 1.09375 -0.0117188 C 1.027344 0.0507812 0.949219 0.0820312 0.855469 0.0820312 C 0.765625 0.0820312 0.6875 0.0507812 0.621094 -0.0117188 C 0.558594 -0.078125 0.523438 -0.15625 0.523438 -0.246094 C 0.523438 -0.339844 0.558594 -0.417969 0.621094 -0.484375 C 0.6875 -0.550781 0.765625 -0.582031 0.855469 -0.582031 Z "/>
</g>
<g id="glyph-0-7">
<path d="M 1 -4.242188 L 1 -1.523438 L 1.695312 -2.15625 C 1.84375 -2.292969 1.925781 -2.378906 1.953125 -2.414062 C 1.96875 -2.4375 1.976562 -2.460938 1.976562 -2.484375 C 1.976562 -2.523438 1.957031 -2.558594 1.925781 -2.589844 C 1.894531 -2.617188 1.839844 -2.632812 1.761719 -2.636719 L 1.761719 -2.734375 L 2.949219 -2.734375 L 2.949219 -2.636719 C 2.789062 -2.632812 2.652344 -2.609375 2.542969 -2.5625 C 2.433594 -2.515625 2.316406 -2.4375 2.1875 -2.316406 L 1.484375 -1.671875 L 2.1875 -0.785156 C 2.382812 -0.539062 2.511719 -0.386719 2.582031 -0.320312 C 2.675781 -0.226562 2.761719 -0.164062 2.832031 -0.136719 C 2.882812 -0.117188 2.96875 -0.105469 3.089844 -0.105469 L 3.089844 0 L 1.761719 0 L 1.761719 -0.105469 C 1.839844 -0.109375 1.890625 -0.121094 1.917969 -0.140625 C 1.945312 -0.164062 1.957031 -0.191406 1.957031 -0.230469 C 1.957031 -0.277344 1.917969 -0.347656 1.839844 -0.449219 L 1 -1.523438 L 1 -0.613281 C 1 -0.4375 1.011719 -0.320312 1.035156 -0.265625 C 1.0625 -0.210938 1.097656 -0.171875 1.144531 -0.144531 C 1.1875 -0.121094 1.289062 -0.109375 1.441406 -0.105469 L 1.441406 0 L 0.0507812 0 L 0.0507812 -0.105469 C 0.191406 -0.105469 0.292969 -0.125 0.363281 -0.15625 C 0.40625 -0.179688 0.4375 -0.214844 0.460938 -0.257812 C 0.488281 -0.324219 0.503906 -0.4375 0.503906 -0.601562 L 0.503906 -3.089844 C 0.503906 -3.40625 0.496094 -3.597656 0.484375 -3.667969 C 0.46875 -3.738281 0.445312 -3.789062 0.414062 -3.816406 C 0.382812 -3.839844 0.339844 -3.855469 0.289062 -3.855469 C 0.246094 -3.855469 0.183594 -3.839844 0.101562 -3.804688 L 0.0507812 -3.910156 L 0.863281 -4.242188 Z "/>
</g>
<g id="glyph-0-8">
<path d="M 0.652344 -1.703125 C 0.648438 -1.296875 0.746094 -0.980469 0.945312 -0.75 C 1.144531 -0.519531 1.378906 -0.402344 1.648438 -0.402344 C 1.824219 -0.402344 1.980469 -0.453125 2.113281 -0.550781 C 2.246094 -0.648438 2.355469 -0.816406 2.445312 -1.054688 L 2.539062 -0.996094 C 2.496094 -0.722656 2.375 -0.476562 2.175781 -0.253906 C 1.972656 -0.0273438 1.722656 0.0820312 1.421875 0.0820312 C 1.09375 0.0820312 0.8125 -0.0429688 0.578125 -0.300781 C 0.34375 -0.554688 0.226562 -0.898438 0.226562 -1.332031 C 0.226562 -1.796875 0.347656 -2.164062 0.585938 -2.425781 C 0.824219 -2.6875 1.125 -2.816406 1.488281 -2.816406 C 1.796875 -2.816406 2.046875 -2.714844 2.242188 -2.515625 C 2.441406 -2.3125 2.539062 -2.042969 2.539062 -1.703125 L 0.652344 -1.703125 M 0.652344 -1.875 L 1.914062 -1.875 C 1.90625 -2.050781 1.882812 -2.175781 1.851562 -2.246094 C 1.804688 -2.359375 1.730469 -2.445312 1.628906 -2.507812 C 1.53125 -2.574219 1.429688 -2.605469 1.320312 -2.605469 C 1.15625 -2.605469 1.007812 -2.539062 0.878906 -2.414062 C 0.75 -2.285156 0.671875 -2.105469 0.652344 -1.875 M 2.074219 -4.148438 L 1.195312 -3.117188 L 1.09375 -3.117188 L 1.40625 -4.148438 Z "/>
</g>
<g id="glyph-0-9">
<path d="M 1.527344 -2.8125 C 1.941406 -2.8125 2.273438 -2.65625 2.523438 -2.34375 C 2.738281 -2.074219 2.84375 -1.765625 2.84375 -1.417969 C 2.84375 -1.171875 2.785156 -0.925781 2.667969 -0.675781 C 2.550781 -0.421875 2.386719 -0.234375 2.183594 -0.105469 C 1.976562 0.0195312 1.746094 0.0820312 1.496094 0.0820312 C 1.082031 0.0820312 0.757812 -0.0820312 0.511719 -0.410156 C 0.308594 -0.683594 0.207031 -0.996094 0.207031 -1.339844 C 0.207031 -1.589844 0.269531 -1.839844 0.390625 -2.085938 C 0.515625 -2.335938 0.679688 -2.519531 0.882812 -2.636719 C 1.085938 -2.753906 1.300781 -2.8125 1.527344 -2.8125 M 1.433594 -2.621094 C 1.328125 -2.621094 1.222656 -2.589844 1.117188 -2.527344 C 1.011719 -2.464844 0.925781 -2.351562 0.859375 -2.195312 C 0.792969 -2.039062 0.761719 -1.835938 0.761719 -1.589844 C 0.761719 -1.191406 0.839844 -0.847656 1 -0.5625 C 1.15625 -0.273438 1.363281 -0.128906 1.625 -0.128906 C 1.816406 -0.128906 1.976562 -0.207031 2.101562 -0.367188 C 2.226562 -0.527344 2.289062 -0.800781 2.289062 -1.1875 C 2.289062 -1.671875 2.183594 -2.054688 1.976562 -2.332031 C 1.835938 -2.523438 1.652344 -2.621094 1.433594 -2.621094 Z "/>
</g>
<g id="glyph-0-10">
<path d="M 1.710938 -4.242188 L 0.246094 0.0820312 L 0.0078125 0.0820312 L 1.472656 -4.242188 Z "/>
</g>
<g id="glyph-0-11">
<path d="M 0.988281 -2.234375 C 1.308594 -2.621094 1.613281 -2.8125 1.902344 -2.8125 C 2.054688 -2.8125 2.179688 -2.777344 2.289062 -2.703125 C 2.394531 -2.628906 2.480469 -2.503906 2.546875 -2.332031 C 2.589844 -2.214844 2.609375 -2.03125 2.609375 -1.785156 L 2.609375 -0.617188 C 2.609375 -0.445312 2.625 -0.328125 2.652344 -0.265625 C 2.675781 -0.214844 2.710938 -0.175781 2.757812 -0.148438 C 2.808594 -0.121094 2.898438 -0.105469 3.027344 -0.105469 L 3.027344 0 L 1.675781 0 L 1.675781 -0.105469 L 1.734375 -0.105469 C 1.859375 -0.105469 1.949219 -0.125 2 -0.164062 C 2.050781 -0.203125 2.085938 -0.261719 2.105469 -0.335938 C 2.113281 -0.367188 2.117188 -0.460938 2.117188 -0.617188 L 2.117188 -1.738281 C 2.117188 -1.984375 2.085938 -2.164062 2.019531 -2.277344 C 1.957031 -2.390625 1.847656 -2.445312 1.695312 -2.445312 C 1.457031 -2.445312 1.222656 -2.316406 0.988281 -2.058594 L 0.988281 -0.617188 C 0.988281 -0.433594 1 -0.316406 1.019531 -0.273438 C 1.046875 -0.21875 1.085938 -0.175781 1.136719 -0.148438 C 1.183594 -0.121094 1.28125 -0.105469 1.433594 -0.105469 L 1.433594 0 L 0.0820312 0 L 0.0820312 -0.105469 L 0.140625 -0.105469 C 0.28125 -0.105469 0.375 -0.144531 0.421875 -0.214844 C 0.472656 -0.285156 0.496094 -0.417969 0.496094 -0.617188 L 0.496094 -1.632812 C 0.496094 -1.960938 0.488281 -2.160156 0.472656 -2.230469 C 0.457031 -2.304688 0.433594 -2.351562 0.402344 -2.378906 C 0.375 -2.402344 0.332031 -2.417969 0.28125 -2.417969 C 0.226562 -2.417969 0.15625 -2.402344 0.0820312 -2.371094 L 0.0351562 -2.480469 L 0.859375 -2.8125 L 0.988281 -2.8125 Z "/>
</g>
</g>
</defs>
<g fill="rgb(100%, 100%, 100%)" fill-opacity="1">
<use xlink:href="#glyph-0-0" x="30" y="25.445312"/>
<use xlink:href="#glyph-0-1" x="34" y="25.445312"/>
<use xlink:href="#glyph-0-2" x="37" y="25.445312"/>
<use xlink:href="#glyph-0-3" x="40" y="25.445312"/>
<use xlink:href="#glyph-0-4" x="43" y="25.445312"/>
<use xlink:href="#glyph-0-5" x="45" y="25.445312"/>
<use xlink:href="#glyph-0-6" x="48" y="25.445312"/>
<use xlink:href="#glyph-0-4" x="50" y="25.445312"/>
<use xlink:href="#glyph-0-7" x="52" y="25.445312"/>
<use xlink:href="#glyph-0-8" x="55" y="25.445312"/>
<use xlink:href="#glyph-0-9" x="58" y="25.445312"/>
<use xlink:href="#glyph-0-10" x="61" y="25.445312"/>
<use xlink:href="#glyph-0-11" x="63" y="25.445312"/>
<use xlink:href="#glyph-0-8" x="66" y="25.445312"/>
<use xlink:href="#glyph-0-11" x="69" y="25.445312"/>
</g>
</svg>
