<?xml version="1.0" encoding="UTF-8"?>
<svg xmlns="http://www.w3.org/2000/svg" xmlns:xlink="http://www.w3.org/1999/xlink" width="854" height="480" viewBox="0 0 854 480">
<defs>
<g>
<g id="glyph-0-0">
<path d="M 3.066406 0 L 0.324219 0 L 0.324219 -0.625 C 0.523438 -0.8125 0.707031 -0.988281 0.882812 -1.160156 C 1.058594 -1.332031 1.230469 -1.511719 1.394531 -1.695312 C 1.734375 -2.066406 1.964844 -2.363281 2.089844 -2.589844 C 2.210938 -2.8125 2.273438 -3.042969 2.273438 -3.28125 C 2.273438 -3.40625 2.253906 -3.515625 2.214844 -3.605469 C 2.175781 -3.699219 2.125 -3.777344 2.054688 -3.839844 C 1.984375 -3.898438 1.90625 -3.945312 1.8125 -3.972656 C 1.722656 -4.003906 1.621094 -4.019531 1.511719 -4.019531 C 1.40625 -4.019531 1.300781 -4.003906 1.191406 -3.980469 C 1.082031 -3.953125 0.980469 -3.917969 0.878906 -3.878906 C 0.796875 -3.84375 0.714844 -3.804688 0.636719 -3.757812 C 0.5625 -3.707031 0.5 -3.667969 0.449219 -3.632812 L 0.417969 -3.632812 L 0.417969 -4.265625 C 0.542969 -4.328125 0.710938 -4.386719 0.933594 -4.445312 C 1.152344 -4.507812 1.359375 -4.535156 1.558594 -4.535156 C 1.972656 -4.535156 2.296875 -4.425781 2.53125 -4.207031 C 2.765625 -3.984375 2.882812 -3.6875 2.882812 -3.3125 C 2.882812 -3.140625 2.863281 -2.980469 2.820312 -2.832031 C 2.78125 -2.683594 2.722656 -2.546875 2.652344 -2.421875 C 2.578125 -2.292969 2.492188 -2.164062 2.386719 -2.039062 C 2.285156 -1.910156 2.175781 -1.785156 2.058594 -1.660156 C 1.871094 -1.460938 1.664062 -1.25 1.433594 -1.03125 C 1.203125 -0.8125 1.019531 -0.636719 0.882812 -0.511719 L 3.066406 -0.511719 Z "/>
</g>
<g id="glyph-0-1">
<path d="M 3.824219 -0.675781 L 3.492188 -0.34375 L 2.222656 -1.625 L 0.953125 -0.34375 L 0.621094 -0.675781 L 1.902344 -1.945312 L 0.621094 -3.214844 L 0.953125 -3.546875 L 2.222656 -2.265625 L 3.492188 -3.546875 L 3.824219 -3.214844 L 2.542969 -1.945312 Z "/>
</g>
</g>
</defs>
<g fill="rgb(34.509804%, 76.862745%, 86.666667%)" fill-opacity="1">
<use xlink:href="#glyph-0-0" x="30" y="26.113281"/>
<use xlink:href="#glyph-0-1" x="33" y="26.113281"/>
<use xlink:href="#glyph-0-0" x="37" y="26.113281"/>
</g>
</svg>
