<?xml version="1.0" encoding="UTF-8"?>
<svg xmlns="http://www.w3.org/2000/svg" xmlns:xlink="http://www.w3.org/1999/xlink" width="854" height="480" viewBox="0 0 854 480">
<defs>
<g>
<g id="glyph-0-0">
<path d="M 5.539062 0 L 3.824219 0 L 2.28125 -2.296875 L 2.003906 -1.910156 L 2.003906 0 L 0.585938 0 L 0.585938 -5.65625 L 2.003906 -5.65625 L 2.003906 -3.144531 L 3.8125 -5.65625 L 5.457031 -5.65625 L 3.441406 -3.03125 Z "/>
</g>
<g id="glyph-0-1">
<path d="M 2.691406 0.113281 C 1.886719 0.113281 1.269531 -0.078125 0.839844 -0.464844 C 0.410156 -0.847656 0.199219 -1.394531 0.199219 -2.109375 C 0.199219 -2.804688 0.398438 -3.359375 0.796875 -3.773438 C 1.199219 -4.191406 1.757812 -4.398438 2.476562 -4.398438 C 3.128906 -4.398438 3.621094 -4.222656 3.949219 -3.871094 C 4.277344 -3.519531 4.441406 -3.015625 4.441406 -2.359375 L 4.441406 -1.878906 L 1.53125 -1.878906 C 1.542969 -1.683594 1.585938 -1.515625 1.65625 -1.382812 C 1.726562 -1.25 1.820312 -1.144531 1.9375 -1.066406 C 2.050781 -0.988281 2.183594 -0.933594 2.335938 -0.898438 C 2.488281 -0.863281 2.652344 -0.847656 2.832031 -0.847656 C 2.988281 -0.847656 3.140625 -0.863281 3.289062 -0.898438 C 3.4375 -0.933594 3.574219 -0.976562 3.699219 -1.03125 C 3.808594 -1.082031 3.910156 -1.132812 4 -1.1875 C 4.09375 -1.246094 4.167969 -1.292969 4.226562 -1.335938 L 4.367188 -1.335938 L 4.367188 -0.238281 C 4.257812 -0.195312 4.160156 -0.15625 4.070312 -0.121094 C 3.980469 -0.0820312 3.855469 -0.046875 3.699219 -0.0078125 C 3.554688 0.03125 3.40625 0.0585938 3.253906 0.0820312 C 3.097656 0.101562 2.914062 0.113281 2.691406 0.113281 M 3.132812 -2.679688 C 3.125 -2.960938 3.058594 -3.175781 2.9375 -3.324219 C 2.816406 -3.46875 2.625 -3.542969 2.375 -3.542969 C 2.113281 -3.542969 1.914062 -3.464844 1.769531 -3.3125 C 1.621094 -3.15625 1.542969 -2.945312 1.527344 -2.679688 L 3.132812 -2.679688 M 3.71875 -6.363281 L 2.578125 -4.871094 L 1.675781 -4.871094 L 2.460938 -6.363281 Z "/>
</g>
<g id="glyph-0-2">
<path d="M 4.601562 -2.128906 C 4.601562 -1.429688 4.410156 -0.875 4.027344 -0.472656 C 3.644531 -0.0703125 3.101562 0.132812 2.398438 0.132812 C 1.703125 0.132812 1.164062 -0.0703125 0.777344 -0.472656 C 0.390625 -0.875 0.199219 -1.429688 0.199219 -2.128906 C 0.199219 -2.839844 0.390625 -3.394531 0.777344 -3.796875 C 1.164062 -4.195312 1.703125 -4.398438 2.398438 -4.398438 C 3.097656 -4.398438 3.640625 -4.195312 4.023438 -3.792969 C 4.410156 -3.386719 4.601562 -2.835938 4.601562 -2.128906 M 3.238281 -2.121094 C 3.238281 -2.375 3.21875 -2.585938 3.175781 -2.753906 C 3.136719 -2.921875 3.078125 -3.058594 3.003906 -3.160156 C 2.925781 -3.265625 2.835938 -3.339844 2.738281 -3.382812 C 2.640625 -3.421875 2.527344 -3.445312 2.398438 -3.445312 C 2.28125 -3.445312 2.171875 -3.425781 2.078125 -3.390625 C 1.980469 -3.351562 1.890625 -3.28125 1.8125 -3.179688 C 1.734375 -3.078125 1.675781 -2.945312 1.628906 -2.773438 C 1.582031 -2.601562 1.5625 -2.382812 1.5625 -2.121094 C 1.5625 -1.863281 1.582031 -1.652344 1.625 -1.492188 C 1.667969 -1.328125 1.722656 -1.203125 1.792969 -1.105469 C 1.863281 -1.007812 1.953125 -0.933594 2.058594 -0.886719 C 2.164062 -0.84375 2.28125 -0.820312 2.410156 -0.820312 C 2.519531 -0.820312 2.625 -0.84375 2.734375 -0.886719 C 2.847656 -0.933594 2.933594 -1.003906 3 -1.09375 C 3.078125 -1.203125 3.136719 -1.332031 3.179688 -1.488281 C 3.21875 -1.640625 3.238281 -1.851562 3.238281 -2.121094 Z "/>
</g>
<g id="glyph-0-3">
</g>
<g id="glyph-0-4">
<path d="M 3.789062 -5.910156 L 1.539062 1.230469 L 0.449219 1.230469 L 2.6875 -5.910156 Z "/>
</g>
<g id="glyph-0-5">
<path d="M 5.429688 0 L 4.0625 0 L 1.882812 -3.941406 L 1.882812 0 L 0.585938 0 L 0.585938 -5.65625 L 2.328125 -5.65625 L 4.132812 -2.414062 L 4.132812 -5.65625 L 5.429688 -5.65625 Z "/>
</g>
<g id="glyph-0-6">
<path d="M 4.503906 0 L 3.167969 0 L 3.167969 -2.113281 C 3.167969 -2.289062 3.160156 -2.457031 3.144531 -2.628906 C 3.132812 -2.800781 3.105469 -2.925781 3.070312 -3.007812 C 3.023438 -3.105469 2.957031 -3.171875 2.871094 -3.214844 C 2.785156 -3.257812 2.667969 -3.277344 2.523438 -3.277344 C 2.417969 -3.277344 2.304688 -3.257812 2.195312 -3.214844 C 2.082031 -3.175781 1.964844 -3.113281 1.839844 -3.023438 L 1.839844 0 L 0.507812 0 L 0.507812 -4.265625 L 1.839844 -4.265625 L 1.839844 -3.792969 C 2.054688 -3.980469 2.269531 -4.121094 2.472656 -4.226562 C 2.679688 -4.332031 2.910156 -4.382812 3.160156 -4.382812 C 3.59375 -4.382812 3.929688 -4.246094 4.160156 -3.96875 C 4.390625 -3.695312 4.503906 -3.296875 4.503906 -2.777344 Z "/>
</g>
</g>
</defs>
<g fill="rgb(51.372549%, 75.686275%, 40.392157%)" fill-opacity="1">
<use xlink:href="#glyph-0-0" x="30" y="27.78125"/>
<use xlink:href="#glyph-0-1" x="35" y="27.78125"/>
<use xlink:href="#glyph-0-2" x="40" y="27.78125"/>
<use xlink:href="#glyph-0-3" x="45" y="27.78125"/>
<use xlink:href="#glyph-0-4" x="47" y="27.78125"/>
<use xlink:href="#glyph-0-3" x="51" y="27.78125"/>
<use xlink:href="#glyph-0-5" x="53" y="27.78125"/>
<use xlink:href="#glyph-0-1" x="59" y="27.78125"/>
<use xlink:href="#glyph-0-6" x="64" y="27.78125"/>
</g>
</svg>
