<?xml version="1.0" encoding="UTF-8"?>
<svg xmlns="http://www.w3.org/2000/svg" xmlns:xlink="http://www.w3.org/1999/xlink" width="600" height="400" viewBox="0 0 600 400">
<defs>
<g>
<g id="glyph-0-0">
<path d="M 1.433594 0 L 1.433594 -3.921875 L 0 -3.921875 L 0 -4.847656 L 4.082031 -4.847656 L 4.082031 -3.921875 L 2.648438 -3.921875 L 2.648438 0 Z "/>
</g>
<g id="glyph-0-1">
<path d="M 1.574219 0 L 0.4375 0 L 0.4375 -3.65625 L 1.574219 -3.65625 L 1.574219 0 M 1.609375 -4.175781 L 0.402344 -4.175781 L 0.402344 -5.066406 L 1.609375 -5.066406 Z "/>
</g>
<g id="glyph-0-2">
<path d="M 2.308594 0.0976562 C 1.617188 0.0976562 1.089844 -0.0664062 0.722656 -0.398438 C 0.351562 -0.726562 0.167969 -1.195312 0.167969 -1.804688 C 0.167969 -2.402344 0.339844 -2.878906 0.683594 -3.234375 C 1.027344 -3.589844 1.507812 -3.769531 2.121094 -3.769531 C 2.683594 -3.769531 3.101562 -3.617188 3.386719 -3.316406 C 3.667969 -3.015625 3.808594 -2.582031 3.808594 -2.023438 L 3.808594 -1.609375 L 1.3125 -1.609375 C 1.324219 -1.441406 1.359375 -1.300781 1.417969 -1.1875 C 1.480469 -1.074219 1.558594 -0.980469 1.660156 -0.914062 C 1.757812 -0.847656 1.871094 -0.800781 2 -0.769531 C 2.132812 -0.742188 2.273438 -0.726562 2.429688 -0.726562 C 2.5625 -0.726562 2.691406 -0.742188 2.820312 -0.769531 C 2.945312 -0.800781 3.0625 -0.835938 3.171875 -0.886719 C 3.265625 -0.925781 3.351562 -0.972656 3.429688 -1.019531 C 3.507812 -1.066406 3.574219 -1.109375 3.621094 -1.144531 L 3.742188 -1.144531 L 3.742188 -0.203125 C 3.648438 -0.167969 3.566406 -0.132812 3.488281 -0.101562 C 3.410156 -0.0703125 3.304688 -0.0390625 3.171875 -0.0078125 C 3.046875 0.0273438 2.917969 0.0507812 2.789062 0.0703125 C 2.65625 0.0898438 2.496094 0.0976562 2.308594 0.0976562 M 2.683594 -2.296875 C 2.679688 -2.539062 2.625 -2.722656 2.519531 -2.847656 C 2.414062 -2.972656 2.25 -3.035156 2.035156 -3.035156 C 1.8125 -3.035156 1.640625 -2.972656 1.515625 -2.839844 C 1.390625 -2.707031 1.320312 -2.527344 1.308594 -2.296875 L 2.683594 -2.296875 M 3.464844 -4.175781 L 2.625 -4.175781 L 2.085938 -4.871094 L 1.550781 -4.175781 L 0.722656 -4.175781 L 1.703125 -5.457031 L 2.488281 -5.457031 L 3.464844 -4.175781 M 4.628906 -5.457031 L 3.953125 -4.589844 L 3.402344 -4.589844 L 3.804688 -5.457031 Z "/>
</g>
<g id="glyph-0-3">
<path d="M 3.859375 0 L 2.714844 0 L 2.714844 -1.8125 C 2.714844 -1.960938 2.707031 -2.109375 2.695312 -2.253906 C 2.683594 -2.402344 2.664062 -2.507812 2.628906 -2.578125 C 2.589844 -2.660156 2.535156 -2.71875 2.460938 -2.753906 C 2.386719 -2.792969 2.289062 -2.808594 2.164062 -2.808594 C 2.070312 -2.808594 1.976562 -2.792969 1.882812 -2.757812 C 1.785156 -2.722656 1.683594 -2.667969 1.574219 -2.589844 L 1.574219 0 L 0.4375 0 L 0.4375 -3.65625 L 1.574219 -3.65625 L 1.574219 -3.25 C 1.761719 -3.410156 1.945312 -3.535156 2.121094 -3.621094 C 2.296875 -3.710938 2.492188 -3.757812 2.707031 -3.757812 C 3.082031 -3.757812 3.367188 -3.640625 3.5625 -3.402344 C 3.761719 -3.167969 3.859375 -2.828125 3.859375 -2.378906 Z "/>
</g>
<g id="glyph-0-4">
<path d="M 2.621094 -1.152344 L 2.621094 -2.808594 C 2.5625 -2.835938 2.496094 -2.855469 2.414062 -2.875 C 2.328125 -2.890625 2.246094 -2.898438 2.164062 -2.898438 C 1.890625 -2.898438 1.6875 -2.8125 1.546875 -2.636719 C 1.410156 -2.457031 1.339844 -2.210938 1.339844 -1.894531 C 1.339844 -1.734375 1.351562 -1.601562 1.371094 -1.492188 C 1.394531 -1.382812 1.429688 -1.285156 1.488281 -1.203125 C 1.542969 -1.117188 1.613281 -1.054688 1.699219 -1.015625 C 1.789062 -0.972656 1.902344 -0.949219 2.039062 -0.949219 C 2.140625 -0.949219 2.238281 -0.96875 2.339844 -1.003906 C 2.4375 -1.039062 2.53125 -1.085938 2.621094 -1.152344 M 3.757812 -0.417969 C 3.757812 -0.0820312 3.710938 0.207031 3.613281 0.441406 C 3.515625 0.679688 3.382812 0.863281 3.210938 0.996094 C 3.042969 1.128906 2.839844 1.226562 2.605469 1.289062 C 2.367188 1.347656 2.105469 1.375 1.816406 1.375 C 1.574219 1.375 1.34375 1.359375 1.125 1.328125 C 0.90625 1.296875 0.71875 1.261719 0.554688 1.21875 L 0.554688 0.304688 L 0.691406 0.304688 C 0.746094 0.328125 0.8125 0.351562 0.890625 0.378906 C 0.96875 0.402344 1.046875 0.425781 1.125 0.449219 C 1.214844 0.472656 1.308594 0.492188 1.394531 0.507812 C 1.484375 0.523438 1.578125 0.53125 1.667969 0.53125 C 1.863281 0.53125 2.023438 0.511719 2.152344 0.46875 C 2.28125 0.429688 2.378906 0.375 2.445312 0.300781 C 2.507812 0.222656 2.554688 0.132812 2.582031 0.03125 C 2.605469 -0.0703125 2.621094 -0.203125 2.621094 -0.359375 L 2.621094 -0.425781 C 2.492188 -0.3125 2.34375 -0.222656 2.175781 -0.15625 C 2.007812 -0.0859375 1.835938 -0.0507812 1.65625 -0.0507812 C 1.183594 -0.0507812 0.820312 -0.207031 0.5625 -0.515625 C 0.304688 -0.824219 0.175781 -1.292969 0.175781 -1.921875 C 0.175781 -2.207031 0.214844 -2.464844 0.292969 -2.691406 C 0.375 -2.917969 0.484375 -3.113281 0.625 -3.273438 C 0.757812 -3.429688 0.921875 -3.546875 1.113281 -3.632812 C 1.304688 -3.714844 1.503906 -3.757812 1.707031 -3.757812 C 1.894531 -3.757812 2.0625 -3.734375 2.210938 -3.683594 C 2.359375 -3.636719 2.492188 -3.574219 2.613281 -3.492188 L 2.65625 -3.65625 L 3.757812 -3.65625 Z "/>
</g>
<g id="glyph-0-5">
</g>
<g id="glyph-0-6">
<path d="M 4.550781 -4.847656 L 2.882812 0 L 1.613281 0 L -0.0507812 -4.847656 L 1.210938 -4.847656 L 2.265625 -1.5625 L 3.320312 -4.847656 Z "/>
</g>
<g id="glyph-0-7">
<path d="M 2.308594 0.0976562 C 1.617188 0.0976562 1.089844 -0.0664062 0.722656 -0.398438 C 0.351562 -0.726562 0.167969 -1.195312 0.167969 -1.804688 C 0.167969 -2.402344 0.339844 -2.878906 0.683594 -3.234375 C 1.027344 -3.589844 1.507812 -3.769531 2.121094 -3.769531 C 2.683594 -3.769531 3.101562 -3.617188 3.386719 -3.316406 C 3.667969 -3.015625 3.808594 -2.582031 3.808594 -2.023438 L 3.808594 -1.609375 L 1.3125 -1.609375 C 1.324219 -1.441406 1.359375 -1.300781 1.417969 -1.1875 C 1.480469 -1.074219 1.558594 -0.980469 1.660156 -0.914062 C 1.757812 -0.847656 1.871094 -0.800781 2 -0.769531 C 2.132812 -0.742188 2.273438 -0.726562 2.429688 -0.726562 C 2.5625 -0.726562 2.691406 -0.742188 2.820312 -0.769531 C 2.945312 -0.800781 3.0625 -0.835938 3.171875 -0.886719 C 3.265625 -0.925781 3.351562 -0.972656 3.429688 -1.019531 C 3.507812 -1.066406 3.574219 -1.109375 3.621094 -1.144531 L 3.742188 -1.144531 L 3.742188 -0.203125 C 3.648438 -0.167969 3.566406 -0.132812 3.488281 -0.101562 C 3.410156 -0.0703125 3.304688 -0.0390625 3.171875 -0.0078125 C 3.046875 0.0273438 2.917969 0.0507812 2.789062 0.0703125 C 2.65625 0.0898438 2.496094 0.0976562 2.308594 0.0976562 M 2.683594 -2.296875 C 2.679688 -2.539062 2.625 -2.722656 2.519531 -2.847656 C 2.414062 -2.972656 2.25 -3.035156 2.035156 -3.035156 C 1.8125 -3.035156 1.640625 -2.972656 1.515625 -2.839844 C 1.390625 -2.707031 1.320312 -2.527344 1.308594 -2.296875 L 2.683594 -2.296875 M 3.464844 -4.175781 L 2.625 -4.175781 L 2.085938 -4.871094 L 1.550781 -4.175781 L 0.722656 -4.175781 L 1.703125 -5.457031 L 2.488281 -5.457031 L 3.464844 -4.175781 M 2.671875 1.375 L 1.5 1.375 L 1.5 0.488281 L 2.671875 0.488281 Z "/>
</g>
<g id="glyph-0-8">
<path d="M 1.835938 0.0703125 C 1.371094 0.0703125 1.035156 -0.0234375 0.820312 -0.214844 C 0.609375 -0.40625 0.503906 -0.71875 0.503906 -1.152344 L 0.503906 -2.859375 L 0.0703125 -2.859375 L 0.0703125 -3.65625 L 0.503906 -3.65625 L 0.503906 -4.699219 L 1.644531 -4.699219 L 1.644531 -3.65625 L 2.742188 -3.65625 L 2.742188 -2.859375 L 1.644531 -2.859375 L 1.644531 -1.566406 C 1.644531 -1.4375 1.644531 -1.324219 1.648438 -1.230469 C 1.648438 -1.136719 1.667969 -1.050781 1.699219 -0.972656 C 1.730469 -0.898438 1.785156 -0.835938 1.859375 -0.792969 C 1.9375 -0.75 2.050781 -0.726562 2.195312 -0.726562 C 2.257812 -0.726562 2.335938 -0.738281 2.4375 -0.765625 C 2.535156 -0.789062 2.605469 -0.816406 2.644531 -0.835938 L 2.742188 -0.835938 L 2.742188 -0.03125 C 2.617188 0 2.484375 0.0273438 2.347656 0.0429688 C 2.207031 0.0625 2.039062 0.0703125 1.835938 0.0703125 Z "/>
</g>
<g id="glyph-0-9">
<path d="M 1.785156 -2.375 L 0.632812 -2.375 L 0.632812 -3.65625 L 1.785156 -3.65625 L 1.785156 -2.375 M 1.785156 0 L 0.632812 0 L 0.632812 -1.277344 L 1.785156 -1.277344 Z "/>
</g>
<g id="glyph-0-10">
<path d="M 4.941406 -2.417969 C 4.941406 -1.96875 4.84375 -1.5625 4.644531 -1.207031 C 4.449219 -0.847656 4.199219 -0.574219 3.894531 -0.382812 C 3.640625 -0.222656 3.367188 -0.121094 3.074219 -0.0703125 C 2.777344 -0.0234375 2.464844 0 2.128906 0 L 0.617188 0 L 0.617188 -2.21875 L 0.0585938 -2.21875 L 0.0585938 -2.960938 L 0.617188 -2.960938 L 0.617188 -4.847656 L 2.117188 -4.847656 C 2.457031 -4.847656 2.777344 -4.824219 3.074219 -4.78125 C 3.371094 -4.738281 3.648438 -4.632812 3.910156 -4.464844 C 4.226562 -4.261719 4.480469 -3.988281 4.664062 -3.640625 C 4.847656 -3.292969 4.941406 -2.886719 4.941406 -2.417969 M 3.691406 -2.429688 C 3.691406 -2.746094 3.636719 -3.019531 3.527344 -3.246094 C 3.417969 -3.472656 3.25 -3.652344 3.019531 -3.777344 C 2.859375 -3.871094 2.6875 -3.921875 2.503906 -3.929688 C 2.320312 -3.9375 2.105469 -3.941406 1.851562 -3.941406 L 1.824219 -3.941406 L 1.824219 -2.960938 L 2.867188 -2.960938 L 2.867188 -2.21875 L 1.824219 -2.21875 L 1.824219 -0.90625 L 1.851562 -0.90625 C 2.125 -0.90625 2.355469 -0.914062 2.542969 -0.921875 C 2.730469 -0.933594 2.910156 -0.992188 3.078125 -1.097656 C 3.277344 -1.222656 3.429688 -1.394531 3.535156 -1.617188 C 3.640625 -1.839844 3.691406 -2.109375 3.691406 -2.429688 Z "/>
</g>
<g id="glyph-0-11">
<path d="M 2.453125 -0.953125 L 2.453125 -1.714844 C 2.257812 -1.695312 2.101562 -1.679688 1.980469 -1.664062 C 1.863281 -1.652344 1.746094 -1.625 1.628906 -1.582031 C 1.53125 -1.546875 1.453125 -1.496094 1.398438 -1.425781 C 1.34375 -1.355469 1.316406 -1.257812 1.316406 -1.140625 C 1.316406 -0.972656 1.359375 -0.851562 1.453125 -0.789062 C 1.546875 -0.726562 1.683594 -0.691406 1.863281 -0.691406 C 1.960938 -0.691406 2.0625 -0.714844 2.167969 -0.761719 C 2.273438 -0.808594 2.367188 -0.871094 2.453125 -0.953125 M 2.453125 -0.386719 C 2.375 -0.320312 2.304688 -0.265625 2.242188 -0.210938 C 2.179688 -0.160156 2.097656 -0.105469 1.992188 -0.0546875 C 1.890625 -0.00390625 1.789062 0.03125 1.695312 0.0585938 C 1.597656 0.0859375 1.460938 0.0976562 1.289062 0.0976562 C 0.964844 0.0976562 0.695312 -0.0117188 0.484375 -0.226562 C 0.269531 -0.445312 0.164062 -0.71875 0.164062 -1.046875 C 0.164062 -1.320312 0.21875 -1.539062 0.324219 -1.707031 C 0.433594 -1.871094 0.589844 -2.003906 0.792969 -2.101562 C 1 -2.203125 1.246094 -2.273438 1.53125 -2.3125 C 1.820312 -2.351562 2.128906 -2.378906 2.457031 -2.402344 L 2.457031 -2.421875 C 2.457031 -2.625 2.382812 -2.761719 2.234375 -2.839844 C 2.085938 -2.917969 1.863281 -2.957031 1.566406 -2.957031 C 1.429688 -2.957031 1.273438 -2.929688 1.09375 -2.882812 C 0.914062 -2.832031 0.738281 -2.769531 0.566406 -2.695312 L 0.46875 -2.695312 L 0.46875 -3.578125 C 0.582031 -3.609375 0.765625 -3.648438 1.015625 -3.691406 C 1.265625 -3.738281 1.519531 -3.757812 1.777344 -3.757812 C 2.40625 -3.757812 2.863281 -3.65625 3.152344 -3.445312 C 3.441406 -3.234375 3.582031 -2.917969 3.582031 -2.488281 L 3.582031 0 L 2.453125 0 L 2.453125 -0.386719 M 3.089844 -5.324219 C 3.089844 -4.921875 2.980469 -4.613281 2.757812 -4.402344 C 2.539062 -4.191406 2.25 -4.085938 1.886719 -4.085938 C 1.496094 -4.085938 1.199219 -4.191406 0.992188 -4.402344 C 0.785156 -4.613281 0.683594 -4.921875 0.683594 -5.324219 L 1.339844 -5.324219 C 1.339844 -5.226562 1.351562 -5.136719 1.367188 -5.058594 C 1.386719 -4.980469 1.417969 -4.910156 1.460938 -4.851562 C 1.503906 -4.792969 1.558594 -4.746094 1.628906 -4.710938 C 1.695312 -4.679688 1.78125 -4.660156 1.886719 -4.660156 C 1.980469 -4.660156 2.0625 -4.679688 2.136719 -4.714844 C 2.207031 -4.75 2.261719 -4.792969 2.304688 -4.851562 C 2.351562 -4.917969 2.386719 -4.984375 2.402344 -5.054688 C 2.421875 -5.125 2.429688 -5.214844 2.429688 -5.324219 L 3.089844 -5.324219 M 2.464844 1.375 L 1.292969 1.375 L 1.292969 0.488281 L 2.464844 0.488281 Z "/>
</g>
<g id="glyph-0-12">
<path d="M 1.816406 -1.277344 L 0.675781 1.203125 L -0.015625 1.203125 L 0.625 -1.277344 Z "/>
</g>
<g id="glyph-0-13">
<path d="M 2.460938 0.101562 C 1.808594 0.101562 1.308594 -0.0546875 0.957031 -0.371094 C 0.609375 -0.6875 0.433594 -1.144531 0.433594 -1.75 L 0.433594 -4.847656 L 1.648438 -4.847656 L 1.648438 -1.824219 C 1.648438 -1.488281 1.714844 -1.234375 1.839844 -1.070312 C 1.96875 -0.90625 2.175781 -0.824219 2.460938 -0.824219 C 2.742188 -0.824219 2.945312 -0.902344 3.078125 -1.0625 C 3.210938 -1.21875 3.273438 -1.472656 3.273438 -1.824219 L 3.273438 -4.847656 L 4.496094 -4.847656 C 4.671875 -4.847656 4.800781 -4.890625 4.875 -4.980469 C 4.945312 -5.066406 4.984375 -5.1875 4.984375 -5.339844 C 4.984375 -5.429688 4.96875 -5.515625 4.945312 -5.597656 C 4.917969 -5.683594 4.894531 -5.75 4.871094 -5.804688 L 4.871094 -5.867188 L 5.519531 -5.867188 C 5.542969 -5.792969 5.5625 -5.6875 5.574219 -5.554688 C 5.589844 -5.421875 5.597656 -5.316406 5.597656 -5.238281 C 5.597656 -4.902344 5.503906 -4.65625 5.3125 -4.492188 C 5.125 -4.328125 4.851562 -4.246094 4.5 -4.246094 L 4.492188 -4.246094 L 4.492188 -1.753906 C 4.492188 -1.15625 4.320312 -0.699219 3.980469 -0.378906 C 3.636719 -0.0585938 3.132812 0.101562 2.460938 0.101562 M 3.539062 -6.667969 L 2.5625 -5.390625 L 1.785156 -5.390625 L 2.460938 -6.667969 Z "/>
</g>
<g id="glyph-0-14">
<path d="M 3.945312 -1.824219 C 3.945312 -1.226562 3.78125 -0.75 3.453125 -0.40625 C 3.125 -0.0585938 2.660156 0.113281 2.058594 0.113281 C 1.460938 0.113281 0.996094 -0.0585938 0.664062 -0.40625 C 0.335938 -0.75 0.167969 -1.226562 0.167969 -1.824219 C 0.167969 -2.433594 0.335938 -2.910156 0.664062 -3.253906 C 0.996094 -3.597656 1.460938 -3.769531 2.058594 -3.769531 C 2.65625 -3.769531 3.121094 -3.597656 3.449219 -3.25 C 3.78125 -2.902344 3.945312 -2.429688 3.945312 -1.824219 M 2.777344 -1.820312 C 2.777344 -2.035156 2.757812 -2.21875 2.722656 -2.363281 C 2.6875 -2.507812 2.636719 -2.621094 2.574219 -2.707031 C 2.507812 -2.800781 2.429688 -2.863281 2.347656 -2.898438 C 2.261719 -2.933594 2.164062 -2.953125 2.058594 -2.953125 C 1.957031 -2.953125 1.863281 -2.9375 1.78125 -2.90625 C 1.699219 -2.875 1.621094 -2.8125 1.550781 -2.722656 C 1.488281 -2.640625 1.433594 -2.523438 1.394531 -2.375 C 1.355469 -2.230469 1.335938 -2.042969 1.335938 -1.820312 C 1.335938 -1.597656 1.355469 -1.414062 1.394531 -1.277344 C 1.429688 -1.140625 1.476562 -1.03125 1.535156 -0.945312 C 1.597656 -0.863281 1.671875 -0.800781 1.765625 -0.761719 C 1.855469 -0.722656 1.957031 -0.703125 2.066406 -0.703125 C 2.15625 -0.703125 2.25 -0.722656 2.34375 -0.761719 C 2.441406 -0.800781 2.515625 -0.859375 2.570312 -0.9375 C 2.640625 -1.03125 2.691406 -1.144531 2.722656 -1.273438 C 2.757812 -1.40625 2.777344 -1.585938 2.777344 -1.820312 M 3.445312 -4.175781 L 2.601562 -4.175781 L 2.0625 -4.871094 L 1.53125 -4.175781 L 0.699219 -4.175781 L 1.679688 -5.457031 L 2.464844 -5.457031 L 3.445312 -4.175781 M 4.605469 -5.457031 L 3.929688 -4.589844 L 3.378906 -4.589844 L 3.78125 -5.457031 Z "/>
</g>
</g>
</defs>
<g fill="rgb(100%, 100%, 100%)" fill-opacity="1">
<use xlink:href="#glyph-0-0" x="30" y="26.668945"/>
<use xlink:href="#glyph-0-1" x="34" y="26.668945"/>
<use xlink:href="#glyph-0-2" x="36" y="26.668945"/>
<use xlink:href="#glyph-0-3" x="40" y="26.668945"/>
<use xlink:href="#glyph-0-4" x="44" y="26.668945"/>
<use xlink:href="#glyph-0-5" x="48" y="26.668945"/>
<use xlink:href="#glyph-0-6" x="50" y="26.668945"/>
<use xlink:href="#glyph-0-1" x="54" y="26.668945"/>
<use xlink:href="#glyph-0-7" x="56" y="26.668945"/>
<use xlink:href="#glyph-0-8" x="60" y="26.668945"/>
<use xlink:href="#glyph-0-9" x="63" y="26.668945"/>
<use xlink:href="#glyph-0-5" x="65" y="26.668945"/>
<use xlink:href="#glyph-0-10" x="67" y="26.668945"/>
<use xlink:href="#glyph-0-11" x="72" y="26.668945"/>
<use xlink:href="#glyph-0-3" x="76" y="26.668945"/>
<use xlink:href="#glyph-0-4" x="80" y="26.668945"/>
<use xlink:href="#glyph-0-12" x="84" y="26.668945"/>
<use xlink:href="#glyph-0-5" x="86" y="26.668945"/>
<use xlink:href="#glyph-0-13" x="88" y="26.668945"/>
<use xlink:href="#glyph-0-3" x="93" y="26.668945"/>
<use xlink:href="#glyph-0-4" x="97" y="26.668945"/>
<use xlink:href="#glyph-0-12" x="101" y="26.668945"/>
<use xlink:href="#glyph-0-5" x="103" y="26.668945"/>
<use xlink:href="#glyph-0-7" x="105" y="26.668945"/>
<use xlink:href="#glyph-0-12" x="109" y="26.668945"/>
<use xlink:href="#glyph-0-5" x="111" y="26.668945"/>
<use xlink:href="#glyph-0-14" x="113" y="26.668945"/>
</g>
</svg>
