<?xml version="1.0" encoding="UTF-8"?>
<svg xmlns="http://www.w3.org/2000/svg" xmlns:xlink="http://www.w3.org/1999/xlink" width="854" height="480" viewBox="0 0 854 480">
<defs>
<g>
<g id="glyph-0-0">
<path d="M 5.558594 -3.023438 C 5.558594 -2.46875 5.445312 -1.972656 5.222656 -1.527344 C 5 -1.082031 4.699219 -0.734375 4.320312 -0.484375 C 4.019531 -0.285156 3.710938 -0.152344 3.390625 -0.0898438 C 3.074219 -0.03125 2.667969 0 2.175781 0 L 0.78125 0 L 0.78125 -3.011719 L 0.0976562 -3.011719 L 0.0976562 -3.59375 L 0.78125 -3.59375 L 0.78125 -6.058594 L 2.160156 -6.058594 C 2.730469 -6.058594 3.175781 -6.015625 3.5 -5.929688 C 3.824219 -5.84375 4.101562 -5.726562 4.328125 -5.578125 C 4.71875 -5.320312 5.023438 -4.976562 5.238281 -4.550781 C 5.449219 -4.125 5.558594 -3.613281 5.558594 -3.023438 M 4.71875 -3.035156 C 4.71875 -3.503906 4.644531 -3.898438 4.488281 -4.230469 C 4.332031 -4.558594 4.105469 -4.816406 3.800781 -5 C 3.585938 -5.132812 3.355469 -5.222656 3.113281 -5.28125 C 2.867188 -5.339844 2.566406 -5.367188 2.203125 -5.367188 L 1.585938 -5.367188 L 1.585938 -3.59375 L 2.917969 -3.59375 L 2.917969 -3.011719 L 1.585938 -3.011719 L 1.585938 -0.691406 L 2.203125 -0.691406 C 2.558594 -0.691406 2.871094 -0.722656 3.140625 -0.777344 C 3.410156 -0.835938 3.65625 -0.941406 3.878906 -1.09375 C 4.15625 -1.285156 4.367188 -1.539062 4.507812 -1.851562 C 4.648438 -2.167969 4.71875 -2.5625 4.71875 -3.035156 Z "/>
</g>
<g id="glyph-0-1">
<path d="M 4.09375 0 L 3.328125 0 L 3.328125 -0.503906 C 3.09375 -0.296875 2.867188 -0.140625 2.65625 -0.0351562 C 2.445312 0.0742188 2.210938 0.125 1.949219 0.125 C 1.75 0.125 1.566406 0.09375 1.390625 0.0273438 C 1.214844 -0.0351562 1.0625 -0.140625 0.933594 -0.28125 C 0.800781 -0.421875 0.699219 -0.597656 0.628906 -0.8125 C 0.558594 -1.027344 0.519531 -1.289062 0.519531 -1.59375 L 0.519531 -4.546875 L 1.285156 -4.546875 L 1.285156 -1.957031 C 1.285156 -1.714844 1.292969 -1.515625 1.3125 -1.355469 C 1.328125 -1.199219 1.371094 -1.058594 1.433594 -0.941406 C 1.496094 -0.824219 1.578125 -0.738281 1.6875 -0.683594 C 1.792969 -0.628906 1.949219 -0.601562 2.148438 -0.601562 C 2.335938 -0.601562 2.535156 -0.65625 2.746094 -0.761719 C 2.957031 -0.867188 3.152344 -0.996094 3.328125 -1.152344 L 3.328125 -4.546875 L 4.175781 -4.546875 C 4.417969 -4.546875 4.589844 -4.589844 4.691406 -4.675781 C 4.792969 -4.765625 4.84375 -4.90625 4.84375 -5.097656 C 4.84375 -5.195312 4.828125 -5.308594 4.796875 -5.429688 C 4.765625 -5.554688 4.734375 -5.644531 4.703125 -5.707031 L 4.703125 -5.746094 L 5.355469 -5.746094 C 5.390625 -5.617188 5.414062 -5.507812 5.429688 -5.410156 C 5.445312 -5.316406 5.453125 -5.203125 5.453125 -5.066406 C 5.453125 -4.710938 5.335938 -4.441406 5.101562 -4.265625 C 4.871094 -4.085938 4.535156 -3.996094 4.101562 -3.996094 L 4.09375 -3.996094 Z "/>
</g>
<g id="glyph-0-2">
<path d="M 4.292969 -2.269531 C 4.292969 -1.503906 4.109375 -0.914062 3.738281 -0.5 C 3.371094 -0.0820312 2.878906 0.125 2.265625 0.125 C 1.632812 0.125 1.136719 -0.0898438 0.773438 -0.519531 C 0.414062 -0.949219 0.230469 -1.53125 0.230469 -2.269531 C 0.230469 -3.03125 0.417969 -3.621094 0.792969 -4.039062 C 1.164062 -4.460938 1.65625 -4.671875 2.265625 -4.671875 C 2.402344 -4.671875 2.53125 -4.660156 2.65625 -4.640625 C 2.777344 -4.621094 2.898438 -4.589844 3.015625 -4.546875 L 3.378906 -4.546875 C 3.621094 -4.546875 3.792969 -4.589844 3.894531 -4.675781 C 3.996094 -4.765625 4.042969 -4.90625 4.042969 -5.097656 C 4.042969 -5.195312 4.03125 -5.308594 4 -5.429688 C 3.96875 -5.554688 3.9375 -5.644531 3.90625 -5.707031 L 3.90625 -5.746094 L 4.558594 -5.746094 C 4.59375 -5.617188 4.617188 -5.507812 4.632812 -5.410156 C 4.648438 -5.316406 4.65625 -5.203125 4.65625 -5.066406 C 4.65625 -4.777344 4.578125 -4.546875 4.421875 -4.375 C 4.265625 -4.199219 4.039062 -4.085938 3.746094 -4.03125 C 3.925781 -3.828125 4.058594 -3.578125 4.152344 -3.28125 C 4.246094 -2.984375 4.292969 -2.648438 4.292969 -2.269531 M 3.503906 -2.269531 C 3.503906 -2.859375 3.394531 -3.296875 3.183594 -3.582031 C 2.96875 -3.867188 2.664062 -4.011719 2.265625 -4.011719 C 1.867188 -4.011719 1.558594 -3.867188 1.34375 -3.582031 C 1.128906 -3.296875 1.019531 -2.859375 1.019531 -2.269531 C 1.019531 -1.699219 1.128906 -1.269531 1.34375 -0.972656 C 1.558594 -0.679688 1.867188 -0.53125 2.265625 -0.53125 C 2.660156 -0.53125 2.964844 -0.675781 3.179688 -0.964844 C 3.394531 -1.253906 3.503906 -1.691406 3.503906 -2.269531 M 2.714844 -5.296875 L 2.109375 -5.296875 L 0.996094 -6.820312 L 1.984375 -6.820312 Z "/>
</g>
<g id="glyph-0-3">
<path d="M 4.125 0 L 3.359375 0 L 3.359375 -2.585938 C 3.359375 -2.796875 3.351562 -2.992188 3.332031 -3.171875 C 3.308594 -3.351562 3.269531 -3.496094 3.214844 -3.605469 C 3.152344 -3.71875 3.066406 -3.804688 2.953125 -3.859375 C 2.84375 -3.914062 2.691406 -3.941406 2.5 -3.941406 C 2.308594 -3.941406 2.113281 -3.890625 1.910156 -3.789062 C 1.707031 -3.6875 1.511719 -3.554688 1.316406 -3.394531 L 1.316406 0 L 0.554688 0 L 0.554688 -4.546875 L 1.316406 -4.546875 L 1.316406 -4.039062 C 1.546875 -4.242188 1.769531 -4.398438 1.992188 -4.507812 C 2.214844 -4.617188 2.449219 -4.671875 2.699219 -4.671875 C 3.144531 -4.671875 3.496094 -4.523438 3.746094 -4.230469 C 4 -3.933594 4.125 -3.507812 4.125 -2.949219 Z "/>
</g>
<g id="glyph-0-4">
<path d="M 3.289062 -1.234375 L 3.289062 -3.726562 C 3.097656 -3.820312 2.921875 -3.886719 2.761719 -3.925781 C 2.597656 -3.964844 2.4375 -3.984375 2.277344 -3.984375 C 1.890625 -3.984375 1.585938 -3.839844 1.363281 -3.554688 C 1.140625 -3.269531 1.03125 -2.863281 1.03125 -2.332031 C 1.03125 -1.828125 1.113281 -1.441406 1.285156 -1.179688 C 1.453125 -0.917969 1.726562 -0.785156 2.109375 -0.785156 C 2.304688 -0.785156 2.511719 -0.824219 2.71875 -0.902344 C 2.929688 -0.980469 3.121094 -1.09375 3.289062 -1.234375 M 0.714844 0.726562 C 0.769531 0.75 0.84375 0.777344 0.945312 0.816406 C 1.042969 0.851562 1.160156 0.886719 1.285156 0.917969 C 1.425781 0.953125 1.558594 0.984375 1.675781 1.003906 C 1.796875 1.027344 1.925781 1.039062 2.066406 1.039062 C 2.304688 1.039062 2.503906 1.007812 2.667969 0.945312 C 2.832031 0.882812 2.960938 0.792969 3.050781 0.683594 C 3.136719 0.574219 3.199219 0.445312 3.234375 0.296875 C 3.269531 0.152344 3.289062 -0.015625 3.289062 -0.203125 L 3.289062 -0.601562 C 3.082031 -0.421875 2.878906 -0.289062 2.679688 -0.207031 C 2.484375 -0.121094 2.234375 -0.078125 1.9375 -0.078125 C 1.417969 -0.078125 1.007812 -0.269531 0.699219 -0.65625 C 0.394531 -1.039062 0.238281 -1.59375 0.238281 -2.316406 C 0.238281 -2.691406 0.292969 -3.027344 0.398438 -3.316406 C 0.503906 -3.609375 0.648438 -3.855469 0.824219 -4.0625 C 0.996094 -4.257812 1.199219 -4.40625 1.433594 -4.511719 C 1.664062 -4.617188 1.90625 -4.671875 2.15625 -4.671875 C 2.390625 -4.671875 2.597656 -4.644531 2.769531 -4.585938 C 2.941406 -4.53125 3.113281 -4.453125 3.289062 -4.351562 L 3.332031 -4.546875 L 4.050781 -4.546875 L 4.050781 -0.515625 C 4.050781 0.253906 3.882812 0.820312 3.546875 1.179688 C 3.210938 1.539062 2.699219 1.722656 2.007812 1.722656 C 1.785156 1.722656 1.554688 1.703125 1.324219 1.667969 C 1.09375 1.632812 0.875 1.585938 0.675781 1.527344 L 0.675781 0.726562 Z "/>
</g>
<g id="glyph-0-5">
</g>
<g id="glyph-0-6">
<path d="M 2.359375 0.101562 C 2.046875 0.101562 1.761719 0.0546875 1.5 -0.0429688 C 1.242188 -0.140625 1.015625 -0.285156 0.828125 -0.480469 C 0.644531 -0.675781 0.496094 -0.921875 0.394531 -1.21875 C 0.292969 -1.515625 0.238281 -1.863281 0.238281 -2.265625 C 0.238281 -2.664062 0.292969 -3.007812 0.402344 -3.300781 C 0.507812 -3.589844 0.652344 -3.835938 0.828125 -4.03125 C 1.007812 -4.230469 1.230469 -4.382812 1.5 -4.488281 C 1.765625 -4.597656 2.054688 -4.652344 2.359375 -4.652344 C 2.609375 -4.652344 2.851562 -4.617188 3.082031 -4.546875 C 3.3125 -4.472656 3.519531 -4.394531 3.703125 -4.300781 L 3.703125 -3.441406 L 3.65625 -3.441406 C 3.605469 -3.488281 3.535156 -3.542969 3.449219 -3.601562 C 3.363281 -3.660156 3.257812 -3.722656 3.136719 -3.785156 C 3.03125 -3.839844 2.90625 -3.886719 2.761719 -3.925781 C 2.617188 -3.96875 2.480469 -3.988281 2.347656 -3.988281 C 1.953125 -3.988281 1.632812 -3.835938 1.394531 -3.539062 C 1.152344 -3.238281 1.035156 -2.8125 1.035156 -2.265625 C 1.035156 -1.730469 1.148438 -1.3125 1.382812 -1.011719 C 1.613281 -0.710938 1.933594 -0.5625 2.347656 -0.5625 C 2.597656 -0.5625 2.835938 -0.613281 3.058594 -0.714844 C 3.285156 -0.820312 3.484375 -0.953125 3.65625 -1.113281 L 3.703125 -1.113281 L 3.703125 -0.257812 C 3.625 -0.222656 3.53125 -0.179688 3.417969 -0.128906 C 3.304688 -0.078125 3.199219 -0.0390625 3.109375 -0.015625 C 2.976562 0.0234375 2.863281 0.0507812 2.757812 0.0703125 C 2.65625 0.0898438 2.523438 0.101562 2.359375 0.101562 Z "/>
</g>
<g id="glyph-0-7">
<path d="M 4.125 0 L 3.359375 0 L 3.359375 -2.585938 C 3.359375 -2.796875 3.351562 -2.992188 3.332031 -3.171875 C 3.308594 -3.351562 3.269531 -3.496094 3.214844 -3.605469 C 3.152344 -3.71875 3.066406 -3.804688 2.953125 -3.859375 C 2.84375 -3.914062 2.691406 -3.941406 2.5 -3.941406 C 2.308594 -3.941406 2.113281 -3.890625 1.910156 -3.789062 C 1.707031 -3.6875 1.511719 -3.554688 1.316406 -3.394531 L 1.316406 0 L 0.554688 0 L 0.554688 -6.332031 L 1.316406 -6.332031 L 1.316406 -4.039062 C 1.546875 -4.242188 1.769531 -4.398438 1.992188 -4.507812 C 2.214844 -4.617188 2.449219 -4.671875 2.699219 -4.671875 C 3.144531 -4.671875 3.496094 -4.523438 3.746094 -4.230469 C 4 -3.933594 4.125 -3.507812 4.125 -2.949219 Z "/>
</g>
<g id="glyph-0-8">
<path d="M 2.527344 0.105469 C 1.800781 0.105469 1.242188 -0.0976562 0.839844 -0.507812 C 0.441406 -0.914062 0.238281 -1.496094 0.238281 -2.246094 C 0.238281 -2.988281 0.433594 -3.574219 0.820312 -4.015625 C 1.210938 -4.453125 1.71875 -4.671875 2.34375 -4.671875 C 2.625 -4.671875 2.875 -4.628906 3.09375 -4.550781 C 3.308594 -4.46875 3.5 -4.339844 3.660156 -4.167969 C 3.824219 -3.992188 3.949219 -3.78125 4.035156 -3.53125 C 4.125 -3.277344 4.167969 -2.972656 4.167969 -2.609375 L 4.167969 -2.191406 L 1.015625 -2.191406 C 1.015625 -1.664062 1.148438 -1.261719 1.414062 -0.980469 C 1.683594 -0.703125 2.050781 -0.5625 2.519531 -0.5625 C 2.6875 -0.5625 2.851562 -0.582031 3.011719 -0.617188 C 3.175781 -0.65625 3.320312 -0.707031 3.449219 -0.765625 C 3.589844 -0.828125 3.707031 -0.886719 3.800781 -0.945312 C 3.894531 -1.003906 3.972656 -1.058594 4.035156 -1.109375 L 4.082031 -1.109375 L 4.082031 -0.277344 C 3.992188 -0.242188 3.878906 -0.199219 3.746094 -0.144531 C 3.613281 -0.0898438 3.496094 -0.0507812 3.390625 -0.0195312 C 3.242188 0.0195312 3.105469 0.0507812 2.984375 0.0742188 C 2.863281 0.09375 2.710938 0.105469 2.527344 0.105469 M 3.421875 -2.777344 C 3.417969 -2.984375 3.390625 -3.164062 3.347656 -3.3125 C 3.304688 -3.460938 3.242188 -3.585938 3.160156 -3.691406 C 3.070312 -3.804688 2.957031 -3.890625 2.816406 -3.949219 C 2.679688 -4.011719 2.503906 -4.039062 2.300781 -4.039062 C 2.09375 -4.039062 1.921875 -4.011719 1.78125 -3.949219 C 1.636719 -3.886719 1.507812 -3.800781 1.390625 -3.683594 C 1.277344 -3.5625 1.191406 -3.429688 1.132812 -3.285156 C 1.070312 -3.140625 1.035156 -2.972656 1.015625 -2.777344 L 3.421875 -2.777344 M 3.617188 -6.820312 L 2.507812 -5.296875 L 1.898438 -5.296875 L 2.628906 -6.820312 Z "/>
</g>
<g id="glyph-0-9">
<path d="M 4.292969 -2.269531 C 4.292969 -1.503906 4.109375 -0.914062 3.738281 -0.5 C 3.371094 -0.0820312 2.878906 0.125 2.265625 0.125 C 1.632812 0.125 1.136719 -0.0898438 0.773438 -0.519531 C 0.414062 -0.949219 0.230469 -1.53125 0.230469 -2.269531 C 0.230469 -3.03125 0.417969 -3.621094 0.792969 -4.039062 C 1.164062 -4.460938 1.65625 -4.671875 2.265625 -4.671875 C 2.878906 -4.671875 3.371094 -4.460938 3.738281 -4.042969 C 4.109375 -3.625 4.292969 -3.03125 4.292969 -2.269531 M 3.503906 -2.269531 C 3.503906 -2.859375 3.394531 -3.296875 3.183594 -3.582031 C 2.96875 -3.867188 2.664062 -4.011719 2.265625 -4.011719 C 1.867188 -4.011719 1.558594 -3.867188 1.34375 -3.582031 C 1.128906 -3.296875 1.019531 -2.859375 1.019531 -2.269531 C 1.019531 -1.699219 1.128906 -1.269531 1.34375 -0.972656 C 1.558594 -0.679688 1.867188 -0.53125 2.265625 -0.53125 C 2.660156 -0.53125 2.964844 -0.675781 3.179688 -0.964844 C 3.394531 -1.253906 3.503906 -1.691406 3.503906 -2.269531 Z "/>
</g>
<g id="glyph-0-10">
<path d="M 4.125 -4.546875 L 2.414062 0 L 1.726562 0 L 0.0234375 -4.546875 L 0.851562 -4.546875 L 2.09375 -1.039062 L 3.328125 -4.546875 Z "/>
</g>
<g id="glyph-0-11">
<path d="M 1.78125 0.109375 C 1.476562 0.109375 1.195312 0.0703125 0.929688 -0.0117188 C 0.664062 -0.09375 0.445312 -0.179688 0.273438 -0.273438 L 0.273438 -1.132812 L 0.3125 -1.132812 C 0.378906 -1.078125 0.453125 -1.023438 0.542969 -0.960938 C 0.632812 -0.898438 0.75 -0.832031 0.894531 -0.765625 C 1.023438 -0.707031 1.167969 -0.652344 1.324219 -0.605469 C 1.480469 -0.558594 1.640625 -0.535156 1.8125 -0.535156 C 1.933594 -0.535156 2.0625 -0.550781 2.203125 -0.578125 C 2.339844 -0.609375 2.441406 -0.644531 2.511719 -0.6875 C 2.605469 -0.75 2.675781 -0.816406 2.714844 -0.886719 C 2.757812 -0.957031 2.777344 -1.0625 2.777344 -1.203125 C 2.777344 -1.386719 2.730469 -1.523438 2.628906 -1.617188 C 2.53125 -1.707031 2.355469 -1.785156 2.105469 -1.847656 C 2.007812 -1.871094 1.878906 -1.898438 1.722656 -1.933594 C 1.5625 -1.964844 1.417969 -2 1.285156 -2.039062 C 0.9375 -2.140625 0.6875 -2.292969 0.527344 -2.503906 C 0.371094 -2.714844 0.292969 -2.96875 0.292969 -3.265625 C 0.292969 -3.675781 0.449219 -4.011719 0.757812 -4.269531 C 1.066406 -4.527344 1.476562 -4.65625 1.988281 -4.65625 C 2.242188 -4.65625 2.496094 -4.625 2.75 -4.5625 C 3.003906 -4.5 3.21875 -4.421875 3.394531 -4.324219 L 3.394531 -3.507812 L 3.351562 -3.507812 C 3.15625 -3.660156 2.941406 -3.785156 2.699219 -3.875 C 2.460938 -3.964844 2.21875 -4.007812 1.972656 -4.007812 C 1.722656 -4.007812 1.507812 -3.953125 1.335938 -3.847656 C 1.160156 -3.742188 1.074219 -3.582031 1.074219 -3.367188 C 1.074219 -3.179688 1.125 -3.039062 1.230469 -2.945312 C 1.332031 -2.851562 1.496094 -2.773438 1.726562 -2.714844 C 1.839844 -2.683594 1.964844 -2.65625 2.105469 -2.625 C 2.246094 -2.597656 2.390625 -2.566406 2.546875 -2.527344 C 2.882812 -2.441406 3.136719 -2.304688 3.304688 -2.109375 C 3.476562 -1.914062 3.558594 -1.648438 3.558594 -1.308594 C 3.558594 -1.113281 3.523438 -0.929688 3.445312 -0.753906 C 3.367188 -0.578125 3.253906 -0.429688 3.105469 -0.304688 C 2.941406 -0.167969 2.757812 -0.0664062 2.554688 0.00390625 C 2.347656 0.0742188 2.089844 0.109375 1.78125 0.109375 Z "/>
</g>
<g id="glyph-0-12">
<path d="M 2.03125 0 L 2.03125 -5.34375 L -0.00390625 -5.34375 L -0.00390625 -6.058594 L 4.871094 -6.058594 L 4.871094 -5.34375 L 2.835938 -5.34375 L 2.835938 0 Z "/>
</g>
<g id="glyph-0-13">
<path d="M 2.960938 -3.722656 L 2.921875 -3.722656 C 2.863281 -3.738281 2.804688 -3.75 2.742188 -3.753906 C 2.675781 -3.757812 2.601562 -3.757812 2.511719 -3.757812 C 2.304688 -3.757812 2.097656 -3.714844 1.894531 -3.625 C 1.691406 -3.535156 1.5 -3.402344 1.316406 -3.226562 L 1.316406 0 L 0.554688 0 L 0.554688 -4.546875 L 1.316406 -4.546875 L 1.316406 -3.871094 C 1.597656 -4.117188 1.839844 -4.289062 2.046875 -4.390625 C 2.257812 -4.496094 2.457031 -4.546875 2.652344 -4.546875 C 2.730469 -4.546875 2.789062 -4.542969 2.828125 -4.539062 C 2.871094 -4.535156 2.914062 -4.527344 2.960938 -4.519531 Z "/>
</g>
<g id="glyph-0-14">
<path d="M 4.09375 0 L 3.328125 0 L 3.328125 -0.503906 C 3.09375 -0.296875 2.867188 -0.140625 2.65625 -0.0351562 C 2.445312 0.0742188 2.210938 0.125 1.949219 0.125 C 1.75 0.125 1.566406 0.09375 1.390625 0.0273438 C 1.214844 -0.0351562 1.0625 -0.140625 0.933594 -0.28125 C 0.800781 -0.421875 0.699219 -0.597656 0.628906 -0.8125 C 0.558594 -1.027344 0.519531 -1.289062 0.519531 -1.59375 L 0.519531 -4.546875 L 1.285156 -4.546875 L 1.285156 -1.957031 C 1.285156 -1.714844 1.292969 -1.515625 1.3125 -1.355469 C 1.328125 -1.199219 1.371094 -1.058594 1.433594 -0.941406 C 1.496094 -0.824219 1.578125 -0.738281 1.6875 -0.683594 C 1.792969 -0.628906 1.949219 -0.601562 2.148438 -0.601562 C 2.335938 -0.601562 2.535156 -0.65625 2.746094 -0.761719 C 2.957031 -0.867188 3.152344 -0.996094 3.328125 -1.152344 L 3.328125 -4.546875 L 4.175781 -4.546875 C 4.417969 -4.546875 4.589844 -4.589844 4.691406 -4.675781 C 4.792969 -4.765625 4.84375 -4.90625 4.84375 -5.097656 C 4.84375 -5.195312 4.828125 -5.308594 4.796875 -5.429688 C 4.765625 -5.554688 4.734375 -5.644531 4.703125 -5.707031 L 4.703125 -5.746094 L 5.355469 -5.746094 C 5.390625 -5.617188 5.414062 -5.507812 5.429688 -5.410156 C 5.445312 -5.316406 5.453125 -5.203125 5.453125 -5.066406 C 5.453125 -4.710938 5.335938 -4.441406 5.101562 -4.265625 C 4.871094 -4.085938 4.535156 -3.996094 4.101562 -3.996094 L 4.09375 -3.996094 L 4.09375 0 M 2.738281 1.554688 L 1.867188 1.554688 L 1.867188 0.761719 L 2.738281 0.761719 Z "/>
</g>
<g id="glyph-0-15">
<path d="M 1.335938 0 L 0.570312 0 L 0.570312 -4.546875 L 1.335938 -4.546875 L 1.335938 0 M 1.386719 -5.304688 L 0.515625 -5.304688 L 0.515625 -6.097656 L 1.386719 -6.097656 Z "/>
</g>
<g id="glyph-0-16">
<path d="M 3.09375 -1.117188 L 3.09375 -2.378906 C 2.910156 -2.363281 2.679688 -2.339844 2.402344 -2.3125 C 2.125 -2.285156 1.898438 -2.246094 1.730469 -2.191406 C 1.527344 -2.128906 1.359375 -2.035156 1.226562 -1.90625 C 1.09375 -1.777344 1.023438 -1.597656 1.023438 -1.367188 C 1.023438 -1.105469 1.097656 -0.910156 1.246094 -0.777344 C 1.390625 -0.644531 1.605469 -0.578125 1.886719 -0.578125 C 2.128906 -0.578125 2.347656 -0.628906 2.542969 -0.734375 C 2.738281 -0.839844 2.921875 -0.96875 3.09375 -1.117188 M 3.09375 -0.484375 C 3.03125 -0.4375 2.945312 -0.375 2.84375 -0.289062 C 2.738281 -0.207031 2.636719 -0.140625 2.539062 -0.09375 C 2.402344 -0.0234375 2.273438 0.03125 2.144531 0.0703125 C 2.019531 0.105469 1.84375 0.125 1.617188 0.125 C 1.429688 0.125 1.25 0.0898438 1.082031 0.0195312 C 0.914062 -0.0507812 0.765625 -0.148438 0.640625 -0.277344 C 0.515625 -0.402344 0.417969 -0.554688 0.347656 -0.738281 C 0.273438 -0.921875 0.234375 -1.113281 0.234375 -1.316406 C 0.234375 -1.632812 0.300781 -1.902344 0.433594 -2.121094 C 0.566406 -2.34375 0.777344 -2.519531 1.066406 -2.648438 C 1.320312 -2.765625 1.621094 -2.847656 1.96875 -2.890625 C 2.316406 -2.9375 2.691406 -2.96875 3.09375 -2.992188 L 3.09375 -3.136719 C 3.09375 -3.316406 3.066406 -3.460938 3.011719 -3.570312 C 2.957031 -3.679688 2.878906 -3.765625 2.78125 -3.824219 C 2.683594 -3.886719 2.566406 -3.929688 2.425781 -3.949219 C 2.285156 -3.96875 2.140625 -3.980469 1.988281 -3.980469 C 1.8125 -3.980469 1.605469 -3.953125 1.367188 -3.898438 C 1.128906 -3.847656 0.890625 -3.769531 0.652344 -3.671875 L 0.605469 -3.671875 L 0.605469 -4.449219 C 0.746094 -4.488281 0.949219 -4.53125 1.210938 -4.582031 C 1.476562 -4.628906 1.734375 -4.65625 1.992188 -4.65625 C 2.304688 -4.65625 2.570312 -4.628906 2.78125 -4.582031 C 2.996094 -4.53125 3.191406 -4.445312 3.359375 -4.316406 C 3.527344 -4.191406 3.648438 -4.03125 3.730469 -3.832031 C 3.8125 -3.636719 3.851562 -3.394531 3.851562 -3.109375 L 3.851562 0 L 3.09375 0 Z "/>
</g>
</g>
</defs>
<g fill="rgb(100%, 100%, 100%)" fill-opacity="1">
<use xlink:href="#glyph-0-0" x="30" y="28.336914"/>
<use xlink:href="#glyph-0-1" x="36" y="28.336914"/>
<use xlink:href="#glyph-0-2" x="41" y="28.336914"/>
<use xlink:href="#glyph-0-3" x="46" y="28.336914"/>
<use xlink:href="#glyph-0-4" x="51" y="28.336914"/>
<use xlink:href="#glyph-0-5" x="56" y="28.336914"/>
<use xlink:href="#glyph-0-6" x="59" y="28.336914"/>
<use xlink:href="#glyph-0-7" x="63" y="28.336914"/>
<use xlink:href="#glyph-0-8" x="68" y="28.336914"/>
<use xlink:href="#glyph-0-9" x="72" y="28.336914"/>
<use xlink:href="#glyph-0-5" x="77" y="28.336914"/>
<use xlink:href="#glyph-0-10" x="80" y="28.336914"/>
<use xlink:href="#glyph-0-11" x="84" y="28.336914"/>
<use xlink:href="#glyph-0-5" x="88" y="28.336914"/>
<use xlink:href="#glyph-0-12" x="91" y="28.336914"/>
<use xlink:href="#glyph-0-13" x="94.613281" y="28.336914"/>
<use xlink:href="#glyph-0-14" x="98" y="28.336914"/>
<use xlink:href="#glyph-0-6" x="103" y="28.336914"/>
<use xlink:href="#glyph-0-5" x="107" y="28.336914"/>
<use xlink:href="#glyph-0-4" x="110" y="28.336914"/>
<use xlink:href="#glyph-0-15" x="115" y="28.336914"/>
<use xlink:href="#glyph-0-16" x="117" y="28.336914"/>
<use xlink:href="#glyph-0-9" x="121" y="28.336914"/>
</g>
</svg>
