<?xml version="1.0" encoding="UTF-8"?>
<svg xmlns="http://www.w3.org/2000/svg" xmlns:xlink="http://www.w3.org/1999/xlink" width="854" height="480" viewBox="0 0 854 480">
<defs>
<g>
<g id="glyph-0-0">
<path d="M 7.773438 0.28125 C 5.59375 0.28125 3.859375 -0.375 2.578125 -1.695312 C 1.296875 -3.011719 0.65625 -4.867188 0.65625 -7.257812 C 0.65625 -9.5625 1.296875 -11.398438 2.582031 -12.769531 C 3.867188 -14.140625 5.601562 -14.824219 7.78125 -14.824219 C 8.363281 -14.824219 8.882812 -14.792969 9.34375 -14.726562 C 9.808594 -14.660156 10.25 -14.570312 10.671875 -14.453125 C 11.007812 -14.355469 11.367188 -14.222656 11.757812 -14.054688 C 12.148438 -13.882812 12.464844 -13.738281 12.703125 -13.613281 L 12.703125 -10.148438 L 12.335938 -10.148438 C 12.15625 -10.304688 11.9375 -10.488281 11.671875 -10.707031 C 11.402344 -10.925781 11.101562 -11.140625 10.761719 -11.347656 C 10.421875 -11.554688 10.050781 -11.734375 9.644531 -11.878906 C 9.238281 -12.027344 8.8125 -12.101562 8.367188 -12.101562 C 7.84375 -12.101562 7.359375 -12.015625 6.917969 -11.851562 C 6.480469 -11.683594 6.0625 -11.398438 5.664062 -10.984375 C 5.300781 -10.617188 5 -10.113281 4.769531 -9.484375 C 4.539062 -8.851562 4.421875 -8.105469 4.421875 -7.246094 C 4.421875 -6.339844 4.542969 -5.582031 4.785156 -4.964844 C 5.027344 -4.351562 5.34375 -3.855469 5.734375 -3.476562 C 6.109375 -3.113281 6.53125 -2.847656 6.996094 -2.6875 C 7.460938 -2.523438 7.925781 -2.441406 8.390625 -2.441406 C 8.871094 -2.441406 9.328125 -2.519531 9.765625 -2.679688 C 10.203125 -2.839844 10.570312 -3.015625 10.867188 -3.210938 C 11.195312 -3.414062 11.480469 -3.621094 11.726562 -3.828125 C 11.976562 -4.035156 12.191406 -4.222656 12.375 -4.382812 L 12.703125 -4.382812 L 12.703125 -0.96875 C 12.4375 -0.84375 12.128906 -0.703125 11.777344 -0.542969 C 11.425781 -0.382812 11.0625 -0.246094 10.695312 -0.136719 C 10.238281 0 9.8125 0.105469 9.414062 0.175781 C 9.015625 0.246094 8.46875 0.28125 7.773438 0.28125 Z "/>
</g>
<g id="glyph-0-1">
<path d="M 11.582031 0 L 8.144531 0 L 8.144531 -5.4375 C 8.144531 -5.882812 8.125 -6.324219 8.089844 -6.761719 C 8.054688 -7.203125 7.988281 -7.527344 7.890625 -7.734375 C 7.773438 -7.980469 7.605469 -8.160156 7.382812 -8.265625 C 7.160156 -8.375 6.867188 -8.429688 6.492188 -8.429688 C 6.214844 -8.429688 5.929688 -8.375 5.644531 -8.273438 C 5.359375 -8.167969 5.050781 -8 4.726562 -7.773438 L 4.726562 0 L 1.308594 0 L 1.308594 -15.195312 L 4.726562 -15.195312 L 4.726562 -9.757812 C 5.285156 -10.230469 5.832031 -10.601562 6.363281 -10.867188 C 6.894531 -11.136719 7.480469 -11.269531 8.125 -11.269531 C 9.246094 -11.269531 10.101562 -10.917969 10.695312 -10.210938 C 11.285156 -9.503906 11.582031 -8.480469 11.582031 -7.140625 Z "/>
</g>
<g id="glyph-0-2">
<path d="M 11.492188 0 L 8.078125 0 L 8.078125 -1.210938 C 7.484375 -0.714844 6.941406 -0.339844 6.445312 -0.0820312 C 5.949219 0.175781 5.359375 0.304688 4.679688 0.304688 C 3.589844 0.304688 2.742188 -0.0390625 2.132812 -0.726562 C 1.523438 -1.414062 1.21875 -2.449219 1.21875 -3.828125 L 1.21875 -10.96875 L 4.65625 -10.96875 L 4.65625 -5.527344 C 4.65625 -4.960938 4.671875 -4.5 4.703125 -4.140625 C 4.730469 -3.78125 4.800781 -3.480469 4.914062 -3.234375 C 5.015625 -3.003906 5.175781 -2.832031 5.394531 -2.714844 C 5.613281 -2.597656 5.917969 -2.539062 6.308594 -2.539062 C 6.550781 -2.539062 6.835938 -2.597656 7.164062 -2.714844 C 7.492188 -2.832031 7.796875 -2.992188 8.078125 -3.195312 L 8.078125 -10.96875 L 11.5625 -10.96875 C 12.097656 -10.96875 12.472656 -11.097656 12.695312 -11.363281 C 12.917969 -11.625 13.027344 -11.988281 13.027344 -12.453125 C 13.027344 -12.710938 12.988281 -12.96875 12.910156 -13.222656 C 12.832031 -13.476562 12.757812 -13.679688 12.6875 -13.835938 L 12.6875 -14.023438 L 14.640625 -14.023438 C 14.703125 -13.800781 14.757812 -13.492188 14.804688 -13.089844 C 14.851562 -12.691406 14.875 -12.375 14.875 -12.140625 C 14.875 -11.136719 14.589844 -10.390625 14.019531 -9.898438 C 13.449219 -9.40625 12.636719 -9.160156 11.582031 -9.160156 L 11.492188 -9.160156 Z "/>
</g>
<g id="glyph-0-3">
<path d="M 11.835938 -5.476562 C 11.835938 -3.675781 11.34375 -2.253906 10.355469 -1.214844 C 9.371094 -0.175781 7.976562 0.34375 6.171875 0.34375 C 4.382812 0.34375 2.988281 -0.175781 1.996094 -1.214844 C 1.003906 -2.253906 0.507812 -3.675781 0.507812 -5.476562 C 0.507812 -7.300781 1.003906 -8.730469 1.996094 -9.761719 C 2.988281 -10.792969 4.382812 -11.308594 6.171875 -11.308594 C 6.582031 -11.308594 6.980469 -11.28125 7.367188 -11.21875 C 7.753906 -11.164062 8.109375 -11.078125 8.429688 -10.96875 L 9.265625 -10.96875 C 9.800781 -10.96875 10.179688 -11.097656 10.398438 -11.363281 C 10.621094 -11.625 10.734375 -11.988281 10.734375 -12.453125 C 10.734375 -12.710938 10.695312 -12.96875 10.617188 -13.222656 C 10.539062 -13.476562 10.460938 -13.679688 10.390625 -13.835938 L 10.390625 -14.023438 L 12.34375 -14.023438 C 12.410156 -13.800781 12.464844 -13.492188 12.507812 -13.089844 C 12.554688 -12.691406 12.578125 -12.375 12.578125 -12.140625 C 12.578125 -11.398438 12.421875 -10.792969 12.105469 -10.328125 C 11.789062 -9.863281 11.320312 -9.535156 10.695312 -9.34375 C 11.0625 -8.875 11.347656 -8.3125 11.542969 -7.652344 C 11.738281 -6.992188 11.835938 -6.265625 11.835938 -5.476562 M 8.328125 -5.460938 C 8.328125 -6.109375 8.277344 -6.652344 8.167969 -7.085938 C 8.0625 -7.519531 7.914062 -7.863281 7.726562 -8.125 C 7.523438 -8.398438 7.296875 -8.589844 7.039062 -8.695312 C 6.789062 -8.804688 6.496094 -8.859375 6.171875 -8.859375 C 5.867188 -8.859375 5.589844 -8.808594 5.34375 -8.714844 C 5.09375 -8.621094 4.867188 -8.441406 4.65625 -8.171875 C 4.460938 -7.917969 4.304688 -7.570312 4.1875 -7.128906 C 4.070312 -6.6875 4.011719 -6.128906 4.015625 -5.460938 C 4.011719 -4.789062 4.070312 -4.246094 4.179688 -3.832031 C 4.289062 -3.417969 4.433594 -3.089844 4.609375 -2.84375 C 4.792969 -2.585938 5.019531 -2.402344 5.292969 -2.285156 C 5.566406 -2.167969 5.867188 -2.109375 6.203125 -2.109375 C 6.476562 -2.109375 6.753906 -2.167969 7.035156 -2.285156 C 7.320312 -2.402344 7.546875 -2.578125 7.714844 -2.8125 C 7.917969 -3.09375 8.070312 -3.429688 8.171875 -3.824219 C 8.277344 -4.21875 8.328125 -4.761719 8.328125 -5.460938 Z "/>
</g>
<g id="glyph-0-4">
<path d="M 11.582031 0 L 8.144531 0 L 8.144531 -5.4375 C 8.144531 -5.882812 8.125 -6.324219 8.089844 -6.761719 C 8.054688 -7.203125 7.988281 -7.527344 7.890625 -7.734375 C 7.773438 -7.980469 7.605469 -8.160156 7.382812 -8.265625 C 7.160156 -8.375 6.867188 -8.429688 6.492188 -8.429688 C 6.214844 -8.429688 5.929688 -8.375 5.644531 -8.273438 C 5.359375 -8.167969 5.050781 -8 4.726562 -7.773438 L 4.726562 0 L 1.308594 0 L 1.308594 -10.96875 L 4.726562 -10.96875 L 4.726562 -9.757812 C 5.285156 -10.230469 5.832031 -10.601562 6.363281 -10.867188 C 6.894531 -11.136719 7.480469 -11.269531 8.125 -11.269531 C 9.246094 -11.269531 10.101562 -10.917969 10.695312 -10.210938 C 11.285156 -9.503906 11.582031 -8.480469 11.582031 -7.140625 Z "/>
</g>
<g id="glyph-0-5">
<path d="M 7.859375 -3.457031 L 7.859375 -8.429688 C 7.691406 -8.507812 7.484375 -8.570312 7.234375 -8.625 C 6.988281 -8.675781 6.742188 -8.699219 6.492188 -8.703125 C 5.671875 -8.699219 5.058594 -8.4375 4.644531 -7.90625 C 4.230469 -7.375 4.023438 -6.632812 4.023438 -5.683594 C 4.023438 -5.207031 4.054688 -4.804688 4.117188 -4.476562 C 4.179688 -4.148438 4.292969 -3.855469 4.460938 -3.601562 C 4.625 -3.355469 4.839844 -3.167969 5.101562 -3.042969 C 5.367188 -2.914062 5.703125 -2.851562 6.113281 -2.851562 C 6.417969 -2.851562 6.71875 -2.902344 7.015625 -3.007812 C 7.3125 -3.113281 7.59375 -3.261719 7.859375 -3.457031 M 11.28125 -1.257812 C 11.28125 -0.246094 11.132812 0.617188 10.839844 1.328125 C 10.546875 2.039062 10.148438 2.589844 9.640625 2.988281 C 9.128906 3.390625 8.523438 3.683594 7.8125 3.863281 C 7.101562 4.042969 6.316406 4.128906 5.449219 4.132812 C 4.71875 4.128906 4.027344 4.082031 3.375 3.988281 C 2.71875 3.894531 2.152344 3.785156 1.671875 3.664062 L 1.671875 0.917969 L 2.070312 0.917969 C 2.238281 0.984375 2.441406 1.054688 2.671875 1.132812 C 2.902344 1.210938 3.132812 1.28125 3.367188 1.347656 C 3.648438 1.417969 3.921875 1.476562 4.1875 1.523438 C 4.457031 1.570312 4.730469 1.59375 5.007812 1.59375 C 5.589844 1.59375 6.074219 1.53125 6.460938 1.410156 C 6.847656 1.289062 7.140625 1.121094 7.335938 0.898438 C 7.53125 0.671875 7.664062 0.402344 7.742188 0.09375 C 7.820312 -0.214844 7.859375 -0.605469 7.859375 -1.074219 L 7.859375 -1.28125 C 7.476562 -0.941406 7.03125 -0.667969 6.527344 -0.464844 C 6.023438 -0.257812 5.503906 -0.15625 4.96875 -0.15625 C 3.550781 -0.15625 2.457031 -0.617188 1.683594 -1.542969 C 0.914062 -2.46875 0.527344 -3.875 0.527344 -5.761719 C 0.527344 -6.621094 0.644531 -7.390625 0.882812 -8.078125 C 1.121094 -8.757812 1.453125 -9.34375 1.875 -9.824219 C 2.277344 -10.285156 2.765625 -10.644531 3.339844 -10.894531 C 3.914062 -11.144531 4.507812 -11.269531 5.125 -11.269531 C 5.6875 -11.269531 6.1875 -11.199219 6.632812 -11.054688 C 7.074219 -10.910156 7.476562 -10.71875 7.84375 -10.476562 L 7.96875 -10.96875 L 11.28125 -10.96875 Z "/>
</g>
<g id="glyph-0-6">
</g>
<g id="glyph-0-7">
<path d="M 11.828125 -4.921875 C 11.828125 -4.167969 11.699219 -3.46875 11.441406 -2.820312 C 11.183594 -2.179688 10.796875 -1.621094 10.28125 -1.152344 C 9.773438 -0.691406 9.171875 -0.332031 8.472656 -0.078125 C 7.773438 0.175781 6.910156 0.304688 5.890625 0.304688 C 4.808594 0.296875 3.878906 0.203125 3.101562 0.0234375 C 2.324219 -0.15625 1.679688 -0.355469 1.171875 -0.578125 L 1.171875 -3.75 L 1.503906 -3.75 C 1.6875 -3.644531 1.890625 -3.527344 2.117188 -3.398438 C 2.347656 -3.269531 2.648438 -3.132812 3.015625 -2.988281 C 3.363281 -2.851562 3.710938 -2.738281 4.066406 -2.652344 C 4.421875 -2.5625 4.816406 -2.519531 5.253906 -2.519531 C 5.632812 -2.519531 6.039062 -2.566406 6.476562 -2.660156 C 6.910156 -2.753906 7.261719 -2.925781 7.53125 -3.171875 C 7.722656 -3.367188 7.878906 -3.585938 7.988281 -3.828125 C 8.097656 -4.070312 8.15625 -4.390625 8.15625 -4.796875 C 8.15625 -5.132812 8.085938 -5.425781 7.945312 -5.667969 C 7.804688 -5.914062 7.621094 -6.109375 7.390625 -6.257812 C 7.0625 -6.480469 6.660156 -6.621094 6.191406 -6.683594 C 5.722656 -6.746094 5.320312 -6.777344 4.980469 -6.777344 C 4.445312 -6.777344 3.925781 -6.734375 3.421875 -6.648438 C 2.917969 -6.566406 2.480469 -6.476562 2.109375 -6.375 L 1.796875 -6.375 L 1.796875 -14.539062 L 11.425781 -14.539062 L 11.425781 -11.796875 L 5.242188 -11.796875 L 5.242188 -9.375 C 5.4375 -9.386719 5.671875 -9.398438 5.941406 -9.410156 C 6.210938 -9.417969 6.421875 -9.421875 6.570312 -9.421875 C 7.269531 -9.421875 7.914062 -9.355469 8.507812 -9.214844 C 9.097656 -9.074219 9.621094 -8.859375 10.078125 -8.5625 C 10.632812 -8.207031 11.0625 -7.726562 11.367188 -7.125 C 11.671875 -6.523438 11.828125 -5.789062 11.828125 -4.921875 Z "/>
</g>
</g>
</defs>
<g fill="rgb(96.862745%, 85.098039%, 43.529412%)" fill-opacity="1">
<use xlink:href="#glyph-0-0" x="30" y="40.009766"/>
<use xlink:href="#glyph-0-1" x="43" y="40.009766"/>
<use xlink:href="#glyph-0-2" x="56" y="40.009766"/>
<use xlink:href="#glyph-0-3" x="70" y="40.009766"/>
<use xlink:href="#glyph-0-4" x="83" y="40.009766"/>
<use xlink:href="#glyph-0-5" x="96" y="40.009766"/>
<use xlink:href="#glyph-0-6" x="109" y="40.009766"/>
<use xlink:href="#glyph-0-7" x="115" y="40.009766"/>
</g>
</svg>
